<?xml version="1.0" encoding="UTF-8" standalone="no"?>
<!-- Created with Inkscape (http://www.inkscape.org/) -->

<svg
   width="210mm"
   height="297mm"
   viewBox="0 0 210 297"
   version="1.1"
   id="svg5"
   inkscape:version="1.1 (c68e22c387, 2021-05-23)"
   sodipodi:docname="weylandy.svg"
   xmlns:inkscape="http://www.inkscape.org/namespaces/inkscape"
   xmlns:sodipodi="http://sodipodi.sourceforge.net/DTD/sodipodi-0.dtd"
   xmlns="http://www.w3.org/2000/svg"
   xmlns:svg="http://www.w3.org/2000/svg">
  <sodipodi:namedview
     id="namedview7"
     pagecolor="#505050"
     bordercolor="#ffffff"
     borderopacity="1"
     inkscape:pageshadow="0"
     inkscape:pageopacity="0"
     inkscape:pagecheckerboard="1"
     inkscape:document-units="mm"
     showgrid="false"
     inkscape:zoom="0.77771465"
     inkscape:cx="459.68017"
     inkscape:cy="532.97183"
     inkscape:window-width="2106"
     inkscape:window-height="1146"
     inkscape:window-x="890"
     inkscape:window-y="838"
     inkscape:window-maximized="0"
     inkscape:current-layer="layer1" />
  <defs
     id="defs2" />
  <g
     inkscape:groupmode="layer"
     id="layer2"
     inkscape:label="raster" />
  <g
     inkscape:label="art"
     inkscape:groupmode="layer"
     id="layer1">
    <path
       style="fill:none;stroke-width:1;stroke:#000000;stroke-opacity:1;stroke-miterlimit:4;stroke-dasharray:none"
       d="m 56.24628,73.07302 -14.5,-14.5089 0.0835,-1.16766 0.0835,-1.16767 8.54972,-0.0698 c 4.70234,-0.0384 8.72568,0.0286 8.94076,0.149 0.21508,0.12037 3.2138,3.00757 6.66383,6.41602 3.45003,3.40844 7.70794,7.60256 9.46204,9.32026 l 3.18927,3.1231 9.74673,-9.53542 9.746725,-9.53542 h 5.453895 5.4539 l 9.63358,9.63629 9.63358,9.63629 9.81194,-9.63808 9.81193,-9.63808 8.59896,0.0679 8.59896,0.0679 0.0826,1.30553 0.0826,1.30552 -14.36923,14.37104 -14.36922,14.37104 -6.74778,-8e-4 -6.74779,-7.9e-4 -9.78958,-9.64129 -9.78959,-9.64129 -9.658605,9.64203 -9.658605,9.64214 h -6.74881 -6.74881 z m 37.657555,13.2815 v -1.22739 l 4.81953,-4.86445 4.819525,-4.86445 4.72244,4.70278 c 2.59734,2.58653 4.81726,4.88137 4.93316,5.09966 0.1159,0.21828 0.15477,0.84336 0.0864,1.38906 l -0.12435,0.99219 H 103.5322 93.903855 Z M 73.94586,63.63652 69.29759,59.0057 v -1.4546 -1.4546 h 8.41158 8.41158 l 1.11342,1.13449 c 0.61238,0.62397 1.11342,1.25029 1.11342,1.39182 0,0.28512 -9.29268,9.64452 -9.57577,9.64452 -0.0977,0 -2.26942,-2.08387 -4.82596,-4.63081 z m 49.78699,-0.0682 c -2.58148,-2.58447 -4.6936,-4.82186 -4.6936,-4.97199 0,-0.15013 0.51228,-0.77573 1.13841,-1.39022 l 1.13841,-1.11727 8.32044,0.07 8.32045,0.07 0.0826,1.3038 0.0826,1.30379 -4.71001,4.71548 c -2.59051,2.59351 -4.77203,4.71547 -4.84782,4.71547 -0.0758,0 -2.24993,-2.11456 -4.8314,-4.69904 z"
       id="path105" />
    <circle
       id="path712"
       style="fill:#000000;stroke:#000000;stroke-width:0.264583"
       cx="127.20008"
       cy="65.318703"
       r="0.09601213" />
    <circle
       id="path714"
       style="fill:#000000;stroke:#000000;stroke-width:0.264583"
       cx="127.20008"
       cy="65.318703"
       r="0.09601213" />
  </g>
</svg>
