%TF.GenerationSoftware,KiCad,Pcbnew,6.0.4*%
%TF.CreationDate,2022-07-27T16:30:23-04:00*%
%TF.ProjectId,verter,76657274-6572-42e6-9b69-6361645f7063,rev?*%
%TF.SameCoordinates,Original*%
%TF.FileFunction,Copper,L1,Top*%
%TF.FilePolarity,Positive*%
%FSLAX46Y46*%
G04 Gerber Fmt 4.6, Leading zero omitted, Abs format (unit mm)*
G04 Created by KiCad (PCBNEW 6.0.4) date 2022-07-27 16:30:23*
%MOMM*%
%LPD*%
G01*
G04 APERTURE LIST*
G04 Aperture macros list*
%AMRoundRect*
0 Rectangle with rounded corners*
0 $1 Rounding radius*
0 $2 $3 $4 $5 $6 $7 $8 $9 X,Y pos of 4 corners*
0 Add a 4 corners polygon primitive as box body*
4,1,4,$2,$3,$4,$5,$6,$7,$8,$9,$2,$3,0*
0 Add four circle primitives for the rounded corners*
1,1,$1+$1,$2,$3*
1,1,$1+$1,$4,$5*
1,1,$1+$1,$6,$7*
1,1,$1+$1,$8,$9*
0 Add four rect primitives between the rounded corners*
20,1,$1+$1,$2,$3,$4,$5,0*
20,1,$1+$1,$4,$5,$6,$7,0*
20,1,$1+$1,$6,$7,$8,$9,0*
20,1,$1+$1,$8,$9,$2,$3,0*%
%AMOutline4P*
0 Free polygon, 4 corners , with rotation*
0 The origin of the aperture is its center*
0 number of corners: always 4*
0 $1 to $8 corner X, Y*
0 $9 Rotation angle, in degrees counterclockwise*
0 create outline with 4 corners*
4,1,4,$1,$2,$3,$4,$5,$6,$7,$8,$1,$2,$9*%
%AMOutline5P*
0 Free polygon, 5 corners , with rotation*
0 The origin of the aperture is its center*
0 number of corners: always 5*
0 $1 to $10 corner X, Y*
0 $11 Rotation angle, in degrees counterclockwise*
0 create outline with 5 corners*
4,1,5,$1,$2,$3,$4,$5,$6,$7,$8,$9,$10,$1,$2,$11*%
%AMOutline6P*
0 Free polygon, 6 corners , with rotation*
0 The origin of the aperture is its center*
0 number of corners: always 6*
0 $1 to $12 corner X, Y*
0 $13 Rotation angle, in degrees counterclockwise*
0 create outline with 6 corners*
4,1,6,$1,$2,$3,$4,$5,$6,$7,$8,$9,$10,$11,$12,$1,$2,$13*%
%AMOutline7P*
0 Free polygon, 7 corners , with rotation*
0 The origin of the aperture is its center*
0 number of corners: always 7*
0 $1 to $14 corner X, Y*
0 $15 Rotation angle, in degrees counterclockwise*
0 create outline with 7 corners*
4,1,7,$1,$2,$3,$4,$5,$6,$7,$8,$9,$10,$11,$12,$13,$14,$1,$2,$15*%
%AMOutline8P*
0 Free polygon, 8 corners , with rotation*
0 The origin of the aperture is its center*
0 number of corners: always 8*
0 $1 to $16 corner X, Y*
0 $17 Rotation angle, in degrees counterclockwise*
0 create outline with 8 corners*
4,1,8,$1,$2,$3,$4,$5,$6,$7,$8,$9,$10,$11,$12,$13,$14,$15,$16,$1,$2,$17*%
G04 Aperture macros list end*
%TA.AperFunction,NonConductor*%
%ADD10C,0.200000*%
%TD*%
%TA.AperFunction,SMDPad,CuDef*%
%ADD11Outline6P,-1.143000X0.762000X0.838200X0.762000X1.143000X0.457200X1.143000X-0.457200X0.838200X-0.762000X-1.143000X-0.762000X0.000000*%
%TD*%
%TA.AperFunction,SMDPad,CuDef*%
%ADD12RoundRect,0.135000X-0.135000X-0.185000X0.135000X-0.185000X0.135000X0.185000X-0.135000X0.185000X0*%
%TD*%
%TA.AperFunction,SMDPad,CuDef*%
%ADD13Outline6P,-1.143000X0.457200X-0.838200X0.762000X1.143000X0.762000X1.143000X-0.762000X-0.838200X-0.762000X-1.143000X-0.457200X0.000000*%
%TD*%
%TA.AperFunction,ComponentPad*%
%ADD14C,8.000000*%
%TD*%
%TA.AperFunction,SMDPad,CuDef*%
%ADD15RoundRect,0.135000X-0.035355X0.226274X-0.226274X0.035355X0.035355X-0.226274X0.226274X-0.035355X0*%
%TD*%
%TA.AperFunction,SMDPad,CuDef*%
%ADD16Outline6P,-1.143000X0.762000X0.838200X0.762000X1.143000X0.457200X1.143000X-0.457200X0.838200X-0.762000X-1.143000X-0.762000X225.000000*%
%TD*%
%TA.AperFunction,SMDPad,CuDef*%
%ADD17Outline6P,-1.143000X0.457200X-0.838200X0.762000X1.143000X0.762000X1.143000X-0.762000X-0.838200X-0.762000X-1.143000X-0.457200X225.000000*%
%TD*%
%TA.AperFunction,TestPad*%
%ADD18C,6.000000*%
%TD*%
%TA.AperFunction,ComponentPad*%
%ADD19Outline4P,-0.912000X-1.262000X0.912000X-0.262000X0.912000X0.262000X-0.912000X1.262000X0.000000*%
%TD*%
%TA.AperFunction,ComponentPad*%
%ADD20R,1.524000X1.524000*%
%TD*%
%TA.AperFunction,ComponentPad*%
%ADD21C,1.524000*%
%TD*%
%TA.AperFunction,SMDPad,CuDef*%
%ADD22Outline6P,-1.143000X0.762000X0.838200X0.762000X1.143000X0.457200X1.143000X-0.457200X0.838200X-0.762000X-1.143000X-0.762000X90.000000*%
%TD*%
%TA.AperFunction,SMDPad,CuDef*%
%ADD23RoundRect,0.135000X0.185000X-0.135000X0.185000X0.135000X-0.185000X0.135000X-0.185000X-0.135000X0*%
%TD*%
%TA.AperFunction,SMDPad,CuDef*%
%ADD24Outline6P,-1.143000X0.457200X-0.838200X0.762000X1.143000X0.762000X1.143000X-0.762000X-0.838200X-0.762000X-1.143000X-0.457200X90.000000*%
%TD*%
%TA.AperFunction,SMDPad,CuDef*%
%ADD25RoundRect,0.237500X-0.237500X0.300000X-0.237500X-0.300000X0.237500X-0.300000X0.237500X0.300000X0*%
%TD*%
%TA.AperFunction,SMDPad,CuDef*%
%ADD26RoundRect,0.249999X-0.737501X-2.450001X0.737501X-2.450001X0.737501X2.450001X-0.737501X2.450001X0*%
%TD*%
%TA.AperFunction,ComponentPad*%
%ADD27C,2.524000*%
%TD*%
%TA.AperFunction,ComponentPad*%
%ADD28R,2.000000X1.905000*%
%TD*%
%TA.AperFunction,SMDPad,CuDef*%
%ADD29R,16.262000X9.762000*%
%TD*%
%TA.AperFunction,ComponentPad*%
%ADD30O,2.000000X1.905000*%
%TD*%
%TA.AperFunction,ComponentPad*%
%ADD31C,4.000000*%
%TD*%
%TA.AperFunction,ComponentPad*%
%ADD32Outline5P,-2.000000X1.200000X-1.200000X2.000000X2.000000X2.000000X2.000000X-2.000000X-2.000000X-2.000000X0.000000*%
%TD*%
%TA.AperFunction,SMDPad,CuDef*%
%ADD33RoundRect,0.137500X-0.662500X-0.137500X0.662500X-0.137500X0.662500X0.137500X-0.662500X0.137500X0*%
%TD*%
%TA.AperFunction,SMDPad,CuDef*%
%ADD34RoundRect,0.249999X-2.450001X0.737501X-2.450001X-0.737501X2.450001X-0.737501X2.450001X0.737501X0*%
%TD*%
%TA.AperFunction,SMDPad,CuDef*%
%ADD35RoundRect,0.135000X0.135000X0.185000X-0.135000X0.185000X-0.135000X-0.185000X0.135000X-0.185000X0*%
%TD*%
%TA.AperFunction,SMDPad,CuDef*%
%ADD36Outline6P,-1.143000X0.762000X0.838200X0.762000X1.143000X0.457200X1.143000X-0.457200X0.838200X-0.762000X-1.143000X-0.762000X180.000000*%
%TD*%
%TA.AperFunction,SMDPad,CuDef*%
%ADD37Outline6P,-1.143000X0.457200X-0.838200X0.762000X1.143000X0.762000X1.143000X-0.762000X-0.838200X-0.762000X-1.143000X-0.457200X180.000000*%
%TD*%
%TA.AperFunction,SMDPad,CuDef*%
%ADD38RoundRect,0.135000X-0.226274X-0.035355X-0.035355X-0.226274X0.226274X0.035355X0.035355X0.226274X0*%
%TD*%
%TA.AperFunction,SMDPad,CuDef*%
%ADD39Outline6P,-1.143000X0.762000X0.838200X0.762000X1.143000X0.457200X1.143000X-0.457200X0.838200X-0.762000X-1.143000X-0.762000X315.000000*%
%TD*%
%TA.AperFunction,SMDPad,CuDef*%
%ADD40Outline6P,-1.143000X0.457200X-0.838200X0.762000X1.143000X0.762000X1.143000X-0.762000X-0.838200X-0.762000X-1.143000X-0.457200X315.000000*%
%TD*%
%TA.AperFunction,SMDPad,CuDef*%
%ADD41RoundRect,0.237500X-0.044194X-0.380070X0.380070X0.044194X0.044194X0.380070X-0.380070X-0.044194X0*%
%TD*%
%TA.AperFunction,SMDPad,CuDef*%
%ADD42RoundRect,0.135000X0.035355X-0.226274X0.226274X-0.035355X-0.035355X0.226274X-0.226274X0.035355X0*%
%TD*%
%TA.AperFunction,SMDPad,CuDef*%
%ADD43Outline6P,-1.143000X0.762000X0.838200X0.762000X1.143000X0.457200X1.143000X-0.457200X0.838200X-0.762000X-1.143000X-0.762000X45.000000*%
%TD*%
%TA.AperFunction,SMDPad,CuDef*%
%ADD44Outline6P,-1.143000X0.457200X-0.838200X0.762000X1.143000X0.762000X1.143000X-0.762000X-0.838200X-0.762000X-1.143000X-0.457200X45.000000*%
%TD*%
%TA.AperFunction,SMDPad,CuDef*%
%ADD45RoundRect,0.249999X0.737501X2.450001X-0.737501X2.450001X-0.737501X-2.450001X0.737501X-2.450001X0*%
%TD*%
%TA.AperFunction,SMDPad,CuDef*%
%ADD46RoundRect,0.237500X0.237500X-0.300000X0.237500X0.300000X-0.237500X0.300000X-0.237500X-0.300000X0*%
%TD*%
%TA.AperFunction,SMDPad,CuDef*%
%ADD47RoundRect,0.249999X2.450001X-0.737501X2.450001X0.737501X-2.450001X0.737501X-2.450001X-0.737501X0*%
%TD*%
%TA.AperFunction,ComponentPad*%
%ADD48Outline5P,-2.000000X1.200000X-1.200000X2.000000X2.000000X2.000000X2.000000X-2.000000X-2.000000X-2.000000X180.000000*%
%TD*%
%TA.AperFunction,ViaPad*%
%ADD49C,0.800000*%
%TD*%
%TA.AperFunction,ViaPad*%
%ADD50C,0.600000*%
%TD*%
%TA.AperFunction,ViaPad*%
%ADD51C,0.550000*%
%TD*%
%TA.AperFunction,ViaPad*%
%ADD52C,0.700000*%
%TD*%
%TA.AperFunction,Conductor*%
%ADD53C,1.000000*%
%TD*%
%TA.AperFunction,Conductor*%
%ADD54C,0.600000*%
%TD*%
%TA.AperFunction,Conductor*%
%ADD55C,1.250000*%
%TD*%
%TA.AperFunction,Conductor*%
%ADD56C,3.000000*%
%TD*%
%TA.AperFunction,Conductor*%
%ADD57C,2.000000*%
%TD*%
%TA.AperFunction,Conductor*%
%ADD58C,0.152400*%
%TD*%
%TA.AperFunction,Conductor*%
%ADD59C,2.250000*%
%TD*%
%TA.AperFunction,Conductor*%
%ADD60C,2.500000*%
%TD*%
%TA.AperFunction,Conductor*%
%ADD61C,4.000000*%
%TD*%
%TA.AperFunction,Conductor*%
%ADD62C,0.250000*%
%TD*%
G04 APERTURE END LIST*
D10*
X105150000Y-121450000D02*
X105050000Y-121500000D01*
D11*
%TO.P,C11,1*%
%TO.N,+BATT*%
X114272000Y-135750000D03*
D12*
X115540000Y-135750000D03*
D13*
%TO.P,C11,2*%
%TO.N,-BATT*%
X117828000Y-135750000D03*
D12*
X116560000Y-135750000D03*
%TD*%
D14*
%TO.P,M1,1,hol*%
%TO.N,/amp/nw*%
X105000000Y-105000000D03*
%TD*%
D15*
%TO.P,R12,1*%
%TO.N,-VDC*%
X140250000Y-144600000D03*
D16*
X141146612Y-143703388D03*
D15*
%TO.P,R12,2*%
%TO.N,-BATT*%
X139528752Y-145321248D03*
D17*
X138632140Y-146217860D03*
%TD*%
D18*
%TO.P,BN2,1,1+*%
%TO.N,+VDC*%
X168900000Y-116100000D03*
%TO.P,BN2,2,2-*%
%TO.N,-VDC*%
X168900000Y-135150000D03*
%TD*%
D14*
%TO.P,M2,1,hol*%
%TO.N,/amp/sw*%
X184000000Y-144000000D03*
%TD*%
D19*
%TO.P,t3bat-1,1,tp*%
%TO.N,-BATT*%
X125450000Y-140750000D03*
%TD*%
%TO.P,t12hbout1,1,tp*%
%TO.N,/amp/hbout*%
X178850000Y-126350000D03*
%TD*%
%TO.P,t2vdda1,1,tp*%
%TO.N,/amp/vdda*%
X125000000Y-103000000D03*
%TD*%
D20*
%TO.P,cn1,1,1*%
%TO.N,GND*%
X101986000Y-124540000D03*
D21*
%TO.P,cn1,2,2*%
%TO.N,hb_b_in*%
X101986000Y-122000000D03*
%TO.P,cn1,3,3*%
%TO.N,hb_a_in*%
X101986000Y-119460000D03*
%TO.P,cn1,4,4*%
%TO.N,hb_dis*%
X101986000Y-116920000D03*
%TO.P,cn1,5,5*%
%TO.N,+3V3*%
X101986000Y-114380000D03*
%TD*%
D22*
%TO.P,R1,1*%
%TO.N,/amp/voa*%
X120030000Y-122055500D03*
D23*
X120030000Y-120787500D03*
D24*
%TO.P,R1,2*%
%TO.N,/amp/hi_gate*%
X120030000Y-118499500D03*
D23*
X120030000Y-119767500D03*
%TD*%
D16*
%TO.P,D1,1,K*%
%TO.N,/amp/vdda_bootstrap_inrush_limit*%
X116257236Y-113742764D03*
D15*
X115360624Y-114639376D03*
%TO.P,D1,2,A*%
%TO.N,+BATT*%
X114639376Y-115360624D03*
D17*
X113742764Y-116257236D03*
%TD*%
D19*
%TO.P,t1,1,tp*%
%TO.N,+3V3*%
X102000000Y-132460000D03*
%TD*%
%TO.P,t4bat+1,1,tp*%
%TO.N,+BATT*%
X121200000Y-144900000D03*
%TD*%
D14*
%TO.P,M3,1,hol*%
%TO.N,/amp/ne*%
X184000000Y-106000000D03*
%TD*%
D25*
%TO.P,C4,1*%
%TO.N,/amp/vdda*%
X115000000Y-120637500D03*
%TO.P,C4,2*%
%TO.N,/amp/hb_rawmid*%
X115000000Y-122362500D03*
%TD*%
D26*
%TO.P,C5,1*%
%TO.N,/amp/hb_filtmid*%
X159612500Y-123150000D03*
%TO.P,C5,2*%
%TO.N,-VDC*%
X164887500Y-123150000D03*
%TD*%
D27*
%TO.P,L1,1,1*%
%TO.N,/amp/hb_rawmid*%
X152550000Y-124450000D03*
%TO.P,L1,2,2*%
%TO.N,/amp/hb_filtmid*%
X159734205Y-131634205D03*
%TD*%
D25*
%TO.P,C3,1*%
%TO.N,+BATT*%
X114950000Y-126987500D03*
%TO.P,C3,2*%
%TO.N,-BATT*%
X114950000Y-128712500D03*
%TD*%
D18*
%TO.P,BN3,1,1+*%
%TO.N,+BATT*%
X113850000Y-144850000D03*
%TO.P,BN3,2,2-*%
%TO.N,-BATT*%
X132900000Y-144850000D03*
%TD*%
D28*
%TO.P,U2,1,g*%
%TO.N,/amp/lo_gate*%
X125770000Y-129560000D03*
D29*
%TO.P,U2,2,d*%
%TO.N,/amp/hb_rawmid*%
X136901000Y-132179000D03*
D30*
X125770000Y-132100000D03*
%TO.P,U2,3,s*%
%TO.N,-VDC*%
X125770000Y-134640000D03*
%TD*%
D31*
%TO.P,C6,1*%
%TO.N,+VDC*%
X144550000Y-107450000D03*
D32*
%TO.P,C6,2*%
%TO.N,/amp/vdc_midpoint*%
X154550000Y-107450000D03*
%TD*%
D25*
%TO.P,R3,1*%
%TO.N,+VDC*%
X176250000Y-115637500D03*
%TO.P,R3,2*%
%TO.N,/amp/dcled_drop*%
X176250000Y-117362500D03*
%TD*%
D19*
%TO.P,t6higate1,1,tp*%
%TO.N,/amp/hi_gate*%
X129340000Y-107460000D03*
%TD*%
D33*
%TO.P,U4,1,Via*%
%TO.N,hb_a_in*%
X105750000Y-120255000D03*
%TO.P,U4,2,vib*%
%TO.N,hb_b_in*%
X105750000Y-121525000D03*
%TO.P,U4,3,vdd1*%
%TO.N,+3V3*%
X105750000Y-122795000D03*
%TO.P,U4,4,gnd1*%
%TO.N,GND*%
X105750000Y-124065000D03*
%TO.P,U4,5,dis*%
%TO.N,hb_dis*%
X105750000Y-125335000D03*
%TO.P,U4,6,nc*%
%TO.N,unconnected-(U4-Pad6)*%
X105750000Y-126605000D03*
%TO.P,U4,7,nc*%
%TO.N,unconnected-(U4-Pad7)*%
X105750000Y-127875000D03*
%TO.P,U4,8,vdd1*%
%TO.N,+3V3*%
X105750000Y-129145000D03*
%TO.P,U4,9,gndb*%
%TO.N,-BATT*%
X112250000Y-129145000D03*
%TO.P,U4,10,vob*%
%TO.N,/amp/vob*%
X112250000Y-127875000D03*
%TO.P,U4,11,vddb*%
%TO.N,+BATT*%
X112250000Y-126605000D03*
%TO.P,U4,12,nc*%
%TO.N,unconnected-(U4-Pad12)*%
X112250000Y-125335000D03*
%TO.P,U4,13,nc*%
%TO.N,unconnected-(U4-Pad13)*%
X112250000Y-124065000D03*
%TO.P,U4,14,gnda*%
%TO.N,/amp/hb_rawmid*%
X112250000Y-122795000D03*
%TO.P,U4,15,voa*%
%TO.N,/amp/voa*%
X112250000Y-121525000D03*
%TO.P,U4,16,vdda*%
%TO.N,/amp/vdda*%
X112250000Y-120255000D03*
%TD*%
D22*
%TO.P,R2,1*%
%TO.N,/amp/lo_gate*%
X119880000Y-130778000D03*
D23*
X119880000Y-129510000D03*
%TO.P,R2,2*%
%TO.N,/amp/vob*%
X119880000Y-128490000D03*
D24*
X119880000Y-127222000D03*
%TD*%
D19*
%TO.P,t5lo_gate1,1,tp*%
%TO.N,/amp/lo_gate*%
X123750000Y-127000000D03*
%TD*%
%TO.P,t8hbf1,1,tp*%
%TO.N,/amp/hb_filtmid*%
X166550000Y-129250000D03*
%TD*%
D11*
%TO.P,C10,1*%
%TO.N,/amp/vdda*%
X121122000Y-114100000D03*
D12*
X122390000Y-114100000D03*
D13*
%TO.P,C10,2*%
%TO.N,/amp/hb_rawmid*%
X124678000Y-114100000D03*
D12*
X123410000Y-114100000D03*
%TD*%
D28*
%TO.P,U1,1,g*%
%TO.N,/amp/hi_gate*%
X125770000Y-118460000D03*
D29*
%TO.P,U1,2,d*%
%TO.N,+VDC*%
X136901000Y-121079000D03*
D30*
X125770000Y-121000000D03*
%TO.P,U1,3,s*%
%TO.N,/amp/hb_rawmid*%
X125770000Y-123540000D03*
%TD*%
D34*
%TO.P,C12,1*%
%TO.N,+VDC*%
X149700000Y-113250000D03*
%TO.P,C12,2*%
%TO.N,/amp/hb_rawmid*%
X149700000Y-118525000D03*
%TD*%
D25*
%TO.P,R11,1*%
%TO.N,+BATT*%
X110000000Y-137537500D03*
%TO.P,R11,2*%
%TO.N,/amp/batled-drop*%
X110000000Y-139262500D03*
%TD*%
D35*
%TO.P,D3,1,K*%
%TO.N,GND*%
X113510000Y-103000000D03*
D36*
X114778000Y-103000000D03*
D35*
%TO.P,D3,2,A*%
%TO.N,/amp/3v3led_drop*%
X112490000Y-103000000D03*
D37*
X111222000Y-103000000D03*
%TD*%
D27*
%TO.P,L2,1,1*%
%TO.N,/amp/hb_filtmid*%
X171115795Y-126415795D03*
%TO.P,L2,2,2*%
%TO.N,/amp/hbout*%
X178300000Y-133600000D03*
%TD*%
D38*
%TO.P,C2,1*%
%TO.N,+3V3*%
X104989376Y-112639376D03*
D39*
X104092764Y-111742764D03*
D38*
%TO.P,C2,2*%
%TO.N,GND*%
X105710624Y-113360624D03*
D40*
X106607236Y-114257236D03*
%TD*%
D34*
%TO.P,C13,1*%
%TO.N,+VDC*%
X182700000Y-115425000D03*
%TO.P,C13,2*%
%TO.N,/amp/hbout*%
X182700000Y-120700000D03*
%TD*%
D41*
%TO.P,R10,1*%
%TO.N,+3V3*%
X109390120Y-109609880D03*
%TO.P,R10,2*%
%TO.N,/amp/3v3led_drop*%
X110609880Y-108390120D03*
%TD*%
D42*
%TO.P,R4,1*%
%TO.N,/amp/vdda_bootstrap_inrush_limit*%
X121439376Y-108960624D03*
D43*
X120542764Y-109857236D03*
D44*
%TO.P,R4,2*%
%TO.N,/amp/vdda*%
X123057236Y-107342764D03*
D42*
X122160624Y-108239376D03*
%TD*%
D45*
%TO.P,C9,1*%
%TO.N,/amp/vdc_midpoint*%
X153237500Y-132150000D03*
%TO.P,C9,2*%
%TO.N,-VDC*%
X147962500Y-132150000D03*
%TD*%
D19*
%TO.P,t7hbc1,1,tp*%
%TO.N,/amp/hb_rawmid*%
X147950000Y-125800000D03*
%TD*%
D18*
%TO.P,BN1,1,1*%
%TO.N,/amp/vdc_midpoint*%
X173650000Y-105650000D03*
%TD*%
D46*
%TO.P,C1,1*%
%TO.N,+3V3*%
X102000000Y-129322500D03*
%TO.P,C1,2*%
%TO.N,GND*%
X102000000Y-127597500D03*
%TD*%
D35*
%TO.P,D4,1,K*%
%TO.N,-BATT*%
X116483000Y-139400000D03*
D36*
X117751000Y-139400000D03*
D37*
%TO.P,D4,2,A*%
%TO.N,/amp/batled-drop*%
X114195000Y-139400000D03*
D35*
X115463000Y-139400000D03*
%TD*%
D47*
%TO.P,C8,1*%
%TO.N,+VDC*%
X164462500Y-108687500D03*
%TO.P,C8,2*%
%TO.N,/amp/vdc_midpoint*%
X164462500Y-103412500D03*
%TD*%
D18*
%TO.P,BNOut4,1,1*%
%TO.N,/amp/hbout*%
X184200000Y-127900000D03*
%TD*%
D42*
%TO.P,D2,1,K*%
%TO.N,-VDC*%
X172839376Y-121560624D03*
D43*
X171942764Y-122457236D03*
D42*
%TO.P,D2,2,A*%
%TO.N,/amp/dcled_drop*%
X173560624Y-120839376D03*
D44*
X174457236Y-119942764D03*
%TD*%
D31*
%TO.P,C7,1*%
%TO.N,/amp/vdc_midpoint*%
X156800000Y-144300000D03*
D48*
%TO.P,C7,2*%
%TO.N,-VDC*%
X146800000Y-144300000D03*
%TD*%
D14*
%TO.P,M4,1,hol*%
%TO.N,/amp/se*%
X105000000Y-145000000D03*
%TD*%
D49*
%TO.N,GND*%
X105400000Y-115400000D03*
D50*
X103900000Y-124200000D03*
D49*
X114050000Y-101450000D03*
X103300000Y-127550000D03*
X107650000Y-113200000D03*
X102000000Y-126200000D03*
X114200000Y-104900000D03*
D51*
%TO.N,+VDC*%
X143000000Y-118000000D03*
X132000000Y-118000000D03*
X140000000Y-123000000D03*
D49*
X129000000Y-119300000D03*
D51*
X137000000Y-118000000D03*
D49*
X128950000Y-121900000D03*
D51*
X139000000Y-124000000D03*
X144000000Y-123000000D03*
X144000000Y-119000000D03*
X143000000Y-119000000D03*
X138000000Y-123000000D03*
X141000000Y-119000000D03*
X138000000Y-118000000D03*
X144000000Y-124000000D03*
X144000000Y-118000000D03*
X142000000Y-124000000D03*
X142000000Y-119000000D03*
X138000000Y-122000000D03*
X141000000Y-124000000D03*
X139000000Y-122000000D03*
D49*
X129000000Y-123400000D03*
D51*
X140000000Y-122000000D03*
X140000000Y-124000000D03*
X138000000Y-124000000D03*
X140490000Y-117490000D03*
X140000000Y-121000000D03*
X140000000Y-120000000D03*
D49*
X129000000Y-120500000D03*
D51*
X142000000Y-123000000D03*
X142000000Y-118000000D03*
X131000000Y-118000000D03*
X143000000Y-123000000D03*
X130000000Y-118000000D03*
X136000000Y-118000000D03*
X139000000Y-121000000D03*
X143000000Y-124000000D03*
X141000000Y-123000000D03*
X138990000Y-118990000D03*
%TO.N,/amp/hb_rawmid*%
X139000000Y-130000000D03*
X144000000Y-135000000D03*
X141000000Y-130000000D03*
X143000000Y-128000000D03*
X140000000Y-135000000D03*
D52*
X144000000Y-136000000D03*
D51*
X141000000Y-134000000D03*
X143000000Y-129000000D03*
X144000000Y-134000000D03*
X142000000Y-135000000D03*
X140000000Y-130000000D03*
D49*
X128300000Y-132400000D03*
X128300000Y-131350000D03*
D51*
X141000000Y-128000000D03*
X140000000Y-136000000D03*
X141000000Y-135000000D03*
X140000000Y-129000000D03*
X144000000Y-130000000D03*
X140000000Y-134000000D03*
X142000000Y-128000000D03*
X141000000Y-129000000D03*
X144000000Y-128000000D03*
X142000000Y-136000000D03*
X143000000Y-135000000D03*
X141000000Y-136000000D03*
X140000000Y-128000000D03*
X143000000Y-130000000D03*
X144000000Y-129000000D03*
X143000000Y-136000000D03*
D49*
X128250000Y-133450000D03*
D51*
X142000000Y-130000000D03*
X142000000Y-129000000D03*
D49*
%TO.N,/amp/vdc_midpoint*%
X155700000Y-130900000D03*
X154575000Y-132375000D03*
X155450000Y-133250000D03*
X154550000Y-130900000D03*
X155700000Y-132050000D03*
%TD*%
D53*
%TO.N,+3V3*%
X102000000Y-129322500D02*
X105567360Y-129322500D01*
D54*
X104092764Y-111742764D02*
X105435528Y-110400000D01*
X107550000Y-118950000D02*
X106900000Y-118300000D01*
X107475711Y-127850171D02*
X107475711Y-123282244D01*
X101986000Y-113849528D02*
X104092764Y-111742764D01*
X106988467Y-122795000D02*
X105750000Y-122795000D01*
X106900000Y-118300000D02*
X103400000Y-118300000D01*
X103400000Y-118300000D02*
X103400000Y-115794000D01*
X107475711Y-123282244D02*
X106988467Y-122795000D01*
X101986000Y-114380000D02*
X101986000Y-113849528D01*
X105435528Y-110400000D02*
X108600000Y-110400000D01*
X102000000Y-132460000D02*
X102000000Y-129322500D01*
X108600000Y-110400000D02*
X109390120Y-109609880D01*
X105750000Y-129145000D02*
X106180882Y-129145000D01*
X106988467Y-122795000D02*
X107550000Y-122233467D01*
X106180882Y-129145000D02*
X107475711Y-127850171D01*
X103400000Y-115794000D02*
X101986000Y-114380000D01*
X107550000Y-122233467D02*
X107550000Y-118950000D01*
%TO.N,GND*%
X114778000Y-104322000D02*
X114200000Y-104900000D01*
X102461000Y-124065000D02*
X101986000Y-124540000D01*
X114778000Y-103000000D02*
X114778000Y-104322000D01*
X105750000Y-124065000D02*
X102461000Y-124065000D01*
X103252500Y-127597500D02*
X103300000Y-127550000D01*
X106542764Y-114257236D02*
X105400000Y-115400000D01*
X114778000Y-102178000D02*
X114050000Y-101450000D01*
X102000000Y-127597500D02*
X102000000Y-126200000D01*
X102000000Y-127597500D02*
X103252500Y-127597500D01*
X114778000Y-103000000D02*
X114778000Y-102178000D01*
X102000000Y-126200000D02*
X102000000Y-124554000D01*
X106607236Y-114242764D02*
X107650000Y-113200000D01*
%TO.N,+BATT*%
X109750961Y-119171409D02*
X112665134Y-116257236D01*
X110826780Y-127320649D02*
X110826780Y-123499039D01*
X114567500Y-126605000D02*
X114950000Y-126987500D01*
X113850000Y-144850000D02*
X109075480Y-140075480D01*
X109075480Y-138462020D02*
X110000000Y-137537500D01*
X110826780Y-123499039D02*
X109750961Y-122423220D01*
X111000480Y-132478480D02*
X114272000Y-135750000D01*
X121200000Y-144900000D02*
X113900000Y-144900000D01*
X109750961Y-122423220D02*
X109750961Y-119171409D01*
X111889829Y-126605000D02*
X111000480Y-127494349D01*
X112484500Y-137537500D02*
X114272000Y-135750000D01*
X112250000Y-126605000D02*
X111889829Y-126605000D01*
X109075480Y-140075480D02*
X109075480Y-138462020D01*
X111000480Y-127494349D02*
X110826780Y-127320649D01*
X112665134Y-116257236D02*
X113742764Y-116257236D01*
X111000480Y-127494349D02*
X111000480Y-132478480D01*
X110000000Y-137537500D02*
X112484500Y-137537500D01*
X112250000Y-126605000D02*
X114567500Y-126605000D01*
%TO.N,-BATT*%
X124100000Y-139400000D02*
X125450000Y-140750000D01*
X138632140Y-146217860D02*
X134267860Y-146217860D01*
X112250000Y-129145000D02*
X114517500Y-129145000D01*
X114950000Y-132872000D02*
X114950000Y-128712500D01*
X114517500Y-129145000D02*
X114950000Y-128712500D01*
X125450000Y-140750000D02*
X126450000Y-140750000D01*
X126450000Y-140750000D02*
X130550000Y-144850000D01*
X117751000Y-139400000D02*
X124100000Y-139400000D01*
X117828000Y-135750000D02*
X114950000Y-132872000D01*
D55*
%TO.N,+VDC*%
X176250000Y-115637500D02*
X169362500Y-115637500D01*
X182700000Y-115425000D02*
X176462500Y-115425000D01*
D56*
X168900000Y-113125000D02*
X164462500Y-108687500D01*
D55*
X168900000Y-116100000D02*
X168900000Y-113125000D01*
D57*
X144550000Y-113430000D02*
X144550000Y-107450000D01*
X159900000Y-113250000D02*
X164462500Y-108687500D01*
X149700000Y-113250000D02*
X159900000Y-113250000D01*
D55*
X176462500Y-115425000D02*
X176250000Y-115637500D01*
D56*
X179950000Y-113300000D02*
X171700000Y-113300000D01*
D55*
X171700000Y-113300000D02*
X168900000Y-116100000D01*
X182075000Y-115425000D02*
X179950000Y-113300000D01*
D58*
%TO.N,hb_a_in*%
X105750000Y-120255000D02*
X102955000Y-120255000D01*
X102955000Y-120255000D02*
X102350000Y-119650000D01*
%TO.N,hb_b_in*%
X102887670Y-121098330D02*
X101986000Y-122000000D01*
X105279660Y-121098330D02*
X102887670Y-121098330D01*
X105706330Y-121525000D02*
X105279660Y-121098330D01*
%TO.N,hb_dis*%
X106950000Y-124178670D02*
X106950000Y-123500000D01*
X106950000Y-123500000D02*
X101250000Y-123500000D01*
X101250000Y-123500000D02*
X100650000Y-122900000D01*
X100650000Y-122900000D02*
X100650000Y-118256000D01*
X100650000Y-118256000D02*
X101986000Y-116920000D01*
X105793670Y-125335000D02*
X106950000Y-124178670D01*
D54*
%TO.N,/amp/vdda*%
X122583520Y-115561520D02*
X126110750Y-115561520D01*
X127700000Y-113972270D02*
X127700000Y-113700000D01*
X127700000Y-113700000D02*
X123057236Y-109057236D01*
X115000000Y-120637500D02*
X115000000Y-120222000D01*
X121122000Y-114100000D02*
X122583520Y-115561520D01*
X114617500Y-120255000D02*
X115000000Y-120637500D01*
X115000000Y-120222000D02*
X121122000Y-114100000D01*
X125000000Y-105400000D02*
X123057236Y-107342764D01*
X112250000Y-120255000D02*
X114617500Y-120255000D01*
X125000000Y-103000000D02*
X125000000Y-105400000D01*
X126110750Y-115561520D02*
X127700000Y-113972270D01*
X123057236Y-109057236D02*
X123057236Y-107342764D01*
%TO.N,/amp/hb_rawmid*%
X111536275Y-122795000D02*
X110750480Y-122009205D01*
X110750480Y-119770795D02*
X112217481Y-118303794D01*
X110750480Y-122009205D02*
X110750480Y-119770795D01*
X115000000Y-122400000D02*
X116950000Y-124350000D01*
X115000000Y-122362500D02*
X114567500Y-122795000D01*
X113763106Y-118303794D02*
X119528400Y-112538500D01*
X112250000Y-122795000D02*
X111536275Y-122795000D01*
X112217481Y-118303794D02*
X113763106Y-118303794D01*
X114567500Y-122795000D02*
X112250000Y-122795000D01*
D57*
X125770000Y-123540000D02*
X125770000Y-125092500D01*
D54*
X124960000Y-124350000D02*
X125770000Y-123540000D01*
D57*
X125770000Y-125092500D02*
X132856500Y-132179000D01*
D54*
X123850000Y-112900000D02*
X123850000Y-113272000D01*
X123488500Y-112538500D02*
X123850000Y-112900000D01*
X119528400Y-112538500D02*
X123488500Y-112538500D01*
X116950000Y-124350000D02*
X124960000Y-124350000D01*
X123850000Y-113272000D02*
X124678000Y-114100000D01*
D55*
%TO.N,-VDC*%
X141146612Y-143703388D02*
X146203388Y-143703388D01*
D59*
X171250000Y-123150000D02*
X171942764Y-122457236D01*
D57*
X147962500Y-139312500D02*
X147962500Y-132150000D01*
D60*
X164737500Y-139312500D02*
X168900000Y-135150000D01*
X168900000Y-135150000D02*
X174027306Y-130022694D01*
D61*
X147962500Y-142427589D02*
X147962500Y-139312500D01*
D57*
X125770000Y-134640000D02*
X125770000Y-136842500D01*
D55*
X146800000Y-143590089D02*
X147962500Y-142427589D01*
D60*
X174027306Y-130022694D02*
X174027306Y-124541778D01*
D59*
X164887500Y-123150000D02*
X171250000Y-123150000D01*
D57*
X125770000Y-136842500D02*
X128240000Y-139312500D01*
X128240000Y-139312500D02*
X147962500Y-139312500D01*
D59*
X147962500Y-139312500D02*
X157062500Y-139312500D01*
X157062500Y-139312500D02*
X164737500Y-139312500D01*
D60*
X174027306Y-124541778D02*
X171942764Y-122457236D01*
D54*
%TO.N,/amp/vdda_bootstrap_inrush_limit*%
X116657236Y-113742764D02*
X120542764Y-109857236D01*
%TO.N,/amp/3v3led_drop*%
X110700000Y-108250000D02*
X111222000Y-107728000D01*
X111222000Y-107728000D02*
X111222000Y-103000000D01*
D58*
%TO.N,/amp/voa*%
X112250000Y-121525000D02*
X119499500Y-121525000D01*
D53*
%TO.N,/amp/lo_gate*%
X119880000Y-130778000D02*
X121098000Y-129560000D01*
D62*
X125770000Y-129020000D02*
X123750000Y-127000000D01*
D53*
X121098000Y-129560000D02*
X125770000Y-129560000D01*
D56*
%TO.N,/amp/hb_filtmid*%
X159734205Y-131634205D02*
X164165795Y-131634205D01*
X159612500Y-123150000D02*
X159612500Y-131512500D01*
D57*
X164165795Y-131634205D02*
X166550000Y-129250000D01*
D55*
X171115795Y-126415795D02*
X169384205Y-126415795D01*
D57*
X166550000Y-129250000D02*
X169200000Y-126600000D01*
D55*
X169384205Y-126415795D02*
X169200000Y-126600000D01*
D54*
%TO.N,/amp/hi_gate*%
X129340000Y-113392238D02*
X129340000Y-107460000D01*
X125770000Y-116962238D02*
X129340000Y-113392238D01*
X125770000Y-118460000D02*
X125770000Y-116962238D01*
D53*
X125770000Y-118460000D02*
X120069500Y-118460000D01*
D56*
%TO.N,/amp/vdc_midpoint*%
X155700000Y-130900000D02*
X154550000Y-130900000D01*
X154550000Y-130900000D02*
X154487500Y-130900000D01*
X163550000Y-102500000D02*
X164462500Y-103412500D01*
X164462500Y-103412500D02*
X171412500Y-103412500D01*
X154575000Y-132375000D02*
X155450000Y-133250000D01*
X155700000Y-102500000D02*
X163550000Y-102500000D01*
X154550000Y-103650000D02*
X155700000Y-102500000D01*
X154487500Y-130900000D02*
X153237500Y-132150000D01*
X154550000Y-107450000D02*
X154550000Y-103650000D01*
X171412500Y-103412500D02*
X173650000Y-105650000D01*
X154350000Y-132150000D02*
X154575000Y-132375000D01*
X153237500Y-132150000D02*
X154350000Y-132150000D01*
%TO.N,/amp/hbout*%
X178500000Y-133600000D02*
X184200000Y-127900000D01*
X178850000Y-126350000D02*
X178850000Y-124550000D01*
X178300000Y-133600000D02*
X178500000Y-133600000D01*
X178850000Y-124550000D02*
X182700000Y-120700000D01*
X180400000Y-127900000D02*
X178850000Y-126350000D01*
X184200000Y-127900000D02*
X180400000Y-127900000D01*
D58*
%TO.N,/amp/vob*%
X112250000Y-127875000D02*
X119227000Y-127875000D01*
D54*
%TO.N,/amp/dcled_drop*%
X174457236Y-119155264D02*
X176250000Y-117362500D01*
X174457236Y-119942764D02*
X174457236Y-119155264D01*
%TO.N,/amp/batled-drop*%
X114195000Y-139400000D02*
X110137500Y-139400000D01*
%TD*%
%TA.AperFunction,Conductor*%
%TO.N,+VDC*%
G36*
X145032707Y-116048291D02*
G01*
X145050000Y-116111999D01*
X145050000Y-125143813D01*
X145049393Y-125156163D01*
X145032002Y-125332737D01*
X145027185Y-125356957D01*
X144977482Y-125520809D01*
X144968029Y-125543629D01*
X144887319Y-125694628D01*
X144873601Y-125715158D01*
X144764974Y-125847521D01*
X144747521Y-125864974D01*
X144615158Y-125973601D01*
X144594631Y-125987317D01*
X144576398Y-125997063D01*
X144443629Y-126068029D01*
X144420810Y-126077482D01*
X144256957Y-126127185D01*
X144232740Y-126132001D01*
X144056163Y-126149393D01*
X144043813Y-126150000D01*
X129470401Y-126150000D01*
X129458051Y-126149393D01*
X129281473Y-126132001D01*
X129257256Y-126127185D01*
X129093403Y-126077482D01*
X129070584Y-126068029D01*
X128979025Y-126019090D01*
X128949326Y-125997063D01*
X127415405Y-124463142D01*
X127381379Y-124400830D01*
X127378500Y-124374047D01*
X127378500Y-123579015D01*
X127378630Y-123573299D01*
X127382394Y-123490399D01*
X127382624Y-123485345D01*
X127372098Y-123394369D01*
X127371651Y-123389774D01*
X127363997Y-123292530D01*
X127363609Y-123287597D01*
X127357920Y-123263903D01*
X127355274Y-123248970D01*
X127354333Y-123240838D01*
X127353752Y-123235814D01*
X127337451Y-123178206D01*
X127336174Y-123173321D01*
X127331996Y-123155917D01*
X127304505Y-123041409D01*
X127302613Y-123036842D01*
X127302611Y-123036835D01*
X127286315Y-122997494D01*
X127287207Y-122997125D01*
X127285480Y-122994543D01*
X127285357Y-122994109D01*
X127282534Y-122988056D01*
X127280327Y-122983039D01*
X127209511Y-122812072D01*
X127209509Y-122812068D01*
X127207616Y-122807498D01*
X127075328Y-122591624D01*
X126910898Y-122399102D01*
X126718376Y-122234672D01*
X126502502Y-122102384D01*
X126497932Y-122100491D01*
X126497928Y-122100489D01*
X126273164Y-122007389D01*
X126273162Y-122007388D01*
X126268591Y-122005495D01*
X126183968Y-121985179D01*
X126027216Y-121947546D01*
X126027210Y-121947545D01*
X126022403Y-121946391D01*
X125770000Y-121926526D01*
X125517597Y-121946391D01*
X125512790Y-121947545D01*
X125512784Y-121947546D01*
X125356032Y-121985179D01*
X125271409Y-122005495D01*
X125090449Y-122080451D01*
X125019860Y-122088040D01*
X124953137Y-122053137D01*
X123800000Y-120900000D01*
X123772592Y-120900000D01*
X123722500Y-120859632D01*
X123700000Y-120787773D01*
X123700000Y-120434918D01*
X123701551Y-120415208D01*
X123720126Y-120297928D01*
X123732308Y-120260435D01*
X123781658Y-120163581D01*
X123804830Y-120131689D01*
X123881689Y-120054830D01*
X123913581Y-120031658D01*
X124010437Y-119982307D01*
X124047927Y-119970126D01*
X124105029Y-119961082D01*
X124165208Y-119951551D01*
X124184918Y-119950000D01*
X124452489Y-119950000D01*
X124500707Y-119959591D01*
X124611150Y-120005338D01*
X124619338Y-120006416D01*
X124726021Y-120020461D01*
X124730115Y-120021000D01*
X125769873Y-120021000D01*
X126809884Y-120020999D01*
X126813969Y-120020461D01*
X126813973Y-120020461D01*
X126920663Y-120006416D01*
X126920665Y-120006416D01*
X126928850Y-120005338D01*
X127039293Y-119959591D01*
X127087512Y-119950000D01*
X127550000Y-119950000D01*
X131500000Y-116000000D01*
X144981397Y-116000000D01*
X145032707Y-116048291D01*
G37*
%TD.AperFunction*%
%TD*%
%TA.AperFunction,Conductor*%
%TO.N,/amp/hb_rawmid*%
G36*
X141006163Y-127500607D02*
G01*
X141182740Y-127517999D01*
X141206957Y-127522815D01*
X141370809Y-127572518D01*
X141393629Y-127581971D01*
X141544631Y-127662683D01*
X141565158Y-127676399D01*
X141697521Y-127785026D01*
X141714974Y-127802479D01*
X141823601Y-127934842D01*
X141837319Y-127955372D01*
X141918029Y-128106371D01*
X141927482Y-128129190D01*
X141977185Y-128293043D01*
X141982002Y-128317263D01*
X141999393Y-128493837D01*
X142000000Y-128506187D01*
X142000000Y-136493813D01*
X141999393Y-136506163D01*
X141982002Y-136682737D01*
X141977185Y-136706957D01*
X141927482Y-136870809D01*
X141918029Y-136893629D01*
X141837319Y-137044628D01*
X141823601Y-137065158D01*
X141714974Y-137197521D01*
X141697521Y-137214974D01*
X141565158Y-137323601D01*
X141544631Y-137337317D01*
X141452417Y-137386607D01*
X141393629Y-137418029D01*
X141370810Y-137427482D01*
X141206957Y-137477185D01*
X141182740Y-137482001D01*
X141006163Y-137499393D01*
X140993813Y-137500000D01*
X129420401Y-137500000D01*
X129408051Y-137499393D01*
X129231473Y-137482001D01*
X129207256Y-137477185D01*
X129043403Y-137427482D01*
X129020584Y-137418029D01*
X128869588Y-137337320D01*
X128849050Y-137323597D01*
X128711886Y-137211029D01*
X128702725Y-137202725D01*
X127415405Y-135915405D01*
X127381379Y-135853093D01*
X127378500Y-135826310D01*
X127378500Y-134679015D01*
X127378630Y-134673299D01*
X127382394Y-134590399D01*
X127382624Y-134585345D01*
X127382043Y-134580321D01*
X127372098Y-134494369D01*
X127371651Y-134489774D01*
X127363997Y-134392530D01*
X127363609Y-134387597D01*
X127357920Y-134363903D01*
X127355274Y-134348970D01*
X127354333Y-134340838D01*
X127353752Y-134335814D01*
X127337451Y-134278206D01*
X127336174Y-134273321D01*
X127331996Y-134255917D01*
X127304505Y-134141409D01*
X127302613Y-134136842D01*
X127302611Y-134136835D01*
X127286315Y-134097494D01*
X127287207Y-134097125D01*
X127285480Y-134094543D01*
X127285357Y-134094109D01*
X127282534Y-134088056D01*
X127280327Y-134083039D01*
X127209511Y-133912072D01*
X127209509Y-133912068D01*
X127207616Y-133907498D01*
X127075328Y-133691624D01*
X126910898Y-133499102D01*
X126718376Y-133334672D01*
X126502502Y-133202384D01*
X126497932Y-133200491D01*
X126497928Y-133200489D01*
X126273164Y-133107389D01*
X126273162Y-133107388D01*
X126268591Y-133105495D01*
X126183968Y-133085179D01*
X126027216Y-133047546D01*
X126027210Y-133047545D01*
X126022403Y-133046391D01*
X125770000Y-133026526D01*
X125517597Y-133046391D01*
X125512790Y-133047545D01*
X125512784Y-133047546D01*
X125356032Y-133085179D01*
X125271409Y-133105495D01*
X125266838Y-133107388D01*
X125266836Y-133107389D01*
X125042072Y-133200489D01*
X125042068Y-133200491D01*
X125037498Y-133202384D01*
X125033279Y-133204970D01*
X125033272Y-133204973D01*
X124914405Y-133277814D01*
X124845872Y-133296352D01*
X124778195Y-133274895D01*
X124759476Y-133259476D01*
X123682618Y-132182618D01*
X123671758Y-132170236D01*
X123590958Y-132064936D01*
X123574514Y-132036453D01*
X123526914Y-131921536D01*
X123518401Y-131889765D01*
X123502715Y-131770625D01*
X123504058Y-131729597D01*
X123514141Y-131678907D01*
X123532955Y-131633488D01*
X123559300Y-131594061D01*
X123594061Y-131559300D01*
X123613671Y-131546196D01*
X123633490Y-131532954D01*
X123678909Y-131514141D01*
X123713927Y-131507175D01*
X123737830Y-131502421D01*
X123762410Y-131500000D01*
X125000000Y-131500000D01*
X125342095Y-131157905D01*
X125404407Y-131123879D01*
X125431190Y-131121000D01*
X126797724Y-131120999D01*
X126809884Y-131120999D01*
X126813969Y-131120461D01*
X126813973Y-131120461D01*
X126920663Y-131106416D01*
X126920665Y-131106416D01*
X126928850Y-131105338D01*
X127002863Y-131074681D01*
X127069248Y-131047184D01*
X127069250Y-131047183D01*
X127076876Y-131044024D01*
X127203987Y-130946487D01*
X127209013Y-130939937D01*
X127209016Y-130939934D01*
X127252756Y-130882931D01*
X127301524Y-130819375D01*
X127362838Y-130671350D01*
X127363916Y-130663162D01*
X127377962Y-130556472D01*
X127377962Y-130556471D01*
X127378500Y-130552385D01*
X127378499Y-129173690D01*
X127398501Y-129105570D01*
X127415404Y-129084596D01*
X128702725Y-127797275D01*
X128711886Y-127788971D01*
X128849050Y-127676403D01*
X128869588Y-127662680D01*
X129020584Y-127581971D01*
X129043404Y-127572518D01*
X129207256Y-127522815D01*
X129231473Y-127517999D01*
X129408051Y-127500607D01*
X129420401Y-127500000D01*
X140993813Y-127500000D01*
X141006163Y-127500607D01*
G37*
%TD.AperFunction*%
%TD*%
%TA.AperFunction,Conductor*%
%TO.N,+VDC*%
G36*
X148521269Y-100609185D02*
G01*
X148598773Y-100617301D01*
X148627597Y-100620319D01*
X148653273Y-100625756D01*
X148826339Y-100681769D01*
X148850330Y-100692407D01*
X149008042Y-100783059D01*
X149029308Y-100798435D01*
X149164821Y-100919793D01*
X149182437Y-100939238D01*
X149252397Y-101034834D01*
X149289866Y-101086034D01*
X149303076Y-101108713D01*
X149377766Y-101274585D01*
X149385990Y-101299507D01*
X149424696Y-101477240D01*
X149427580Y-101503326D01*
X149428626Y-101685231D01*
X149426043Y-101711349D01*
X149388049Y-101896006D01*
X149384733Y-101908720D01*
X148975758Y-103197610D01*
X148936092Y-103256489D01*
X148870887Y-103284577D01*
X148855661Y-103285500D01*
X148582143Y-103285500D01*
X148565697Y-103284422D01*
X148542188Y-103281327D01*
X148534000Y-103280249D01*
X148494115Y-103285500D01*
X148375150Y-103301162D01*
X148227125Y-103362476D01*
X148163569Y-103411245D01*
X148106566Y-103454984D01*
X148106563Y-103454987D01*
X148100013Y-103460013D01*
X148002476Y-103587124D01*
X147999317Y-103594750D01*
X147999316Y-103594752D01*
X147980282Y-103640706D01*
X147941162Y-103735150D01*
X147920249Y-103894000D01*
X147921327Y-103902188D01*
X147924422Y-103925697D01*
X147925500Y-103942143D01*
X147925500Y-106488006D01*
X147919599Y-106526111D01*
X144850000Y-116200000D01*
X129900117Y-116054855D01*
X129611886Y-116052057D01*
X129599146Y-116051287D01*
X129417141Y-116030992D01*
X129392219Y-116025618D01*
X129218024Y-115969100D01*
X129206099Y-115964551D01*
X128573814Y-115685918D01*
X128519543Y-115640144D01*
X128498635Y-115572296D01*
X128517728Y-115503915D01*
X128535529Y-115481522D01*
X129924832Y-114092219D01*
X129939865Y-114079378D01*
X129945913Y-114074984D01*
X129945914Y-114074983D01*
X129951253Y-114071104D01*
X129997016Y-114020279D01*
X130001557Y-114015494D01*
X130016072Y-114000979D01*
X130028997Y-113985018D01*
X130033269Y-113980017D01*
X130074619Y-113934093D01*
X130074623Y-113934088D01*
X130079040Y-113929182D01*
X130086073Y-113917001D01*
X130097267Y-113900712D01*
X130106129Y-113889769D01*
X130137189Y-113828810D01*
X130140336Y-113823015D01*
X130171223Y-113769517D01*
X130171223Y-113769516D01*
X130174527Y-113763794D01*
X130178875Y-113750411D01*
X130186441Y-113732145D01*
X130189832Y-113725490D01*
X130192829Y-113719608D01*
X130210529Y-113653553D01*
X130212402Y-113647229D01*
X130231500Y-113588450D01*
X130233542Y-113582166D01*
X130235012Y-113568177D01*
X130238617Y-113548724D01*
X130240547Y-113541523D01*
X130242257Y-113535142D01*
X130245836Y-113466853D01*
X130246353Y-113460278D01*
X130248156Y-113443120D01*
X130248500Y-113439848D01*
X130248500Y-113419313D01*
X130248673Y-113412719D01*
X130251907Y-113351021D01*
X130251907Y-113351016D01*
X130252252Y-113344429D01*
X130250051Y-113330531D01*
X130248500Y-113310822D01*
X130248500Y-108492484D01*
X130268502Y-108424363D01*
X130313927Y-108381999D01*
X130607503Y-108221047D01*
X130607510Y-108221043D01*
X130609558Y-108219920D01*
X130620509Y-108212807D01*
X130734982Y-108100706D01*
X130816541Y-107962797D01*
X130859628Y-107808478D01*
X130860500Y-107796162D01*
X130860500Y-107123840D01*
X130859527Y-107110818D01*
X130816261Y-106956549D01*
X130812050Y-106949447D01*
X130738754Y-106825835D01*
X130738752Y-106825833D01*
X130734543Y-106818734D01*
X130619939Y-106706766D01*
X130614595Y-106703324D01*
X130611428Y-106701284D01*
X130611420Y-106701279D01*
X130609558Y-106700080D01*
X128683824Y-105644305D01*
X128579596Y-105603266D01*
X128571564Y-105602308D01*
X128571563Y-105602308D01*
X128467741Y-105589928D01*
X128420502Y-105584295D01*
X128412327Y-105585473D01*
X128270092Y-105605969D01*
X128270090Y-105605970D01*
X128261919Y-105607147D01*
X128114654Y-105670265D01*
X128108163Y-105675373D01*
X127995236Y-105764237D01*
X127995234Y-105764239D01*
X127988743Y-105769347D01*
X127983796Y-105775960D01*
X127983794Y-105775962D01*
X127940641Y-105833647D01*
X127892767Y-105897641D01*
X127833266Y-106046404D01*
X127819500Y-106156141D01*
X127819499Y-108763855D01*
X127833621Y-108874982D01*
X127836640Y-108882479D01*
X127836641Y-108882483D01*
X127887759Y-109009426D01*
X127893469Y-109023606D01*
X127989744Y-109151676D01*
X127996246Y-109156768D01*
X127996247Y-109156769D01*
X128051626Y-109200139D01*
X128115885Y-109250464D01*
X128263297Y-109313238D01*
X128323182Y-109321725D01*
X128387821Y-109351088D01*
X128426324Y-109410736D01*
X128431500Y-109446478D01*
X128431500Y-112842497D01*
X128411498Y-112910618D01*
X128357842Y-112957111D01*
X128287568Y-112967215D01*
X128222988Y-112937721D01*
X128216405Y-112931592D01*
X126486905Y-111202092D01*
X126452879Y-111139780D01*
X126450000Y-111112997D01*
X126450000Y-103582145D01*
X126467547Y-103518006D01*
X126472334Y-103509912D01*
X126472336Y-103509907D01*
X126476541Y-103502797D01*
X126519628Y-103348478D01*
X126520500Y-103336162D01*
X126520500Y-102663840D01*
X126519527Y-102650818D01*
X126476261Y-102496549D01*
X126472047Y-102489442D01*
X126467621Y-102481977D01*
X126450000Y-102417713D01*
X126450000Y-101606187D01*
X126450607Y-101593837D01*
X126467998Y-101417263D01*
X126472815Y-101393043D01*
X126522518Y-101229190D01*
X126531971Y-101206371D01*
X126584170Y-101108713D01*
X126612683Y-101055369D01*
X126626399Y-101034842D01*
X126735026Y-100902479D01*
X126752479Y-100885026D01*
X126884842Y-100776399D01*
X126905369Y-100762683D01*
X127036846Y-100692407D01*
X127056371Y-100681971D01*
X127079191Y-100672518D01*
X127243043Y-100622815D01*
X127267260Y-100617999D01*
X127357537Y-100609107D01*
X127369886Y-100608500D01*
X148508150Y-100608500D01*
X148521269Y-100609185D01*
G37*
%TD.AperFunction*%
%TD*%
%TA.AperFunction,Conductor*%
%TO.N,/amp/hb_rawmid*%
G36*
X164152979Y-111375950D02*
G01*
X164198042Y-111404911D01*
X165638281Y-112845150D01*
X165672307Y-112907462D01*
X165674972Y-112941588D01*
X165607544Y-114096576D01*
X165580612Y-114557912D01*
X165573481Y-114680053D01*
X165565327Y-114717861D01*
X165463403Y-114983382D01*
X165365511Y-115348721D01*
X165364995Y-115351982D01*
X165324895Y-115605162D01*
X165306343Y-115722291D01*
X165286548Y-116100000D01*
X165306343Y-116477709D01*
X165365511Y-116851279D01*
X165414532Y-117034229D01*
X165426930Y-117080499D01*
X165431009Y-117120453D01*
X165279080Y-119722843D01*
X165255142Y-119789683D01*
X165198867Y-119832969D01*
X165153294Y-119841500D01*
X164082118Y-119841501D01*
X164075750Y-119841501D01*
X164041862Y-119843810D01*
X164038346Y-119844050D01*
X164038345Y-119844050D01*
X164032800Y-119844428D01*
X163851813Y-119889553D01*
X163845706Y-119892584D01*
X163845702Y-119892586D01*
X163701472Y-119964183D01*
X163684738Y-119972490D01*
X163539369Y-120089369D01*
X163422490Y-120234738D01*
X163419457Y-120240848D01*
X163342586Y-120395702D01*
X163342584Y-120395706D01*
X163339553Y-120401813D01*
X163294428Y-120582800D01*
X163294050Y-120588346D01*
X163294050Y-120588349D01*
X163291647Y-120623599D01*
X163291500Y-120625749D01*
X163291500Y-122443531D01*
X163279926Y-122496281D01*
X163259949Y-122539615D01*
X163259947Y-122539622D01*
X163257941Y-122543972D01*
X163256617Y-122548574D01*
X163207982Y-122717628D01*
X163185022Y-122797434D01*
X163151282Y-123059009D01*
X163157495Y-123322677D01*
X163203520Y-123582372D01*
X163205057Y-123586899D01*
X163205057Y-123586900D01*
X163284814Y-123821857D01*
X163291501Y-123862358D01*
X163291501Y-125674250D01*
X163294428Y-125717200D01*
X163339553Y-125898187D01*
X163342584Y-125904294D01*
X163342586Y-125904298D01*
X163387990Y-125995763D01*
X163422490Y-126065262D01*
X163426763Y-126070577D01*
X163426764Y-126070578D01*
X163471709Y-126126479D01*
X163539369Y-126210631D01*
X163684738Y-126327510D01*
X163690848Y-126330543D01*
X163845702Y-126407414D01*
X163845706Y-126407416D01*
X163851813Y-126410447D01*
X164032800Y-126455572D01*
X164054058Y-126457021D01*
X164073602Y-126458354D01*
X164073613Y-126458354D01*
X164075749Y-126458500D01*
X164752279Y-126458500D01*
X164820400Y-126478502D01*
X164866893Y-126532158D01*
X164878065Y-126591843D01*
X164810723Y-127745367D01*
X164753429Y-128726748D01*
X164729492Y-128793586D01*
X164716739Y-128808498D01*
X164036437Y-129488800D01*
X163974125Y-129522826D01*
X163947342Y-129525705D01*
X161847000Y-129525705D01*
X161778879Y-129505703D01*
X161732386Y-129452047D01*
X161721000Y-129399705D01*
X161721000Y-123077729D01*
X161720854Y-123075582D01*
X161706665Y-122867452D01*
X161706664Y-122867446D01*
X161706373Y-122863175D01*
X161701836Y-122841264D01*
X161648943Y-122585855D01*
X161648074Y-122581658D01*
X161552107Y-122310657D01*
X161420250Y-122055188D01*
X161406988Y-122036317D01*
X161337595Y-121937582D01*
X161254941Y-121819977D01*
X161242199Y-121806265D01*
X161210480Y-121742748D01*
X161208499Y-121720494D01*
X161208499Y-120625750D01*
X161205572Y-120582800D01*
X161160447Y-120401813D01*
X161157416Y-120395706D01*
X161157414Y-120395702D01*
X161080543Y-120240848D01*
X161077510Y-120234738D01*
X160960631Y-120089369D01*
X160815262Y-119972490D01*
X160798528Y-119964183D01*
X160654298Y-119892586D01*
X160654294Y-119892584D01*
X160648187Y-119889553D01*
X160467200Y-119844428D01*
X160445942Y-119842979D01*
X160426398Y-119841646D01*
X160426387Y-119841646D01*
X160424251Y-119841500D01*
X159612878Y-119841500D01*
X158800750Y-119841501D01*
X158766862Y-119843810D01*
X158763346Y-119844050D01*
X158763345Y-119844050D01*
X158757800Y-119844428D01*
X158576813Y-119889553D01*
X158570706Y-119892584D01*
X158570702Y-119892586D01*
X158426472Y-119964183D01*
X158409738Y-119972490D01*
X158264369Y-120089369D01*
X158147490Y-120234738D01*
X158144457Y-120240848D01*
X158067586Y-120395702D01*
X158067584Y-120395706D01*
X158064553Y-120401813D01*
X158019428Y-120582800D01*
X158019050Y-120588346D01*
X158019050Y-120588349D01*
X158016647Y-120623599D01*
X158016500Y-120625749D01*
X158016500Y-121718753D01*
X157996498Y-121786874D01*
X157987589Y-121799063D01*
X157987028Y-121799742D01*
X157984077Y-121802851D01*
X157981572Y-121806337D01*
X157827415Y-122020869D01*
X157816314Y-122036317D01*
X157681788Y-122290392D01*
X157582989Y-122560373D01*
X157521745Y-122841264D01*
X157504000Y-123066739D01*
X157504000Y-129420622D01*
X157483998Y-129488743D01*
X157430342Y-129535236D01*
X157360068Y-129545340D01*
X157295488Y-129515846D01*
X157279665Y-129499402D01*
X157255687Y-129469472D01*
X157047149Y-129271577D01*
X156813683Y-129103814D01*
X156559608Y-128969288D01*
X156341722Y-128889553D01*
X156293658Y-128871964D01*
X156293656Y-128871963D01*
X156289627Y-128870489D01*
X156008736Y-128809245D01*
X155977685Y-128806801D01*
X155785718Y-128791693D01*
X155785709Y-128791693D01*
X155783261Y-128791500D01*
X154610769Y-128791500D01*
X154596943Y-128790739D01*
X154580260Y-128788897D01*
X154580257Y-128788897D01*
X154576001Y-128788427D01*
X154571722Y-128788539D01*
X154571720Y-128788539D01*
X154460296Y-128791457D01*
X154456998Y-128791500D01*
X154415229Y-128791500D01*
X154413092Y-128791646D01*
X154413082Y-128791646D01*
X154402116Y-128792394D01*
X154390774Y-128793167D01*
X154385534Y-128793414D01*
X154288609Y-128795953D01*
X154276486Y-128797938D01*
X154250744Y-128802153D01*
X154238954Y-128803517D01*
X154204952Y-128805835D01*
X154204946Y-128805836D01*
X154200675Y-128806127D01*
X154196480Y-128806996D01*
X154196478Y-128806996D01*
X154105750Y-128825785D01*
X154100561Y-128826747D01*
X154020579Y-128839844D01*
X154000219Y-128841500D01*
X152700564Y-128841501D01*
X152425750Y-128841501D01*
X152391862Y-128843810D01*
X152388346Y-128844050D01*
X152388345Y-128844050D01*
X152382800Y-128844428D01*
X152201813Y-128889553D01*
X152195706Y-128892584D01*
X152195702Y-128892586D01*
X152051472Y-128964183D01*
X152034738Y-128972490D01*
X151889369Y-129089369D01*
X151772490Y-129234738D01*
X151769457Y-129240848D01*
X151692586Y-129395702D01*
X151692584Y-129395706D01*
X151689553Y-129401813D01*
X151644428Y-129582800D01*
X151644050Y-129588346D01*
X151644050Y-129588349D01*
X151641647Y-129623599D01*
X151641500Y-129625749D01*
X151641500Y-130724792D01*
X151621498Y-130792913D01*
X151610450Y-130807620D01*
X151554092Y-130872224D01*
X151551740Y-130875805D01*
X151539466Y-130894491D01*
X151531658Y-130905120D01*
X151514787Y-130925732D01*
X151512549Y-130929385D01*
X151512542Y-130929394D01*
X151458028Y-131018352D01*
X151455908Y-131021694D01*
X151398606Y-131108927D01*
X151398602Y-131108933D01*
X151396253Y-131112510D01*
X151394410Y-131116375D01*
X151384785Y-131136554D01*
X151378492Y-131148143D01*
X151366813Y-131167201D01*
X151366807Y-131167212D01*
X151364573Y-131170858D01*
X151362854Y-131174775D01*
X151362852Y-131174778D01*
X151320895Y-131270360D01*
X151319252Y-131273948D01*
X151272486Y-131371996D01*
X151271182Y-131376082D01*
X151271180Y-131376087D01*
X151264388Y-131397367D01*
X151259729Y-131409698D01*
X151249017Y-131434102D01*
X151219231Y-131538666D01*
X151218111Y-131542374D01*
X151185079Y-131645877D01*
X151184342Y-131650100D01*
X151184340Y-131650108D01*
X151180498Y-131672119D01*
X151177555Y-131684971D01*
X151170256Y-131710594D01*
X151169652Y-131714841D01*
X151154947Y-131818163D01*
X151154328Y-131822073D01*
X151135651Y-131929087D01*
X151135494Y-131933374D01*
X151134675Y-131955702D01*
X151133503Y-131968838D01*
X151129749Y-131995216D01*
X151129727Y-131999506D01*
X151129726Y-131999513D01*
X151129179Y-132103868D01*
X151129096Y-132107823D01*
X151125858Y-132196139D01*
X151125116Y-132216385D01*
X151125542Y-132220650D01*
X151125542Y-132220661D01*
X151127761Y-132242892D01*
X151128382Y-132256061D01*
X151128368Y-132258785D01*
X151128243Y-132282703D01*
X151128802Y-132286947D01*
X151128802Y-132286951D01*
X151142426Y-132390436D01*
X151142881Y-132394367D01*
X151153670Y-132502454D01*
X151154672Y-132506627D01*
X151154672Y-132506628D01*
X151159887Y-132528352D01*
X151162290Y-132541317D01*
X151165768Y-132567734D01*
X151178247Y-132613347D01*
X151194438Y-132672531D01*
X151195423Y-132676367D01*
X151219780Y-132777826D01*
X151219783Y-132777835D01*
X151220783Y-132782001D01*
X151222343Y-132786002D01*
X151230455Y-132806807D01*
X151234598Y-132819332D01*
X151241629Y-132845036D01*
X151243314Y-132848987D01*
X151243316Y-132848992D01*
X151284260Y-132944982D01*
X151285756Y-132948648D01*
X151325214Y-133049853D01*
X151338169Y-133073128D01*
X151343970Y-133084971D01*
X151352738Y-133105527D01*
X151352742Y-133105535D01*
X151354423Y-133109476D01*
X151410216Y-133202699D01*
X151412183Y-133206107D01*
X151465031Y-133301055D01*
X151467604Y-133304482D01*
X151467606Y-133304485D01*
X151481026Y-133322358D01*
X151488377Y-133333296D01*
X151502061Y-133356161D01*
X151563141Y-133432401D01*
X151569980Y-133440938D01*
X151572406Y-133444065D01*
X151616261Y-133502474D01*
X151641167Y-133568958D01*
X151641501Y-133578127D01*
X151641501Y-134674250D01*
X151644428Y-134717200D01*
X151689553Y-134898187D01*
X151692584Y-134904294D01*
X151692586Y-134904298D01*
X151751247Y-135022469D01*
X151772490Y-135065262D01*
X151776763Y-135070577D01*
X151776764Y-135070578D01*
X151885098Y-135205319D01*
X151889369Y-135210631D01*
X151894681Y-135214902D01*
X151960373Y-135267719D01*
X152034738Y-135327510D01*
X152040848Y-135330543D01*
X152195702Y-135407414D01*
X152195706Y-135407416D01*
X152201813Y-135410447D01*
X152382800Y-135455572D01*
X152404058Y-135457021D01*
X152423602Y-135458354D01*
X152423613Y-135458354D01*
X152425749Y-135458500D01*
X153237122Y-135458500D01*
X154049250Y-135458499D01*
X154083138Y-135456190D01*
X154086654Y-135455950D01*
X154086655Y-135455950D01*
X154092200Y-135455572D01*
X154273187Y-135410447D01*
X154279294Y-135407416D01*
X154279298Y-135407414D01*
X154434152Y-135330543D01*
X154440262Y-135327510D01*
X154553586Y-135236395D01*
X154619207Y-135209300D01*
X154671541Y-135216441D01*
X154671996Y-135215014D01*
X154941787Y-135301116D01*
X154941791Y-135301117D01*
X154945877Y-135302421D01*
X155229087Y-135351850D01*
X155320966Y-135355219D01*
X155512092Y-135362227D01*
X155512098Y-135362227D01*
X155516385Y-135362384D01*
X155520651Y-135361958D01*
X155520656Y-135361958D01*
X155725254Y-135341536D01*
X155802454Y-135333830D01*
X155806622Y-135332829D01*
X155806624Y-135332829D01*
X156077830Y-135267719D01*
X156077835Y-135267717D01*
X156082002Y-135266717D01*
X156085995Y-135265160D01*
X156086002Y-135265158D01*
X156345855Y-135163845D01*
X156349854Y-135162286D01*
X156601055Y-135022469D01*
X156604478Y-135019899D01*
X156604484Y-135019895D01*
X156827519Y-134852435D01*
X156827523Y-134852432D01*
X156830956Y-134849854D01*
X157035305Y-134647635D01*
X157037912Y-134644238D01*
X157037916Y-134644233D01*
X157207713Y-134422948D01*
X157207713Y-134422947D01*
X157210318Y-134419553D01*
X157352759Y-134169829D01*
X157459989Y-133903085D01*
X157468237Y-133870250D01*
X157528979Y-133628420D01*
X157530025Y-133624256D01*
X157545255Y-133486305D01*
X157561103Y-133342759D01*
X157561103Y-133342758D01*
X157561573Y-133338501D01*
X157554047Y-133051109D01*
X157507588Y-132767398D01*
X157423054Y-132492615D01*
X157347104Y-132328994D01*
X157336566Y-132258785D01*
X157363888Y-132196139D01*
X157399456Y-132152683D01*
X157458080Y-132112638D01*
X157529049Y-132110644D01*
X157589830Y-132147335D01*
X157615733Y-132190429D01*
X157672893Y-132351843D01*
X157674859Y-132355652D01*
X157770688Y-132541317D01*
X157804750Y-132607312D01*
X157807211Y-132610813D01*
X157807213Y-132610817D01*
X157887405Y-132724918D01*
X157970059Y-132842523D01*
X157984881Y-132858473D01*
X158159013Y-133045861D01*
X158165760Y-133053122D01*
X158169078Y-133055838D01*
X158172208Y-133058777D01*
X158172187Y-133058799D01*
X158178497Y-133064755D01*
X158178518Y-133064733D01*
X158387056Y-133262628D01*
X158620522Y-133430391D01*
X158624317Y-133432400D01*
X158624318Y-133432401D01*
X158643375Y-133442491D01*
X158874597Y-133564917D01*
X159144578Y-133663716D01*
X159425469Y-133724960D01*
X159456520Y-133727404D01*
X159648487Y-133742512D01*
X159648496Y-133742512D01*
X159650944Y-133742705D01*
X164238066Y-133742705D01*
X164240205Y-133742559D01*
X164240210Y-133742559D01*
X164259163Y-133741267D01*
X164318795Y-133737201D01*
X164388117Y-133752523D01*
X164438152Y-133802892D01*
X164453150Y-133870250D01*
X164360576Y-135455950D01*
X164304782Y-136411644D01*
X164303539Y-136423407D01*
X164277797Y-136591203D01*
X164272039Y-136614123D01*
X164217400Y-136768558D01*
X164207464Y-136789998D01*
X164124950Y-136931515D01*
X164111184Y-136950724D01*
X164003700Y-137074339D01*
X163986591Y-137090639D01*
X163857911Y-137192016D01*
X163838058Y-137204835D01*
X163692713Y-137280399D01*
X163670817Y-137289285D01*
X163513922Y-137336381D01*
X163490751Y-137341023D01*
X163321902Y-137358611D01*
X163310092Y-137359283D01*
X152819069Y-137462898D01*
X149884336Y-137491883D01*
X149816021Y-137472555D01*
X149794777Y-137455758D01*
X149679825Y-137342794D01*
X149679820Y-137342790D01*
X149677082Y-137340099D01*
X149620294Y-137296524D01*
X149578428Y-137239187D01*
X149571000Y-137196563D01*
X149571000Y-132086801D01*
X149558887Y-131932899D01*
X149558499Y-131923014D01*
X149558499Y-129625750D01*
X149555572Y-129582800D01*
X149510447Y-129401813D01*
X149507416Y-129395706D01*
X149507414Y-129395702D01*
X149430543Y-129240848D01*
X149427510Y-129234738D01*
X149310631Y-129089369D01*
X149165262Y-128972490D01*
X149148528Y-128964183D01*
X149004298Y-128892586D01*
X149004294Y-128892584D01*
X148998187Y-128889553D01*
X148817200Y-128844428D01*
X148795942Y-128842979D01*
X148776398Y-128841646D01*
X148776387Y-128841646D01*
X148774251Y-128841500D01*
X147962878Y-128841500D01*
X147150750Y-128841501D01*
X147116862Y-128843810D01*
X147113346Y-128844050D01*
X147113345Y-128844050D01*
X147107800Y-128844428D01*
X146926813Y-128889553D01*
X146920706Y-128892584D01*
X146920702Y-128892586D01*
X146776472Y-128964183D01*
X146759738Y-128972490D01*
X146614369Y-129089369D01*
X146497490Y-129234738D01*
X146494457Y-129240848D01*
X146417586Y-129395702D01*
X146417584Y-129395706D01*
X146414553Y-129401813D01*
X146369428Y-129582800D01*
X146369050Y-129588346D01*
X146369050Y-129588349D01*
X146366647Y-129623599D01*
X146366500Y-129625749D01*
X146366500Y-131923015D01*
X146366112Y-131932901D01*
X146360870Y-131999513D01*
X146354000Y-132086801D01*
X146354000Y-137198383D01*
X146333998Y-137266504D01*
X146308146Y-137295608D01*
X146183090Y-137398696D01*
X146183085Y-137398700D01*
X146180127Y-137401139D01*
X146177484Y-137403924D01*
X146177482Y-137403926D01*
X146094910Y-137490938D01*
X146033509Y-137526582D01*
X146004757Y-137530199D01*
X145054061Y-137539589D01*
X145041340Y-137539071D01*
X144859426Y-137522432D01*
X144834464Y-137517572D01*
X144665723Y-137466594D01*
X144642246Y-137456820D01*
X144487181Y-137372999D01*
X144466147Y-137358713D01*
X144331065Y-137245455D01*
X144313328Y-137227235D01*
X144285376Y-137192016D01*
X144258536Y-137158199D01*
X144203744Y-137089164D01*
X144190025Y-137067750D01*
X144110398Y-136910487D01*
X144101259Y-136886755D01*
X144072044Y-136779746D01*
X144054834Y-136716707D01*
X144050646Y-136691627D01*
X144044176Y-136591203D01*
X144038900Y-136509328D01*
X144038724Y-136496598D01*
X144076891Y-135458352D01*
X144399232Y-126689868D01*
X144421722Y-126622530D01*
X144477050Y-126578040D01*
X144525146Y-126568499D01*
X145071884Y-126568499D01*
X145075969Y-126567961D01*
X145075973Y-126567961D01*
X145182663Y-126553916D01*
X145182665Y-126553916D01*
X145190850Y-126552838D01*
X145264863Y-126522181D01*
X145331248Y-126494684D01*
X145331250Y-126494683D01*
X145338876Y-126491524D01*
X145381913Y-126458500D01*
X145459436Y-126399014D01*
X145459437Y-126399013D01*
X145465987Y-126393987D01*
X145471013Y-126387437D01*
X145471016Y-126387434D01*
X145520276Y-126323236D01*
X145563524Y-126266875D01*
X145624838Y-126118850D01*
X145640500Y-125999885D01*
X145640499Y-116202666D01*
X145660501Y-116134545D01*
X145714157Y-116088052D01*
X145734431Y-116080815D01*
X150363109Y-114862649D01*
X150395177Y-114858500D01*
X159831854Y-114858500D01*
X159841740Y-114858888D01*
X159900000Y-114863473D01*
X159904930Y-114863085D01*
X159904931Y-114863085D01*
X159963182Y-114858501D01*
X159963197Y-114858500D01*
X159963199Y-114858500D01*
X160152403Y-114843609D01*
X160157210Y-114842455D01*
X160157216Y-114842454D01*
X160313968Y-114804821D01*
X160398591Y-114784505D01*
X160403164Y-114782611D01*
X160627928Y-114689511D01*
X160627932Y-114689509D01*
X160632502Y-114687616D01*
X160848376Y-114555328D01*
X160992693Y-114432070D01*
X160992699Y-114432064D01*
X161040898Y-114390898D01*
X161078857Y-114346454D01*
X161085572Y-114339191D01*
X164019852Y-111404911D01*
X164082164Y-111370885D01*
X164152979Y-111375950D01*
G37*
%TD.AperFunction*%
%TD*%
M02*
