M48
; DRILL file {KiCad 6.0.4} date Wed Jul 27 16:30:10 2022
; FORMAT={-:-/ absolute / inch / decimal}
; #@! TF.CreationDate,2022-07-27T16:30:10-04:00
; #@! TF.GenerationSoftware,Kicad,Pcbnew,6.0.4
; #@! TF.FileFunction,Plated,1,4,PTH
FMAT,2
INCH
; #@! TA.AperFunction,Plated,PTH,ViaDrill
T1C0.0157
; #@! TA.AperFunction,Plated,PTH,ViaDrill
T2C0.0197
; #@! TA.AperFunction,Plated,PTH,ComponentDrill
T3C0.0394
; #@! TA.AperFunction,Plated,PTH,ComponentDrill
T4C0.0433
; #@! TA.AperFunction,Plated,PTH,ComponentDrill
T5C0.0497
; #@! TA.AperFunction,Plated,PTH,ComponentDrill
T6C0.0787
; #@! TA.AperFunction,Plated,PTH,ComponentDrill
T7C0.1575
; #@! TA.AperFunction,Plated,PTH,ComponentDrill
T8C0.2067
%
G90
G05
T1
X4.0157Y-4.9685
X4.0669Y-5.0217
X4.0906Y-4.8898
X4.1496Y-4.5433
X4.2382Y-4.4567
X4.4902Y-3.9941
X4.4961Y-4.1299
X5.0492Y-5.2539
X5.0512Y-5.1713
X5.0512Y-5.2126
X5.0768Y-4.7992
X5.0787Y-4.6969
X5.0787Y-4.7441
X5.0787Y-4.8583
X6.0846Y-5.1535
X6.0856Y-5.2116
X6.1201Y-5.2461
X6.1299Y-5.1535
X6.1299Y-5.1988
T2
X5.1181Y-4.6457
X5.1575Y-4.6457
X5.1969Y-4.6457
X5.3543Y-4.6457
X5.3937Y-4.6457
X5.4331Y-4.6457
X5.4331Y-4.8031
X5.4331Y-4.8425
X5.4331Y-4.8819
X5.472Y-4.6846
X5.4724Y-4.7638
X5.4724Y-4.8031
X5.4724Y-4.8819
X5.4724Y-5.1181
X5.5118Y-4.7244
X5.5118Y-4.7638
X5.5118Y-4.8031
X5.5118Y-4.8425
X5.5118Y-4.8819
X5.5118Y-5.0394
X5.5118Y-5.0787
X5.5118Y-5.1181
X5.5118Y-5.2756
X5.5118Y-5.315
X5.5118Y-5.3543
X5.5311Y-4.6256
X5.5512Y-4.685
X5.5512Y-4.8425
X5.5512Y-4.8819
X5.5512Y-5.0394
X5.5512Y-5.0787
X5.5512Y-5.1181
X5.5512Y-5.2756
X5.5512Y-5.315
X5.5512Y-5.3543
X5.5906Y-4.6457
X5.5906Y-4.685
X5.5906Y-4.8425
X5.5906Y-4.8819
X5.5906Y-5.0394
X5.5906Y-5.0787
X5.5906Y-5.1181
X5.5906Y-5.315
X5.5906Y-5.3543
X5.6299Y-4.6457
X5.6299Y-4.685
X5.6299Y-4.8425
X5.6299Y-4.8819
X5.6299Y-5.0394
X5.6299Y-5.0787
X5.6299Y-5.1181
X5.6299Y-5.315
X5.6299Y-5.3543
X5.6693Y-4.6457
X5.6693Y-4.685
X5.6693Y-4.8425
X5.6693Y-4.8819
X5.6693Y-5.0394
X5.6693Y-5.0787
X5.6693Y-5.1181
X5.6693Y-5.2756
X5.6693Y-5.315
X5.6693Y-5.3543
T3
X4.0152Y-4.5031
X4.0152Y-4.6031
X4.0152Y-4.7031
X4.0152Y-4.8031
X4.0152Y-4.9031
X4.0157Y-5.215
X4.7717Y-5.7047
X4.872Y-5.0
X4.9213Y-4.0551
X4.939Y-5.5413
X5.0921Y-4.2307
X5.8248Y-4.9528
X6.5571Y-5.0886
X7.0413Y-4.9744
T4
X4.9516Y-4.6638
X4.9516Y-4.7638
X4.9516Y-4.8638
X4.9516Y-5.1008
X4.9516Y-5.2008
X4.9516Y-5.3008
T5
X6.0059Y-4.8996
X6.2887Y-5.1824
X6.7368Y-4.977
X7.0197Y-5.2598
T6
X5.6909Y-4.2303
X5.7795Y-5.6811
X6.0846Y-4.2303
X6.1732Y-5.6811
T7
X4.4823Y-5.7028
X5.2323Y-5.7028
X6.6496Y-4.5709
X6.6496Y-5.3209
X6.8366Y-4.1594
X7.252Y-5.0354
T8
X4.1339Y-4.1339
X4.1339Y-5.7087
X7.2441Y-4.1732
X7.2441Y-5.6693
T0
M30
