%TF.GenerationSoftware,KiCad,Pcbnew,6.0.4*%
%TF.CreationDate,2022-07-27T16:30:23-04:00*%
%TF.ProjectId,verter,76657274-6572-42e6-9b69-6361645f7063,rev?*%
%TF.SameCoordinates,Original*%
%TF.FileFunction,Copper,L4,Bot*%
%TF.FilePolarity,Positive*%
%FSLAX46Y46*%
G04 Gerber Fmt 4.6, Leading zero omitted, Abs format (unit mm)*
G04 Created by KiCad (PCBNEW 6.0.4) date 2022-07-27 16:30:23*
%MOMM*%
%LPD*%
G01*
G04 APERTURE LIST*
G04 Aperture macros list*
%AMOutline4P*
0 Free polygon, 4 corners , with rotation*
0 The origin of the aperture is its center*
0 number of corners: always 4*
0 $1 to $8 corner X, Y*
0 $9 Rotation angle, in degrees counterclockwise*
0 create outline with 4 corners*
4,1,4,$1,$2,$3,$4,$5,$6,$7,$8,$1,$2,$9*%
%AMOutline5P*
0 Free polygon, 5 corners , with rotation*
0 The origin of the aperture is its center*
0 number of corners: always 5*
0 $1 to $10 corner X, Y*
0 $11 Rotation angle, in degrees counterclockwise*
0 create outline with 5 corners*
4,1,5,$1,$2,$3,$4,$5,$6,$7,$8,$9,$10,$1,$2,$11*%
%AMOutline6P*
0 Free polygon, 6 corners , with rotation*
0 The origin of the aperture is its center*
0 number of corners: always 6*
0 $1 to $12 corner X, Y*
0 $13 Rotation angle, in degrees counterclockwise*
0 create outline with 6 corners*
4,1,6,$1,$2,$3,$4,$5,$6,$7,$8,$9,$10,$11,$12,$1,$2,$13*%
%AMOutline7P*
0 Free polygon, 7 corners , with rotation*
0 The origin of the aperture is its center*
0 number of corners: always 7*
0 $1 to $14 corner X, Y*
0 $15 Rotation angle, in degrees counterclockwise*
0 create outline with 7 corners*
4,1,7,$1,$2,$3,$4,$5,$6,$7,$8,$9,$10,$11,$12,$13,$14,$1,$2,$15*%
%AMOutline8P*
0 Free polygon, 8 corners , with rotation*
0 The origin of the aperture is its center*
0 number of corners: always 8*
0 $1 to $16 corner X, Y*
0 $17 Rotation angle, in degrees counterclockwise*
0 create outline with 8 corners*
4,1,8,$1,$2,$3,$4,$5,$6,$7,$8,$9,$10,$11,$12,$13,$14,$15,$16,$1,$2,$17*%
G04 Aperture macros list end*
%TA.AperFunction,ComponentPad*%
%ADD10C,8.000000*%
%TD*%
%TA.AperFunction,TestPad*%
%ADD11C,6.000000*%
%TD*%
%TA.AperFunction,ComponentPad*%
%ADD12Outline4P,-0.912000X-1.262000X0.912000X-0.262000X0.912000X0.262000X-0.912000X1.262000X0.000000*%
%TD*%
%TA.AperFunction,ComponentPad*%
%ADD13R,1.524000X1.524000*%
%TD*%
%TA.AperFunction,ComponentPad*%
%ADD14C,1.524000*%
%TD*%
%TA.AperFunction,ComponentPad*%
%ADD15C,2.524000*%
%TD*%
%TA.AperFunction,ComponentPad*%
%ADD16R,2.000000X1.905000*%
%TD*%
%TA.AperFunction,ComponentPad*%
%ADD17O,2.000000X1.905000*%
%TD*%
%TA.AperFunction,ComponentPad*%
%ADD18C,4.000000*%
%TD*%
%TA.AperFunction,ComponentPad*%
%ADD19Outline5P,-2.000000X1.200000X-1.200000X2.000000X2.000000X2.000000X2.000000X-2.000000X-2.000000X-2.000000X0.000000*%
%TD*%
%TA.AperFunction,ComponentPad*%
%ADD20Outline5P,-2.000000X1.200000X-1.200000X2.000000X2.000000X2.000000X2.000000X-2.000000X-2.000000X-2.000000X180.000000*%
%TD*%
%TA.AperFunction,ViaPad*%
%ADD21C,0.800000*%
%TD*%
%TA.AperFunction,ViaPad*%
%ADD22C,0.600000*%
%TD*%
%TA.AperFunction,ViaPad*%
%ADD23C,0.550000*%
%TD*%
%TA.AperFunction,ViaPad*%
%ADD24C,0.700000*%
%TD*%
%TA.AperFunction,Conductor*%
%ADD25C,3.000000*%
%TD*%
G04 APERTURE END LIST*
D10*
%TO.P,M1,1,hol*%
%TO.N,/amp/nw*%
X105000000Y-105000000D03*
%TD*%
D11*
%TO.P,BN2,1,1+*%
%TO.N,+VDC*%
X168900000Y-116100000D03*
%TO.P,BN2,2,2-*%
%TO.N,-VDC*%
X168900000Y-135150000D03*
%TD*%
D10*
%TO.P,M2,1,hol*%
%TO.N,/amp/sw*%
X184000000Y-144000000D03*
%TD*%
D12*
%TO.P,t3bat-1,1,tp*%
%TO.N,-BATT*%
X125450000Y-140750000D03*
%TD*%
%TO.P,t12hbout1,1,tp*%
%TO.N,/amp/hbout*%
X178850000Y-126350000D03*
%TD*%
%TO.P,t2vdda1,1,tp*%
%TO.N,/amp/vdda*%
X125000000Y-103000000D03*
%TD*%
D13*
%TO.P,cn1,1,1*%
%TO.N,GND*%
X101986000Y-124540000D03*
D14*
%TO.P,cn1,2,2*%
%TO.N,hb_b_in*%
X101986000Y-122000000D03*
%TO.P,cn1,3,3*%
%TO.N,hb_a_in*%
X101986000Y-119460000D03*
%TO.P,cn1,4,4*%
%TO.N,hb_dis*%
X101986000Y-116920000D03*
%TO.P,cn1,5,5*%
%TO.N,+3V3*%
X101986000Y-114380000D03*
%TD*%
D12*
%TO.P,t1,1,tp*%
%TO.N,+3V3*%
X102000000Y-132460000D03*
%TD*%
%TO.P,t4bat+1,1,tp*%
%TO.N,+BATT*%
X121200000Y-144900000D03*
%TD*%
D10*
%TO.P,M3,1,hol*%
%TO.N,/amp/ne*%
X184000000Y-106000000D03*
%TD*%
D15*
%TO.P,L1,1,1*%
%TO.N,/amp/hb_rawmid*%
X152550000Y-124450000D03*
%TO.P,L1,2,2*%
%TO.N,/amp/hb_filtmid*%
X159734205Y-131634205D03*
%TD*%
D11*
%TO.P,BN3,1,1+*%
%TO.N,+BATT*%
X113850000Y-144850000D03*
%TO.P,BN3,2,2-*%
%TO.N,-BATT*%
X132900000Y-144850000D03*
%TD*%
D16*
%TO.P,U2,1,g*%
%TO.N,/amp/lo_gate*%
X125770000Y-129560000D03*
D17*
%TO.P,U2,2,d*%
%TO.N,/amp/hb_rawmid*%
X125770000Y-132100000D03*
%TO.P,U2,3,s*%
%TO.N,-VDC*%
X125770000Y-134640000D03*
%TD*%
D18*
%TO.P,C6,1*%
%TO.N,+VDC*%
X144550000Y-107450000D03*
D19*
%TO.P,C6,2*%
%TO.N,/amp/vdc_midpoint*%
X154550000Y-107450000D03*
%TD*%
D12*
%TO.P,t6higate1,1,tp*%
%TO.N,/amp/hi_gate*%
X129340000Y-107460000D03*
%TD*%
%TO.P,t5lo_gate1,1,tp*%
%TO.N,/amp/lo_gate*%
X123750000Y-127000000D03*
%TD*%
%TO.P,t8hbf1,1,tp*%
%TO.N,/amp/hb_filtmid*%
X166550000Y-129250000D03*
%TD*%
D16*
%TO.P,U1,1,g*%
%TO.N,/amp/hi_gate*%
X125770000Y-118460000D03*
D17*
%TO.P,U1,2,d*%
%TO.N,+VDC*%
X125770000Y-121000000D03*
%TO.P,U1,3,s*%
%TO.N,/amp/hb_rawmid*%
X125770000Y-123540000D03*
%TD*%
D15*
%TO.P,L2,1,1*%
%TO.N,/amp/hb_filtmid*%
X171115795Y-126415795D03*
%TO.P,L2,2,2*%
%TO.N,/amp/hbout*%
X178300000Y-133600000D03*
%TD*%
D12*
%TO.P,t7hbc1,1,tp*%
%TO.N,/amp/hb_rawmid*%
X147950000Y-125800000D03*
%TD*%
D11*
%TO.P,BN1,1,1*%
%TO.N,/amp/vdc_midpoint*%
X173650000Y-105650000D03*
%TD*%
%TO.P,BNOut4,1,1*%
%TO.N,/amp/hbout*%
X184200000Y-127900000D03*
%TD*%
D18*
%TO.P,C7,1*%
%TO.N,/amp/vdc_midpoint*%
X156800000Y-144300000D03*
D20*
%TO.P,C7,2*%
%TO.N,-VDC*%
X146800000Y-144300000D03*
%TD*%
D10*
%TO.P,M4,1,hol*%
%TO.N,/amp/se*%
X105000000Y-145000000D03*
%TD*%
D21*
%TO.N,GND*%
X105400000Y-115400000D03*
D22*
X103900000Y-124200000D03*
D21*
X114050000Y-101450000D03*
X103300000Y-127550000D03*
X107650000Y-113200000D03*
X102000000Y-126200000D03*
X114200000Y-104900000D03*
D23*
%TO.N,+VDC*%
X143000000Y-118000000D03*
X132000000Y-118000000D03*
X140000000Y-123000000D03*
D21*
X129000000Y-119300000D03*
D23*
X137000000Y-118000000D03*
D21*
X128950000Y-121900000D03*
D23*
X139000000Y-124000000D03*
X144000000Y-123000000D03*
X144000000Y-119000000D03*
X143000000Y-119000000D03*
X138000000Y-123000000D03*
X141000000Y-119000000D03*
X138000000Y-118000000D03*
X144000000Y-124000000D03*
X144000000Y-118000000D03*
X142000000Y-124000000D03*
X142000000Y-119000000D03*
X138000000Y-122000000D03*
X141000000Y-124000000D03*
X139000000Y-122000000D03*
D21*
X129000000Y-123400000D03*
D23*
X140000000Y-122000000D03*
X140000000Y-124000000D03*
X138000000Y-124000000D03*
X140490000Y-117490000D03*
X140000000Y-121000000D03*
X140000000Y-120000000D03*
D21*
X129000000Y-120500000D03*
D23*
X142000000Y-123000000D03*
X142000000Y-118000000D03*
X131000000Y-118000000D03*
X143000000Y-123000000D03*
X130000000Y-118000000D03*
X136000000Y-118000000D03*
X139000000Y-121000000D03*
X143000000Y-124000000D03*
X141000000Y-123000000D03*
X138990000Y-118990000D03*
%TO.N,/amp/hb_rawmid*%
X139000000Y-130000000D03*
X144000000Y-135000000D03*
X141000000Y-130000000D03*
X143000000Y-128000000D03*
X140000000Y-135000000D03*
D24*
X144000000Y-136000000D03*
D23*
X141000000Y-134000000D03*
X143000000Y-129000000D03*
X144000000Y-134000000D03*
X142000000Y-135000000D03*
X140000000Y-130000000D03*
D21*
X128300000Y-132400000D03*
X128300000Y-131350000D03*
D23*
X141000000Y-128000000D03*
X140000000Y-136000000D03*
X141000000Y-135000000D03*
X140000000Y-129000000D03*
X144000000Y-130000000D03*
X140000000Y-134000000D03*
X142000000Y-128000000D03*
X141000000Y-129000000D03*
X144000000Y-128000000D03*
X142000000Y-136000000D03*
X143000000Y-135000000D03*
X141000000Y-136000000D03*
X140000000Y-128000000D03*
X143000000Y-130000000D03*
X144000000Y-129000000D03*
X143000000Y-136000000D03*
D21*
X128250000Y-133450000D03*
D23*
X142000000Y-130000000D03*
X142000000Y-129000000D03*
D21*
%TO.N,/amp/vdc_midpoint*%
X155700000Y-130900000D03*
X154575000Y-132375000D03*
X155450000Y-133250000D03*
X154550000Y-130900000D03*
X155700000Y-132050000D03*
%TD*%
D25*
%TO.N,/amp/vdc_midpoint*%
X175126978Y-107126978D02*
X175126978Y-135851978D01*
X155700000Y-133500000D02*
X155700000Y-133800000D01*
X175126978Y-135851978D02*
X166678956Y-144300000D01*
X173650000Y-105650000D02*
X175126978Y-107126978D01*
X155700000Y-143200000D02*
X155700000Y-133800000D01*
X173650000Y-105650000D02*
X156350000Y-105650000D01*
X156350000Y-105650000D02*
X154550000Y-107450000D01*
X166678956Y-144300000D02*
X156800000Y-144300000D01*
X156800000Y-144300000D02*
X155700000Y-143200000D01*
X155700000Y-132050000D02*
X155700000Y-130900000D01*
X155700000Y-133800000D02*
X155700000Y-132050000D01*
X155450000Y-133250000D02*
X155700000Y-133500000D01*
%TD*%
%TA.AperFunction,Conductor*%
%TO.N,/amp/hb_rawmid*%
G36*
X141228197Y-127395888D02*
G01*
X159026692Y-127492041D01*
X159038923Y-127492702D01*
X159213784Y-127510716D01*
X159237766Y-127515576D01*
X159399940Y-127565239D01*
X159422531Y-127574641D01*
X159572061Y-127654720D01*
X159592408Y-127668313D01*
X159723633Y-127775779D01*
X159740969Y-127793047D01*
X159848954Y-127923856D01*
X159862624Y-127944147D01*
X159902453Y-128017822D01*
X159943285Y-128093354D01*
X159952777Y-128115908D01*
X160003079Y-128277897D01*
X160008032Y-128301860D01*
X160026075Y-128470514D01*
X160026303Y-128494982D01*
X160011408Y-128663941D01*
X160006903Y-128687992D01*
X159957912Y-128856810D01*
X159953930Y-128868394D01*
X159624559Y-129693763D01*
X159580733Y-129749619D01*
X159514456Y-129772873D01*
X159499170Y-129773714D01*
X159239370Y-129825392D01*
X159073737Y-129883558D01*
X158993650Y-129911682D01*
X158993647Y-129911683D01*
X158989442Y-129913160D01*
X158985489Y-129915213D01*
X158985483Y-129915216D01*
X158942772Y-129937403D01*
X158754375Y-130035268D01*
X158646616Y-130112273D01*
X158542479Y-130186690D01*
X158542475Y-130186693D01*
X158538858Y-130189278D01*
X158535638Y-130192350D01*
X158385206Y-130335855D01*
X158347191Y-130372119D01*
X158183199Y-130580142D01*
X158125791Y-130678978D01*
X158052388Y-130805350D01*
X158052385Y-130805356D01*
X158050154Y-130809197D01*
X158047531Y-130815674D01*
X158047008Y-130816333D01*
X158046521Y-130817327D01*
X158046304Y-130817221D01*
X158003421Y-130871303D01*
X157936236Y-130894254D01*
X157867309Y-130877240D01*
X157818522Y-130825661D01*
X157805038Y-130776944D01*
X157794165Y-130617452D01*
X157794164Y-130617446D01*
X157793873Y-130613175D01*
X157782131Y-130556472D01*
X157736443Y-130335855D01*
X157735574Y-130331658D01*
X157639607Y-130060657D01*
X157563478Y-129913160D01*
X157509715Y-129808995D01*
X157509715Y-129808994D01*
X157507750Y-129805188D01*
X157494488Y-129786317D01*
X157344904Y-129573482D01*
X157342441Y-129569977D01*
X157146740Y-129359378D01*
X156924268Y-129177287D01*
X156679142Y-129027073D01*
X156661048Y-129019130D01*
X156419830Y-128913243D01*
X156415898Y-128911517D01*
X156389963Y-128904129D01*
X156143534Y-128833932D01*
X156143535Y-128833932D01*
X156139406Y-128832756D01*
X155926704Y-128802485D01*
X155859036Y-128792854D01*
X155859034Y-128792854D01*
X155854784Y-128792249D01*
X155850495Y-128792227D01*
X155850488Y-128792226D01*
X155571583Y-128790765D01*
X155571576Y-128790765D01*
X155567297Y-128790743D01*
X155563053Y-128791302D01*
X155563049Y-128791302D01*
X155437660Y-128807810D01*
X155282266Y-128828268D01*
X155278126Y-128829401D01*
X155278124Y-128829401D01*
X155201311Y-128850415D01*
X155004964Y-128904129D01*
X155001016Y-128905813D01*
X154744476Y-129015237D01*
X154744472Y-129015239D01*
X154740524Y-129016923D01*
X154615960Y-129091473D01*
X154497521Y-129162357D01*
X154497517Y-129162360D01*
X154493839Y-129164561D01*
X154269472Y-129344313D01*
X154071577Y-129552851D01*
X153970321Y-129693763D01*
X153913046Y-129773470D01*
X153903814Y-129786317D01*
X153769288Y-130040392D01*
X153670489Y-130310373D01*
X153669575Y-130314565D01*
X153639703Y-130451570D01*
X153627010Y-130485428D01*
X153618567Y-130500787D01*
X153558765Y-130689306D01*
X153536719Y-130885851D01*
X153537235Y-130891995D01*
X153550001Y-131044024D01*
X153553268Y-131082934D01*
X153561321Y-131111019D01*
X153586619Y-131199243D01*
X153591500Y-131233973D01*
X153591500Y-132120417D01*
X153586559Y-132152333D01*
X153586909Y-132152407D01*
X153585628Y-132158433D01*
X153583765Y-132164306D01*
X153583079Y-132170425D01*
X153583078Y-132170428D01*
X153572443Y-132265248D01*
X153556676Y-132313630D01*
X153547241Y-132330171D01*
X153506636Y-132431179D01*
X153443274Y-132588799D01*
X153440011Y-132596915D01*
X153369975Y-132875744D01*
X153369504Y-132880011D01*
X153345872Y-133094068D01*
X153338427Y-133161499D01*
X153345953Y-133448891D01*
X153392412Y-133732602D01*
X153393673Y-133736702D01*
X153393674Y-133736705D01*
X153434998Y-133871032D01*
X153476946Y-134007385D01*
X153553461Y-134172222D01*
X153579788Y-134228939D01*
X153591500Y-134281990D01*
X153591500Y-140392690D01*
X153571498Y-140460811D01*
X153517842Y-140507304D01*
X153447568Y-140517408D01*
X153382988Y-140487914D01*
X153356375Y-140451008D01*
X153354815Y-140451909D01*
X153350683Y-140444752D01*
X153347524Y-140437125D01*
X153249987Y-140310013D01*
X153167280Y-140246549D01*
X153129430Y-140217505D01*
X153129429Y-140217504D01*
X153129427Y-140217503D01*
X153122876Y-140212476D01*
X153048863Y-140181819D01*
X152982480Y-140154322D01*
X152982477Y-140154321D01*
X152974850Y-140151162D01*
X152816000Y-140130249D01*
X152807812Y-140131327D01*
X152784303Y-140134422D01*
X152767857Y-140135500D01*
X150578143Y-140135500D01*
X150561697Y-140134422D01*
X150538188Y-140131327D01*
X150530000Y-140130249D01*
X150386607Y-140149127D01*
X150371150Y-140151162D01*
X150223125Y-140212476D01*
X150168359Y-140254500D01*
X150102566Y-140304984D01*
X150102563Y-140304987D01*
X150096013Y-140310013D01*
X149998476Y-140437124D01*
X149995317Y-140444750D01*
X149995316Y-140444752D01*
X149969407Y-140507304D01*
X149937162Y-140585150D01*
X149916249Y-140744000D01*
X149917327Y-140752188D01*
X149920422Y-140775697D01*
X149921500Y-140792143D01*
X149921500Y-147807857D01*
X149920422Y-147824303D01*
X149916249Y-147856000D01*
X149917327Y-147864188D01*
X149921500Y-147895885D01*
X149932685Y-147980840D01*
X149937162Y-148014850D01*
X149998476Y-148162875D01*
X150022163Y-148193744D01*
X150090984Y-148283434D01*
X150090987Y-148283437D01*
X150096013Y-148289987D01*
X150223124Y-148387524D01*
X150230750Y-148390683D01*
X150230752Y-148390684D01*
X150363520Y-148445678D01*
X150363523Y-148445679D01*
X150371150Y-148448838D01*
X150530000Y-148469751D01*
X150538188Y-148468673D01*
X150561697Y-148465578D01*
X150578143Y-148464500D01*
X151687896Y-148464500D01*
X151756017Y-148484502D01*
X151802510Y-148538158D01*
X151812614Y-148608432D01*
X151783120Y-148673012D01*
X151747891Y-148701300D01*
X151720091Y-148716353D01*
X151697064Y-148726008D01*
X151531587Y-148776793D01*
X151507105Y-148781718D01*
X151328601Y-148799495D01*
X151316115Y-148800115D01*
X124506187Y-148800115D01*
X124493837Y-148799508D01*
X124493705Y-148799495D01*
X124317260Y-148782116D01*
X124293043Y-148777300D01*
X124129190Y-148727597D01*
X124106371Y-148718144D01*
X124021934Y-148673012D01*
X123955369Y-148637432D01*
X123934842Y-148623716D01*
X123802479Y-148515089D01*
X123785026Y-148497636D01*
X123676399Y-148365273D01*
X123662681Y-148344743D01*
X123581971Y-148193744D01*
X123572518Y-148170924D01*
X123567762Y-148155245D01*
X123522815Y-148007072D01*
X123517998Y-147982852D01*
X123500607Y-147806278D01*
X123500000Y-147793928D01*
X123500000Y-144850000D01*
X129286548Y-144850000D01*
X129306343Y-145227709D01*
X129306856Y-145230949D01*
X129306857Y-145230957D01*
X129314489Y-145279142D01*
X129365511Y-145601279D01*
X129463403Y-145966618D01*
X129598947Y-146319723D01*
X129600445Y-146322663D01*
X129759395Y-146634619D01*
X129770659Y-146656726D01*
X129772455Y-146659492D01*
X129772457Y-146659495D01*
X129834977Y-146755767D01*
X129976656Y-146973934D01*
X130214682Y-147267871D01*
X130482129Y-147535318D01*
X130776066Y-147773344D01*
X131093274Y-147979341D01*
X131096208Y-147980836D01*
X131096215Y-147980840D01*
X131427337Y-148149555D01*
X131430277Y-148151053D01*
X131783382Y-148286597D01*
X132148721Y-148384489D01*
X132347158Y-148415918D01*
X132519043Y-148443143D01*
X132519051Y-148443144D01*
X132522291Y-148443657D01*
X132900000Y-148463452D01*
X133277709Y-148443657D01*
X133280949Y-148443144D01*
X133280957Y-148443143D01*
X133452842Y-148415918D01*
X133651279Y-148384489D01*
X134016618Y-148286597D01*
X134369723Y-148151053D01*
X134372663Y-148149555D01*
X134703785Y-147980840D01*
X134703792Y-147980836D01*
X134706726Y-147979341D01*
X135023934Y-147773344D01*
X135317871Y-147535318D01*
X135585318Y-147267871D01*
X135823344Y-146973934D01*
X135965023Y-146755767D01*
X136027543Y-146659495D01*
X136027545Y-146659492D01*
X136029341Y-146656726D01*
X136040606Y-146634619D01*
X136199555Y-146322663D01*
X136201053Y-146319723D01*
X136336597Y-145966618D01*
X136434489Y-145601279D01*
X136485511Y-145279142D01*
X136493143Y-145230957D01*
X136493144Y-145230949D01*
X136493657Y-145227709D01*
X136513452Y-144850000D01*
X136493657Y-144472291D01*
X136490885Y-144454784D01*
X136445350Y-144167297D01*
X136434489Y-144098721D01*
X136336597Y-143733382D01*
X136323542Y-143699371D01*
X136202237Y-143383362D01*
X136201053Y-143380277D01*
X136113960Y-143209347D01*
X136030840Y-143046215D01*
X136030836Y-143046208D01*
X136029341Y-143043274D01*
X135823344Y-142726066D01*
X135585318Y-142432129D01*
X135413304Y-142260115D01*
X144191500Y-142260115D01*
X144191501Y-146339884D01*
X144207162Y-146458850D01*
X144268476Y-146606876D01*
X144273502Y-146613426D01*
X144308853Y-146659495D01*
X144366013Y-146733987D01*
X144372563Y-146739013D01*
X144372566Y-146739016D01*
X144429569Y-146782756D01*
X144493125Y-146831524D01*
X144531241Y-146847312D01*
X144632102Y-146889090D01*
X144641150Y-146892838D01*
X144649338Y-146893916D01*
X144687591Y-146898952D01*
X144760115Y-146908500D01*
X148040156Y-146908500D01*
X148071159Y-146904372D01*
X148151686Y-146893651D01*
X148151689Y-146893650D01*
X148159885Y-146892559D01*
X148307802Y-146830987D01*
X148401880Y-146758668D01*
X149258670Y-145901878D01*
X149261207Y-145898562D01*
X149327035Y-145812515D01*
X149327037Y-145812512D01*
X149332059Y-145805947D01*
X149393114Y-145657816D01*
X149400091Y-145604468D01*
X149407968Y-145544227D01*
X149407968Y-145544222D01*
X149408500Y-145540156D01*
X149408499Y-142260116D01*
X149396245Y-142167026D01*
X149393916Y-142149337D01*
X149393916Y-142149335D01*
X149392838Y-142141150D01*
X149358318Y-142057810D01*
X149334684Y-142000752D01*
X149334683Y-142000750D01*
X149331524Y-141993124D01*
X149254723Y-141893036D01*
X149239014Y-141872564D01*
X149239013Y-141872563D01*
X149233987Y-141866013D01*
X149227436Y-141860986D01*
X149227434Y-141860984D01*
X149170431Y-141817244D01*
X149106875Y-141768476D01*
X148958850Y-141707162D01*
X148950662Y-141706084D01*
X148843972Y-141692038D01*
X148843971Y-141692038D01*
X148839885Y-141691500D01*
X146800248Y-141691500D01*
X144760116Y-141691501D01*
X144756031Y-141692039D01*
X144756027Y-141692039D01*
X144649337Y-141706084D01*
X144649335Y-141706084D01*
X144641150Y-141707162D01*
X144567137Y-141737819D01*
X144500752Y-141765316D01*
X144500750Y-141765317D01*
X144493124Y-141768476D01*
X144366013Y-141866013D01*
X144360987Y-141872563D01*
X144360984Y-141872566D01*
X144345277Y-141893036D01*
X144268476Y-141993125D01*
X144207162Y-142141150D01*
X144191500Y-142260115D01*
X135413304Y-142260115D01*
X135317871Y-142164682D01*
X135023934Y-141926656D01*
X134706726Y-141720659D01*
X134703792Y-141719164D01*
X134703785Y-141719160D01*
X134372663Y-141550445D01*
X134369723Y-141548947D01*
X134016618Y-141413403D01*
X133651279Y-141315511D01*
X133452842Y-141284082D01*
X133280957Y-141256857D01*
X133280949Y-141256856D01*
X133277709Y-141256343D01*
X132900000Y-141236548D01*
X132522291Y-141256343D01*
X132519051Y-141256856D01*
X132519043Y-141256857D01*
X132347158Y-141284082D01*
X132148721Y-141315511D01*
X131783382Y-141413403D01*
X131430277Y-141548947D01*
X131427337Y-141550445D01*
X131096215Y-141719160D01*
X131096208Y-141719164D01*
X131093274Y-141720659D01*
X130776066Y-141926656D01*
X130482129Y-142164682D01*
X130214682Y-142432129D01*
X129976656Y-142726066D01*
X129770659Y-143043274D01*
X129769164Y-143046208D01*
X129769160Y-143046215D01*
X129686040Y-143209347D01*
X129598947Y-143380277D01*
X129597763Y-143383362D01*
X129476459Y-143699371D01*
X129463403Y-143733382D01*
X129365511Y-144098721D01*
X129354650Y-144167297D01*
X129309116Y-144454784D01*
X129306343Y-144472291D01*
X129286548Y-144850000D01*
X123500000Y-144850000D01*
X123500000Y-142053855D01*
X123929499Y-142053855D01*
X123943621Y-142164982D01*
X123946640Y-142172479D01*
X123946641Y-142172483D01*
X124000385Y-142305948D01*
X124003469Y-142313606D01*
X124099744Y-142441676D01*
X124225885Y-142540464D01*
X124373297Y-142603238D01*
X124402332Y-142607353D01*
X124523752Y-142624562D01*
X124523756Y-142624562D01*
X124531933Y-142625721D01*
X124690982Y-142606379D01*
X124793829Y-142565693D01*
X126331891Y-141722457D01*
X126717503Y-141511047D01*
X126717510Y-141511043D01*
X126719558Y-141509920D01*
X126730509Y-141502807D01*
X126844982Y-141390706D01*
X126926541Y-141252797D01*
X126969628Y-141098478D01*
X126970500Y-141086162D01*
X126970500Y-140413840D01*
X126969527Y-140400818D01*
X126926261Y-140246549D01*
X126869062Y-140150084D01*
X126848754Y-140115835D01*
X126848752Y-140115833D01*
X126844543Y-140108734D01*
X126729939Y-139996766D01*
X126724595Y-139993324D01*
X126721428Y-139991284D01*
X126721420Y-139991279D01*
X126719558Y-139990080D01*
X124793824Y-138934305D01*
X124689596Y-138893266D01*
X124681564Y-138892308D01*
X124681563Y-138892308D01*
X124597950Y-138882338D01*
X124530502Y-138874295D01*
X124522327Y-138875473D01*
X124380092Y-138895969D01*
X124380090Y-138895970D01*
X124371919Y-138897147D01*
X124224654Y-138960265D01*
X124218163Y-138965373D01*
X124105236Y-139054237D01*
X124105234Y-139054239D01*
X124098743Y-139059347D01*
X124002767Y-139187641D01*
X123943266Y-139336404D01*
X123929500Y-139446141D01*
X123929499Y-142053855D01*
X123500000Y-142053855D01*
X123500000Y-134694655D01*
X124157376Y-134694655D01*
X124186248Y-134944186D01*
X124187625Y-134949051D01*
X124187625Y-134949053D01*
X124235502Y-135118248D01*
X124254643Y-135185891D01*
X124360803Y-135413551D01*
X124363641Y-135417727D01*
X124363645Y-135417734D01*
X124499150Y-135617123D01*
X124499153Y-135617127D01*
X124501996Y-135621310D01*
X124674589Y-135803823D01*
X124678615Y-135806901D01*
X124678616Y-135806902D01*
X124796077Y-135896707D01*
X124874143Y-135956393D01*
X125095522Y-136075096D01*
X125333032Y-136156877D01*
X125580562Y-136199633D01*
X125584521Y-136199813D01*
X125584523Y-136199813D01*
X125609247Y-136200936D01*
X125609268Y-136200936D01*
X125610667Y-136201000D01*
X125880612Y-136201000D01*
X125883120Y-136200798D01*
X125883125Y-136200798D01*
X126062844Y-136186338D01*
X126062848Y-136186337D01*
X126067886Y-136185932D01*
X126072794Y-136184726D01*
X126072797Y-136184726D01*
X126306917Y-136127221D01*
X126311831Y-136126014D01*
X126316483Y-136124039D01*
X126316487Y-136124038D01*
X126538403Y-136029840D01*
X126538404Y-136029840D01*
X126543058Y-136027864D01*
X126755618Y-135894008D01*
X126944042Y-135727889D01*
X127103484Y-135533782D01*
X127229840Y-135316680D01*
X127319861Y-135082169D01*
X127371229Y-134836282D01*
X127382624Y-134585345D01*
X127353752Y-134335814D01*
X127338522Y-134281990D01*
X127286733Y-134098972D01*
X127285357Y-134094109D01*
X127179197Y-133866449D01*
X127176359Y-133862273D01*
X127176355Y-133862266D01*
X127040850Y-133662877D01*
X127040847Y-133662873D01*
X127038004Y-133658690D01*
X126865411Y-133476177D01*
X126841204Y-133457669D01*
X126669883Y-133326685D01*
X126669882Y-133326684D01*
X126665857Y-133323607D01*
X126444478Y-133204904D01*
X126206968Y-133123123D01*
X125959438Y-133080367D01*
X125955479Y-133080187D01*
X125955477Y-133080187D01*
X125930753Y-133079064D01*
X125930732Y-133079064D01*
X125929333Y-133079000D01*
X125659388Y-133079000D01*
X125656880Y-133079202D01*
X125656875Y-133079202D01*
X125477156Y-133093662D01*
X125477152Y-133093663D01*
X125472114Y-133094068D01*
X125467206Y-133095274D01*
X125467203Y-133095274D01*
X125347112Y-133124771D01*
X125228169Y-133153986D01*
X125223517Y-133155961D01*
X125223513Y-133155962D01*
X125102578Y-133207296D01*
X124996942Y-133252136D01*
X124784382Y-133385992D01*
X124780587Y-133389338D01*
X124689664Y-133469498D01*
X124595958Y-133552111D01*
X124436516Y-133746218D01*
X124310160Y-133963320D01*
X124220139Y-134197831D01*
X124168771Y-134443718D01*
X124157376Y-134694655D01*
X123500000Y-134694655D01*
X123500000Y-128667626D01*
X123520002Y-128599505D01*
X123565426Y-128557142D01*
X123991421Y-128323592D01*
X124060768Y-128308383D01*
X124127331Y-128333081D01*
X124169974Y-128389844D01*
X124176915Y-128450523D01*
X124171062Y-128494982D01*
X124161500Y-128567615D01*
X124161501Y-130552384D01*
X124162039Y-130556469D01*
X124162039Y-130556473D01*
X124171637Y-130629381D01*
X124177162Y-130671350D01*
X124184600Y-130689306D01*
X124234260Y-130809197D01*
X124238476Y-130819376D01*
X124243502Y-130825926D01*
X124330985Y-130939934D01*
X124336013Y-130946487D01*
X124342563Y-130951513D01*
X124342566Y-130951516D01*
X124399569Y-130995256D01*
X124463125Y-131044024D01*
X124611150Y-131105338D01*
X124619338Y-131106416D01*
X124726021Y-131120461D01*
X124730115Y-131121000D01*
X125769873Y-131121000D01*
X126809884Y-131120999D01*
X126813969Y-131120461D01*
X126813973Y-131120461D01*
X126920663Y-131106416D01*
X126920665Y-131106416D01*
X126928850Y-131105338D01*
X127051073Y-131054712D01*
X127069248Y-131047184D01*
X127069250Y-131047183D01*
X127076876Y-131044024D01*
X127203987Y-130946487D01*
X127209014Y-130939936D01*
X127209016Y-130939934D01*
X127268432Y-130862501D01*
X127301524Y-130819375D01*
X127362838Y-130671350D01*
X127378500Y-130552385D01*
X127378499Y-128567616D01*
X127368938Y-128494982D01*
X127363916Y-128456837D01*
X127363916Y-128456835D01*
X127362838Y-128448650D01*
X127301524Y-128300624D01*
X127203987Y-128173513D01*
X127197437Y-128168487D01*
X127197434Y-128168484D01*
X127099522Y-128093354D01*
X127076875Y-128075976D01*
X126928850Y-128014662D01*
X126809885Y-127999000D01*
X126785349Y-127999000D01*
X125075395Y-127999001D01*
X125007275Y-127978999D01*
X124960782Y-127925343D01*
X124950678Y-127855069D01*
X124980172Y-127790489D01*
X125014822Y-127762517D01*
X125017493Y-127761052D01*
X125019558Y-127759920D01*
X125030509Y-127752807D01*
X125119049Y-127666102D01*
X125139084Y-127646482D01*
X125139085Y-127646481D01*
X125144982Y-127640706D01*
X125226541Y-127502797D01*
X125254582Y-127402366D01*
X125292166Y-127342134D01*
X125356348Y-127311783D01*
X125376613Y-127310253D01*
X141228197Y-127395888D01*
G37*
%TD.AperFunction*%
%TD*%
%TA.AperFunction,Conductor*%
%TO.N,+VDC*%
G36*
X171050702Y-101628502D02*
G01*
X171097195Y-101682158D01*
X171107299Y-101752432D01*
X171077805Y-101817012D01*
X171049726Y-101841118D01*
X171017057Y-101861691D01*
X170684549Y-102115913D01*
X170376450Y-102399224D01*
X170284946Y-102500139D01*
X170224373Y-102537165D01*
X170191607Y-102541500D01*
X156401684Y-102541500D01*
X156397836Y-102541441D01*
X156272076Y-102537598D01*
X156272069Y-102537598D01*
X156268496Y-102537489D01*
X156220934Y-102541441D01*
X156134769Y-102548600D01*
X156131480Y-102548830D01*
X156001104Y-102556234D01*
X156001100Y-102556234D01*
X155997533Y-102556437D01*
X155994008Y-102557043D01*
X155994005Y-102557043D01*
X155962756Y-102562412D01*
X155951856Y-102563799D01*
X155920353Y-102566417D01*
X155916673Y-102566723D01*
X155913169Y-102567420D01*
X155785054Y-102592904D01*
X155781810Y-102593505D01*
X155653127Y-102615616D01*
X155653119Y-102615618D01*
X155649597Y-102616223D01*
X155615704Y-102626102D01*
X155605038Y-102628711D01*
X155573928Y-102634899D01*
X155573918Y-102634901D01*
X155570422Y-102635597D01*
X155567017Y-102636687D01*
X155567013Y-102636688D01*
X155442635Y-102676501D01*
X155439482Y-102677465D01*
X155367758Y-102698371D01*
X155310666Y-102715012D01*
X155307364Y-102716397D01*
X155307363Y-102716397D01*
X155278117Y-102728661D01*
X155267804Y-102732466D01*
X155237597Y-102742135D01*
X155237591Y-102742137D01*
X155234193Y-102743225D01*
X155230935Y-102744693D01*
X155230934Y-102744693D01*
X155111840Y-102798341D01*
X155108823Y-102799652D01*
X154985097Y-102851535D01*
X154962565Y-102864153D01*
X154954310Y-102868776D01*
X154944499Y-102873721D01*
X154915572Y-102886753D01*
X154912309Y-102888223D01*
X154909239Y-102890049D01*
X154909236Y-102890051D01*
X154797008Y-102956820D01*
X154794151Y-102958470D01*
X154680193Y-103022289D01*
X154680188Y-103022292D01*
X154677076Y-103024035D01*
X154674177Y-103026122D01*
X154674166Y-103026129D01*
X154648432Y-103044655D01*
X154639239Y-103050682D01*
X154608909Y-103068727D01*
X154502038Y-103149994D01*
X154499530Y-103151850D01*
X154390562Y-103230295D01*
X154387919Y-103232696D01*
X154387915Y-103232699D01*
X154364436Y-103254026D01*
X154355986Y-103261054D01*
X154330299Y-103280587D01*
X154330293Y-103280592D01*
X154327893Y-103282417D01*
X154243349Y-103360568D01*
X154207908Y-103396009D01*
X154203532Y-103400181D01*
X154129239Y-103467664D01*
X154126888Y-103470345D01*
X154126880Y-103470353D01*
X154081949Y-103521587D01*
X154076312Y-103527605D01*
X153799321Y-103804596D01*
X153737009Y-103838622D01*
X153710226Y-103841501D01*
X153286087Y-103841501D01*
X153283581Y-103841702D01*
X153283578Y-103841702D01*
X153220326Y-103846773D01*
X153094816Y-103856834D01*
X153089997Y-103858000D01*
X153089996Y-103858000D01*
X152853542Y-103915204D01*
X152853538Y-103915205D01*
X152848732Y-103916368D01*
X152614990Y-104013665D01*
X152614972Y-104013621D01*
X152546741Y-104026564D01*
X152480908Y-103999984D01*
X152439895Y-103942031D01*
X152433086Y-103901170D01*
X152433086Y-103898930D01*
X152433474Y-103894000D01*
X152413609Y-103641597D01*
X152384798Y-103521587D01*
X152355660Y-103400221D01*
X152354505Y-103395409D01*
X152340447Y-103361470D01*
X152259511Y-103166072D01*
X152259509Y-103166068D01*
X152257616Y-103161498D01*
X152125328Y-102945624D01*
X151960898Y-102753102D01*
X151768376Y-102588672D01*
X151552502Y-102456384D01*
X151547932Y-102454491D01*
X151547928Y-102454489D01*
X151323164Y-102361389D01*
X151323162Y-102361388D01*
X151318591Y-102359495D01*
X151233968Y-102339179D01*
X151077216Y-102301546D01*
X151077210Y-102301545D01*
X151072403Y-102300391D01*
X150883199Y-102285500D01*
X150820000Y-102280526D01*
X150815070Y-102280914D01*
X150761731Y-102285112D01*
X150751845Y-102285500D01*
X148602155Y-102285500D01*
X148592269Y-102285112D01*
X148538930Y-102280914D01*
X148534000Y-102280526D01*
X148470801Y-102285500D01*
X148281597Y-102300391D01*
X148276790Y-102301545D01*
X148276784Y-102301546D01*
X148120032Y-102339179D01*
X148035409Y-102359495D01*
X148030838Y-102361388D01*
X148030836Y-102361389D01*
X147806072Y-102454489D01*
X147806068Y-102454491D01*
X147801498Y-102456384D01*
X147585624Y-102588672D01*
X147393102Y-102753102D01*
X147228672Y-102945624D01*
X147096384Y-103161498D01*
X147094491Y-103166068D01*
X147094489Y-103166072D01*
X147013553Y-103361470D01*
X146999495Y-103395409D01*
X146998340Y-103400221D01*
X146969203Y-103521587D01*
X146940391Y-103641597D01*
X146920526Y-103894000D01*
X146920914Y-103898930D01*
X146925112Y-103952269D01*
X146925500Y-103962155D01*
X146925500Y-110937845D01*
X146925112Y-110947731D01*
X146920526Y-111006000D01*
X146925500Y-111069199D01*
X146940391Y-111258403D01*
X146999495Y-111504591D01*
X147001388Y-111509162D01*
X147001389Y-111509164D01*
X147044121Y-111612327D01*
X147096384Y-111738502D01*
X147228672Y-111954376D01*
X147393102Y-112146898D01*
X147585624Y-112311328D01*
X147801498Y-112443616D01*
X147806068Y-112445509D01*
X147806072Y-112445511D01*
X148030836Y-112538611D01*
X148035409Y-112540505D01*
X148120032Y-112560821D01*
X148276784Y-112598454D01*
X148276790Y-112598455D01*
X148281597Y-112599609D01*
X148534000Y-112619474D01*
X148592269Y-112614888D01*
X148602155Y-112614500D01*
X150751845Y-112614500D01*
X150761731Y-112614888D01*
X150820000Y-112619474D01*
X150883199Y-112614500D01*
X151072403Y-112599609D01*
X151077210Y-112598455D01*
X151077216Y-112598454D01*
X151233968Y-112560821D01*
X151318591Y-112540505D01*
X151323164Y-112538611D01*
X151547928Y-112445511D01*
X151547932Y-112445509D01*
X151552502Y-112443616D01*
X151768376Y-112311328D01*
X151960898Y-112146898D01*
X152125328Y-111954376D01*
X152257616Y-111738502D01*
X152309880Y-111612327D01*
X152352611Y-111509164D01*
X152352612Y-111509162D01*
X152354505Y-111504591D01*
X152413609Y-111258403D01*
X152420204Y-111174613D01*
X152445490Y-111108272D01*
X152502628Y-111066133D01*
X152545816Y-111058500D01*
X156447366Y-111058499D01*
X156613198Y-111058499D01*
X156615644Y-111058307D01*
X156615657Y-111058306D01*
X156743977Y-111048207D01*
X156802403Y-111043609D01*
X157048591Y-110984505D01*
X157072130Y-110974755D01*
X157277928Y-110889511D01*
X157277932Y-110889509D01*
X157282502Y-110887616D01*
X157498376Y-110755328D01*
X157690898Y-110590898D01*
X157855328Y-110398376D01*
X157987616Y-110182502D01*
X158072911Y-109976583D01*
X158082611Y-109953164D01*
X158082612Y-109953162D01*
X158084505Y-109948591D01*
X158143609Y-109702403D01*
X158158500Y-109513199D01*
X158158500Y-108884500D01*
X158178502Y-108816379D01*
X158232158Y-108769886D01*
X158284500Y-108758500D01*
X170188204Y-108758500D01*
X170256325Y-108778502D01*
X170283295Y-108801834D01*
X170309089Y-108831507D01*
X170611187Y-109121208D01*
X170938298Y-109382338D01*
X171287730Y-109612745D01*
X171656606Y-109810535D01*
X171941710Y-109931554D01*
X171996600Y-109976583D01*
X172018478Y-110047538D01*
X172018478Y-123521201D01*
X171998476Y-123589322D01*
X171944820Y-123635815D01*
X171874546Y-123645919D01*
X171861783Y-123643405D01*
X171658111Y-123592246D01*
X171658100Y-123592244D01*
X171654585Y-123591361D01*
X171516091Y-123573128D01*
X171329986Y-123548626D01*
X171329978Y-123548625D01*
X171326382Y-123548152D01*
X171182399Y-123545890D01*
X170999028Y-123543009D01*
X170999025Y-123543009D01*
X170995387Y-123542952D01*
X170991772Y-123543313D01*
X170991768Y-123543313D01*
X170831321Y-123559328D01*
X170665989Y-123575831D01*
X170662452Y-123576602D01*
X170662447Y-123576603D01*
X170346097Y-123645578D01*
X170342552Y-123646351D01*
X170339125Y-123647524D01*
X170339119Y-123647526D01*
X170032796Y-123752404D01*
X170032791Y-123752406D01*
X170029365Y-123753579D01*
X170026097Y-123755138D01*
X170026089Y-123755141D01*
X169945861Y-123793408D01*
X169730577Y-123896093D01*
X169450150Y-124072005D01*
X169447314Y-124074277D01*
X169447307Y-124074282D01*
X169319947Y-124176317D01*
X169191800Y-124278982D01*
X169189257Y-124281552D01*
X169189249Y-124281559D01*
X169082966Y-124388962D01*
X168958952Y-124514282D01*
X168754691Y-124774785D01*
X168752798Y-124777874D01*
X168752796Y-124777877D01*
X168639530Y-124962712D01*
X168581726Y-125057039D01*
X168580207Y-125060311D01*
X168580204Y-125060317D01*
X168457807Y-125324000D01*
X168442348Y-125357303D01*
X168441209Y-125360746D01*
X168441205Y-125360757D01*
X168440277Y-125363564D01*
X168399897Y-125421959D01*
X168334357Y-125449252D01*
X168320650Y-125450000D01*
X155421082Y-125450000D01*
X155352961Y-125429998D01*
X155306468Y-125376342D01*
X155296364Y-125306068D01*
X155300459Y-125287583D01*
X155301397Y-125284478D01*
X155302643Y-125281072D01*
X155303488Y-125277550D01*
X155303491Y-125277542D01*
X155379075Y-124962712D01*
X155379076Y-124962708D01*
X155379922Y-124959183D01*
X155401862Y-124777877D01*
X155419355Y-124633325D01*
X155419355Y-124633318D01*
X155419691Y-124630546D01*
X155425365Y-124450000D01*
X155424326Y-124431984D01*
X155406518Y-124123134D01*
X155406517Y-124123129D01*
X155406309Y-124119514D01*
X155398415Y-124074282D01*
X155350019Y-123796981D01*
X155350017Y-123796974D01*
X155349395Y-123793408D01*
X155318229Y-123688191D01*
X155275593Y-123544257D01*
X155255376Y-123476005D01*
X155125498Y-123171512D01*
X155115227Y-123153504D01*
X154963275Y-122887104D01*
X154961484Y-122883964D01*
X154906411Y-122808990D01*
X154767650Y-122620090D01*
X154767648Y-122620087D01*
X154765507Y-122617173D01*
X154540164Y-122374676D01*
X154288443Y-122159686D01*
X154013680Y-121975053D01*
X153719516Y-121823223D01*
X153409851Y-121706211D01*
X153088790Y-121625566D01*
X152950296Y-121607333D01*
X152764191Y-121582831D01*
X152764183Y-121582830D01*
X152760587Y-121582357D01*
X152616604Y-121580095D01*
X152433233Y-121577214D01*
X152433230Y-121577214D01*
X152429592Y-121577157D01*
X152425977Y-121577518D01*
X152425973Y-121577518D01*
X152265526Y-121593533D01*
X152100194Y-121610036D01*
X152096657Y-121610807D01*
X152096652Y-121610808D01*
X151780302Y-121679783D01*
X151776757Y-121680556D01*
X151773330Y-121681729D01*
X151773324Y-121681731D01*
X151467001Y-121786609D01*
X151466996Y-121786611D01*
X151463570Y-121787784D01*
X151460302Y-121789343D01*
X151460294Y-121789346D01*
X151307976Y-121861998D01*
X151164782Y-121930298D01*
X150884355Y-122106210D01*
X150881519Y-122108482D01*
X150881512Y-122108487D01*
X150649744Y-122294169D01*
X150626005Y-122313187D01*
X150623462Y-122315757D01*
X150623454Y-122315764D01*
X150489533Y-122451096D01*
X150393157Y-122548487D01*
X150188896Y-122808990D01*
X150187003Y-122812079D01*
X150187001Y-122812082D01*
X150033178Y-123063100D01*
X150015931Y-123091244D01*
X149876553Y-123391508D01*
X149772611Y-123705801D01*
X149733344Y-123895416D01*
X149714722Y-123985337D01*
X149681322Y-124047986D01*
X149619353Y-124082633D01*
X149548490Y-124078276D01*
X149530767Y-124070271D01*
X148142225Y-123309011D01*
X147717030Y-123075900D01*
X147676202Y-123056111D01*
X147436526Y-122974518D01*
X147431650Y-122973676D01*
X147431647Y-122973675D01*
X147191921Y-122932267D01*
X147191916Y-122932266D01*
X147187038Y-122931424D01*
X146976413Y-122928483D01*
X146938822Y-122927958D01*
X146933879Y-122927889D01*
X146928988Y-122928594D01*
X146928985Y-122928594D01*
X146688182Y-122963294D01*
X146688180Y-122963295D01*
X146683284Y-122964000D01*
X146649306Y-122974518D01*
X146446148Y-123037406D01*
X146446144Y-123037408D01*
X146441423Y-123038869D01*
X146214252Y-123150651D01*
X146210211Y-123153502D01*
X146210207Y-123153504D01*
X146011409Y-123293741D01*
X146007365Y-123296594D01*
X145825855Y-123473104D01*
X145674192Y-123675836D01*
X145671884Y-123680213D01*
X145671883Y-123680215D01*
X145661489Y-123699929D01*
X145556111Y-123899798D01*
X145474518Y-124139474D01*
X145473676Y-124144350D01*
X145473675Y-124144353D01*
X145454375Y-124256091D01*
X145431424Y-124388962D01*
X145429500Y-124430532D01*
X145429500Y-125324000D01*
X145409498Y-125392121D01*
X145355842Y-125438614D01*
X145303500Y-125450000D01*
X127828243Y-125450000D01*
X127760122Y-125429998D01*
X127713629Y-125376342D01*
X127703525Y-125306068D01*
X127736393Y-125237747D01*
X127791975Y-125178558D01*
X127791976Y-125178557D01*
X127794686Y-125175671D01*
X127984099Y-124914966D01*
X128026946Y-124837028D01*
X128137441Y-124636039D01*
X128137443Y-124636036D01*
X128139344Y-124632577D01*
X128235798Y-124388962D01*
X128256514Y-124336640D01*
X128256515Y-124336637D01*
X128257972Y-124332957D01*
X128258956Y-124329123D01*
X128258959Y-124329115D01*
X128325470Y-124070070D01*
X128338112Y-124020832D01*
X128378500Y-123701124D01*
X128378500Y-123378876D01*
X128338112Y-123059168D01*
X128292379Y-122881049D01*
X128258959Y-122750885D01*
X128258956Y-122750877D01*
X128257972Y-122747043D01*
X128139344Y-122447423D01*
X127984099Y-122165034D01*
X127794686Y-121904329D01*
X127574092Y-121669420D01*
X127325795Y-121464011D01*
X127053711Y-121291341D01*
X126959911Y-121247202D01*
X126906791Y-121200101D01*
X126887568Y-121131756D01*
X126908347Y-121063868D01*
X126962530Y-121017991D01*
X127003674Y-121007583D01*
X127007075Y-121007315D01*
X127022403Y-121006109D01*
X127268591Y-120947005D01*
X127273164Y-120945111D01*
X127497928Y-120852011D01*
X127497932Y-120852009D01*
X127502502Y-120850116D01*
X127718376Y-120717828D01*
X127910898Y-120553398D01*
X128075328Y-120360876D01*
X128207616Y-120145002D01*
X128304505Y-119911091D01*
X128363609Y-119664903D01*
X128378500Y-119475699D01*
X128378499Y-117444302D01*
X128378306Y-117441845D01*
X128378306Y-117441843D01*
X128363997Y-117260030D01*
X128363609Y-117255097D01*
X128304505Y-117008909D01*
X128207616Y-116774998D01*
X128075328Y-116559124D01*
X127910898Y-116366602D01*
X127718376Y-116202172D01*
X127502502Y-116069884D01*
X127497932Y-116067991D01*
X127497928Y-116067989D01*
X127273164Y-115974889D01*
X127273162Y-115974888D01*
X127268591Y-115972995D01*
X127183968Y-115952679D01*
X127027216Y-115915046D01*
X127027210Y-115915045D01*
X127022403Y-115913891D01*
X126922584Y-115906035D01*
X126835655Y-115899193D01*
X126835648Y-115899193D01*
X126833199Y-115899000D01*
X125770431Y-115899000D01*
X124706802Y-115899001D01*
X124704356Y-115899193D01*
X124704343Y-115899194D01*
X124576023Y-115909293D01*
X124517597Y-115913891D01*
X124271409Y-115972995D01*
X124266838Y-115974888D01*
X124266836Y-115974889D01*
X124042072Y-116067989D01*
X124042068Y-116067991D01*
X124037498Y-116069884D01*
X123821624Y-116202172D01*
X123629102Y-116366602D01*
X123464672Y-116559124D01*
X123332384Y-116774998D01*
X123235495Y-117008909D01*
X123176391Y-117255097D01*
X123161500Y-117444301D01*
X123161501Y-119475698D01*
X123161693Y-119478144D01*
X123161694Y-119478157D01*
X123171793Y-119606477D01*
X123176391Y-119664903D01*
X123235495Y-119911091D01*
X123332384Y-120145002D01*
X123464672Y-120360876D01*
X123629102Y-120553398D01*
X123821624Y-120717828D01*
X124037498Y-120850116D01*
X124042068Y-120852009D01*
X124042072Y-120852011D01*
X124266836Y-120945111D01*
X124271409Y-120947005D01*
X124356032Y-120967321D01*
X124512784Y-121004954D01*
X124512790Y-121004955D01*
X124517597Y-121006109D01*
X124534718Y-121007456D01*
X124536325Y-121007583D01*
X124602667Y-121032869D01*
X124644806Y-121090007D01*
X124649365Y-121160857D01*
X124614896Y-121222925D01*
X124580087Y-121247203D01*
X124489875Y-121289653D01*
X124489868Y-121289657D01*
X124486289Y-121291341D01*
X124214205Y-121464011D01*
X123965908Y-121669420D01*
X123745314Y-121904329D01*
X123555901Y-122165034D01*
X123400656Y-122447423D01*
X123282028Y-122747043D01*
X123281044Y-122750877D01*
X123281041Y-122750885D01*
X123247621Y-122881049D01*
X123201888Y-123059168D01*
X123161500Y-123378876D01*
X123161500Y-123701124D01*
X123186130Y-123896093D01*
X123199622Y-124002894D01*
X123188316Y-124072985D01*
X123140910Y-124125836D01*
X123072457Y-124144667D01*
X123053170Y-124142847D01*
X122987038Y-124131424D01*
X122979466Y-124131318D01*
X122974238Y-124131245D01*
X122906404Y-124110292D01*
X122860666Y-124055991D01*
X122850000Y-124005257D01*
X122850000Y-106090532D01*
X126819500Y-106090532D01*
X126819501Y-108829476D01*
X126821775Y-108874782D01*
X126865451Y-109124170D01*
X126867056Y-109128848D01*
X126867057Y-109128853D01*
X126926325Y-109301629D01*
X126947602Y-109363655D01*
X127066205Y-109587340D01*
X127069174Y-109591290D01*
X127069175Y-109591291D01*
X127126851Y-109668014D01*
X127218340Y-109789718D01*
X127221898Y-109793161D01*
X127221898Y-109793162D01*
X127239847Y-109810535D01*
X127400261Y-109965806D01*
X127404312Y-109968650D01*
X127404315Y-109968652D01*
X127603430Y-110108418D01*
X127603434Y-110108420D01*
X127607488Y-110111266D01*
X127713547Y-110163147D01*
X127830472Y-110220343D01*
X127830476Y-110220344D01*
X127834919Y-110222518D01*
X128076954Y-110296823D01*
X128202293Y-110314587D01*
X128322726Y-110331655D01*
X128322730Y-110331655D01*
X128327632Y-110332350D01*
X128450722Y-110330344D01*
X128575829Y-110328306D01*
X128575833Y-110328306D01*
X128580782Y-110328225D01*
X128585656Y-110327371D01*
X128585660Y-110327371D01*
X128678224Y-110311160D01*
X128830170Y-110284549D01*
X128834848Y-110282944D01*
X128834853Y-110282943D01*
X129065929Y-110203676D01*
X129069655Y-110202398D01*
X129107025Y-110184104D01*
X129245077Y-110108418D01*
X131084885Y-109099751D01*
X131086864Y-109098666D01*
X131088748Y-109097450D01*
X131088757Y-109097445D01*
X131216808Y-109014822D01*
X131216815Y-109014817D01*
X131220762Y-109012270D01*
X131410678Y-108844837D01*
X131424703Y-108827884D01*
X131568908Y-108653570D01*
X131568909Y-108653568D01*
X131572063Y-108649756D01*
X131700944Y-108431830D01*
X131702764Y-108427233D01*
X131702767Y-108427227D01*
X131792324Y-108201030D01*
X131794147Y-108196426D01*
X131849377Y-107949340D01*
X131860500Y-107792248D01*
X131860501Y-107127750D01*
X131849113Y-106968807D01*
X131793596Y-106721785D01*
X131700120Y-106486489D01*
X131690183Y-106469730D01*
X131573510Y-106272967D01*
X131573507Y-106272962D01*
X131570987Y-106268713D01*
X131422028Y-106089076D01*
X131412533Y-106077626D01*
X131412532Y-106077625D01*
X131409376Y-106073819D01*
X131405664Y-106070554D01*
X131405660Y-106070550D01*
X131222796Y-105909712D01*
X131219266Y-105906607D01*
X131086865Y-105821334D01*
X129107030Y-104735900D01*
X129066202Y-104716111D01*
X128826526Y-104634518D01*
X128821650Y-104633676D01*
X128821647Y-104633675D01*
X128581921Y-104592267D01*
X128581916Y-104592266D01*
X128577038Y-104591424D01*
X128366413Y-104588483D01*
X128328822Y-104587958D01*
X128323879Y-104587889D01*
X128318988Y-104588594D01*
X128318985Y-104588594D01*
X128078182Y-104623294D01*
X128078180Y-104623295D01*
X128073284Y-104624000D01*
X128039306Y-104634518D01*
X127836148Y-104697406D01*
X127836144Y-104697408D01*
X127831423Y-104698869D01*
X127604252Y-104810651D01*
X127600211Y-104813502D01*
X127600207Y-104813504D01*
X127401409Y-104953741D01*
X127397365Y-104956594D01*
X127215855Y-105133104D01*
X127064192Y-105335836D01*
X126946111Y-105559798D01*
X126944516Y-105564482D01*
X126944516Y-105564483D01*
X126914231Y-105653443D01*
X126864518Y-105799474D01*
X126863676Y-105804350D01*
X126863675Y-105804353D01*
X126852790Y-105867371D01*
X126821424Y-106048962D01*
X126821242Y-106052897D01*
X126820274Y-106073819D01*
X126819500Y-106090532D01*
X122850000Y-106090532D01*
X122850000Y-105599126D01*
X122870002Y-105531005D01*
X122923658Y-105484512D01*
X122993932Y-105474408D01*
X123056259Y-105501995D01*
X123056702Y-105502361D01*
X123060261Y-105505806D01*
X123064312Y-105508650D01*
X123064315Y-105508652D01*
X123263430Y-105648418D01*
X123263434Y-105648420D01*
X123267488Y-105651266D01*
X123373547Y-105703147D01*
X123490472Y-105760343D01*
X123490476Y-105760344D01*
X123494919Y-105762518D01*
X123736954Y-105836823D01*
X123862293Y-105854586D01*
X123982726Y-105871655D01*
X123982730Y-105871655D01*
X123987632Y-105872350D01*
X124110722Y-105870344D01*
X124235829Y-105868306D01*
X124235833Y-105868306D01*
X124240782Y-105868225D01*
X124245656Y-105867371D01*
X124245660Y-105867371D01*
X124338224Y-105851160D01*
X124490170Y-105824549D01*
X124494848Y-105822944D01*
X124494853Y-105822943D01*
X124677342Y-105760343D01*
X124729655Y-105742398D01*
X124767025Y-105724104D01*
X124905077Y-105648418D01*
X126744885Y-104639751D01*
X126746864Y-104638666D01*
X126748748Y-104637450D01*
X126748757Y-104637445D01*
X126876808Y-104554822D01*
X126876815Y-104554817D01*
X126880762Y-104552270D01*
X127070678Y-104384837D01*
X127232063Y-104189756D01*
X127360944Y-103971830D01*
X127362764Y-103967233D01*
X127362767Y-103967227D01*
X127452324Y-103741030D01*
X127454147Y-103736426D01*
X127509377Y-103489340D01*
X127520500Y-103332248D01*
X127520501Y-102667750D01*
X127509113Y-102508807D01*
X127507165Y-102500137D01*
X127454682Y-102266616D01*
X127454681Y-102266613D01*
X127453596Y-102261785D01*
X127360120Y-102026489D01*
X127262401Y-101861691D01*
X127233510Y-101812967D01*
X127233507Y-101812962D01*
X127230987Y-101808713D01*
X127229164Y-101806514D01*
X127206472Y-101739855D01*
X127223560Y-101670946D01*
X127275192Y-101622215D01*
X127332358Y-101608500D01*
X170982581Y-101608500D01*
X171050702Y-101628502D01*
G37*
%TD.AperFunction*%
%TD*%
%TA.AperFunction,Conductor*%
%TO.N,GND*%
G36*
X112561072Y-100750219D02*
G01*
X112902553Y-100770357D01*
X112917277Y-100772100D01*
X113034532Y-100793038D01*
X113250385Y-100831585D01*
X113264811Y-100835049D01*
X113588595Y-100933268D01*
X113602513Y-100938402D01*
X113912527Y-101074004D01*
X113925746Y-101080740D01*
X114217659Y-101251834D01*
X114229994Y-101260076D01*
X114499774Y-101464294D01*
X114511055Y-101473928D01*
X114754972Y-101708449D01*
X114765040Y-101719341D01*
X114979703Y-101980908D01*
X114988419Y-101992906D01*
X115170839Y-102277875D01*
X115178088Y-102290818D01*
X115191994Y-102319487D01*
X115325754Y-102595261D01*
X115331432Y-102608968D01*
X115442290Y-102928657D01*
X115446317Y-102942935D01*
X115518833Y-103273446D01*
X115521153Y-103288099D01*
X115554317Y-103624821D01*
X115554900Y-103639645D01*
X115548257Y-103977949D01*
X115547093Y-103992736D01*
X115520848Y-104182487D01*
X115500734Y-104327907D01*
X115497841Y-104342451D01*
X115432254Y-104593798D01*
X115412404Y-104669867D01*
X115407819Y-104683976D01*
X115284498Y-104999058D01*
X115278287Y-105012531D01*
X115118784Y-105310941D01*
X115111035Y-105323587D01*
X114983963Y-105505910D01*
X114917559Y-105601186D01*
X114908374Y-105612837D01*
X114681137Y-105868555D01*
X114676046Y-105873954D01*
X108450000Y-112100000D01*
X108450000Y-118731500D01*
X108429998Y-118799621D01*
X108376342Y-118846114D01*
X108324000Y-118857500D01*
X107992623Y-118857500D01*
X107991853Y-118857498D01*
X107991037Y-118857493D01*
X107914279Y-118857024D01*
X107891918Y-118863415D01*
X107885847Y-118865150D01*
X107869085Y-118868728D01*
X107839813Y-118872920D01*
X107831645Y-118876634D01*
X107831644Y-118876634D01*
X107816438Y-118883548D01*
X107798914Y-118889996D01*
X107774229Y-118897051D01*
X107766635Y-118901843D01*
X107766632Y-118901844D01*
X107749220Y-118912830D01*
X107734137Y-118920969D01*
X107707218Y-118933208D01*
X107700416Y-118939069D01*
X107687765Y-118949970D01*
X107672761Y-118961073D01*
X107651042Y-118974776D01*
X107645103Y-118981501D01*
X107645099Y-118981504D01*
X107631468Y-118996938D01*
X107619276Y-119008982D01*
X107603673Y-119022427D01*
X107603671Y-119022430D01*
X107596873Y-119028287D01*
X107591993Y-119035816D01*
X107591992Y-119035817D01*
X107582906Y-119049835D01*
X107571615Y-119064709D01*
X107560569Y-119077217D01*
X107554622Y-119083951D01*
X107542058Y-119110711D01*
X107533737Y-119125691D01*
X107522529Y-119142983D01*
X107522527Y-119142988D01*
X107517648Y-119150515D01*
X107515078Y-119159108D01*
X107515076Y-119159113D01*
X107510289Y-119175120D01*
X107503628Y-119192564D01*
X107492719Y-119215800D01*
X107488326Y-119244016D01*
X107488170Y-119245015D01*
X107484387Y-119261732D01*
X107478485Y-119281466D01*
X107478484Y-119281472D01*
X107475914Y-119290066D01*
X107475859Y-119299037D01*
X107475859Y-119299038D01*
X107475704Y-119324497D01*
X107475671Y-119325289D01*
X107475500Y-119326386D01*
X107475500Y-119357377D01*
X107475498Y-119358147D01*
X107475024Y-119435721D01*
X107475408Y-119437065D01*
X107475500Y-119438410D01*
X107475500Y-130025377D01*
X107475498Y-130026147D01*
X107475024Y-130103721D01*
X107477491Y-130112352D01*
X107483150Y-130132153D01*
X107486728Y-130148915D01*
X107490920Y-130178187D01*
X107494634Y-130186355D01*
X107494634Y-130186356D01*
X107501548Y-130201562D01*
X107507996Y-130219086D01*
X107515051Y-130243771D01*
X107519843Y-130251365D01*
X107519844Y-130251368D01*
X107530830Y-130268780D01*
X107538969Y-130283863D01*
X107551208Y-130310782D01*
X107557069Y-130317584D01*
X107567970Y-130330235D01*
X107579073Y-130345239D01*
X107592776Y-130366958D01*
X107599501Y-130372897D01*
X107599504Y-130372901D01*
X107614938Y-130386532D01*
X107626982Y-130398724D01*
X107640427Y-130414327D01*
X107640430Y-130414329D01*
X107646287Y-130421127D01*
X107653816Y-130426007D01*
X107653817Y-130426008D01*
X107667835Y-130435094D01*
X107682709Y-130446385D01*
X107695217Y-130457431D01*
X107701951Y-130463378D01*
X107728711Y-130475942D01*
X107743691Y-130484263D01*
X107760983Y-130495471D01*
X107760988Y-130495473D01*
X107768515Y-130500352D01*
X107777108Y-130502922D01*
X107777113Y-130502924D01*
X107793120Y-130507711D01*
X107810564Y-130514372D01*
X107825676Y-130521467D01*
X107825678Y-130521468D01*
X107833800Y-130525281D01*
X107842667Y-130526662D01*
X107842668Y-130526662D01*
X107845353Y-130527080D01*
X107863017Y-130529830D01*
X107879732Y-130533613D01*
X107899466Y-130539515D01*
X107899472Y-130539516D01*
X107908066Y-130542086D01*
X107917037Y-130542141D01*
X107917038Y-130542141D01*
X107927097Y-130542202D01*
X107942506Y-130542296D01*
X107943289Y-130542329D01*
X107944386Y-130542500D01*
X107975377Y-130542500D01*
X107976147Y-130542502D01*
X108049785Y-130542952D01*
X108049786Y-130542952D01*
X108053721Y-130542976D01*
X108055065Y-130542592D01*
X108056410Y-130542500D01*
X108324000Y-130542500D01*
X108392121Y-130562502D01*
X108438614Y-130616158D01*
X108450000Y-130668500D01*
X108450000Y-131296461D01*
X108449802Y-131303526D01*
X108431534Y-131628828D01*
X108429953Y-131642864D01*
X108407593Y-131774462D01*
X108375969Y-131960587D01*
X108372825Y-131974362D01*
X108283606Y-132284047D01*
X108278945Y-132297368D01*
X108155615Y-132595114D01*
X108149484Y-132607845D01*
X107993594Y-132889906D01*
X107986076Y-132901870D01*
X107799591Y-133164694D01*
X107790782Y-133175740D01*
X107576035Y-133416043D01*
X107566043Y-133426035D01*
X107325740Y-133640782D01*
X107314694Y-133649591D01*
X107051870Y-133836076D01*
X107039906Y-133843594D01*
X106757841Y-133999486D01*
X106745118Y-134005613D01*
X106447368Y-134128945D01*
X106434047Y-134133606D01*
X106220228Y-134195207D01*
X106124362Y-134222825D01*
X106110587Y-134225969D01*
X105951728Y-134252961D01*
X105792864Y-134279953D01*
X105778832Y-134281534D01*
X105453526Y-134299802D01*
X105446461Y-134300000D01*
X103953539Y-134300000D01*
X103946474Y-134299802D01*
X103621168Y-134281534D01*
X103607136Y-134279953D01*
X103448272Y-134252961D01*
X103289413Y-134225969D01*
X103275638Y-134222825D01*
X103179772Y-134195207D01*
X102965953Y-134133606D01*
X102952632Y-134128945D01*
X102654882Y-134005613D01*
X102642156Y-133999484D01*
X102360101Y-133843598D01*
X102348136Y-133836080D01*
X102333383Y-133825612D01*
X102289401Y-133769879D01*
X102282533Y-133699216D01*
X102314959Y-133636056D01*
X102345723Y-133612367D01*
X103189532Y-133149752D01*
X103189537Y-133149749D01*
X103193006Y-133147847D01*
X103196211Y-133145524D01*
X103196216Y-133145521D01*
X103256189Y-133102055D01*
X103263018Y-133097106D01*
X103354188Y-132983509D01*
X103409811Y-132848891D01*
X103420500Y-132763683D01*
X103420499Y-132156313D01*
X103409664Y-132070532D01*
X103353885Y-131935978D01*
X103262583Y-131822488D01*
X103193009Y-131772155D01*
X102931581Y-131628828D01*
X101284655Y-130725909D01*
X101282074Y-130724494D01*
X101279368Y-130723325D01*
X101255187Y-130712879D01*
X101255182Y-130712878D01*
X101248456Y-130709972D01*
X101241241Y-130708693D01*
X101241240Y-130708693D01*
X101113871Y-130686119D01*
X101113868Y-130686119D01*
X101105033Y-130684553D01*
X101096111Y-130685530D01*
X101096105Y-130685530D01*
X101089715Y-130686230D01*
X101019822Y-130673762D01*
X100967765Y-130625486D01*
X100950000Y-130560979D01*
X100950000Y-125604006D01*
X100970002Y-125535885D01*
X101023658Y-125489392D01*
X101093932Y-125479288D01*
X101124218Y-125487597D01*
X101155014Y-125500353D01*
X101197445Y-125508793D01*
X101209700Y-125510000D01*
X101563885Y-125510000D01*
X101579124Y-125505525D01*
X101580329Y-125504135D01*
X101582000Y-125496452D01*
X101582000Y-125491884D01*
X102390000Y-125491884D01*
X102394475Y-125507123D01*
X102395865Y-125508328D01*
X102403548Y-125509999D01*
X102762298Y-125509999D01*
X102774558Y-125508791D01*
X102816983Y-125500353D01*
X102839479Y-125491036D01*
X102887644Y-125458853D01*
X102904853Y-125441644D01*
X102937037Y-125393477D01*
X102946353Y-125370986D01*
X102954793Y-125328555D01*
X102956000Y-125316300D01*
X102956000Y-124962115D01*
X102951525Y-124946876D01*
X102950135Y-124945671D01*
X102942452Y-124944000D01*
X102408115Y-124944000D01*
X102392876Y-124948475D01*
X102391671Y-124949865D01*
X102390000Y-124957548D01*
X102390000Y-125491884D01*
X101582000Y-125491884D01*
X101582000Y-124117885D01*
X102390000Y-124117885D01*
X102394475Y-124133124D01*
X102395865Y-124134329D01*
X102403548Y-124136000D01*
X102937884Y-124136000D01*
X102953123Y-124131525D01*
X102954328Y-124130135D01*
X102955999Y-124122452D01*
X102955999Y-123763702D01*
X102954791Y-123751442D01*
X102946353Y-123709017D01*
X102937036Y-123686521D01*
X102904853Y-123638356D01*
X102887644Y-123621147D01*
X102839477Y-123588963D01*
X102816986Y-123579647D01*
X102774555Y-123571207D01*
X102762300Y-123570000D01*
X102408115Y-123570000D01*
X102392876Y-123574475D01*
X102391671Y-123575865D01*
X102390000Y-123583548D01*
X102390000Y-124117885D01*
X101582000Y-124117885D01*
X101582000Y-123588116D01*
X101577525Y-123572877D01*
X101576135Y-123571672D01*
X101568452Y-123570001D01*
X101209702Y-123570001D01*
X101197442Y-123571209D01*
X101155017Y-123579647D01*
X101124216Y-123592404D01*
X101053626Y-123599992D01*
X100990140Y-123568211D01*
X100953913Y-123507152D01*
X100950000Y-123475994D01*
X100950000Y-123064948D01*
X100970002Y-122996827D01*
X101023658Y-122950334D01*
X101093932Y-122940230D01*
X101158512Y-122969724D01*
X101160240Y-122971333D01*
X101162322Y-122973080D01*
X101166219Y-122976977D01*
X101170727Y-122980134D01*
X101170730Y-122980136D01*
X101246495Y-123033187D01*
X101348323Y-123104488D01*
X101353305Y-123106811D01*
X101353310Y-123106814D01*
X101544822Y-123196117D01*
X101549804Y-123198440D01*
X101555112Y-123199862D01*
X101555114Y-123199863D01*
X101620949Y-123217503D01*
X101764537Y-123255978D01*
X101986000Y-123275353D01*
X102207463Y-123255978D01*
X102351051Y-123217503D01*
X102416886Y-123199863D01*
X102416888Y-123199862D01*
X102422196Y-123198440D01*
X102427178Y-123196117D01*
X102618690Y-123106814D01*
X102618695Y-123106811D01*
X102623677Y-123104488D01*
X102725505Y-123033187D01*
X102801270Y-122980136D01*
X102801273Y-122980134D01*
X102805781Y-122976977D01*
X102962977Y-122819781D01*
X103090488Y-122637676D01*
X103092811Y-122632694D01*
X103092814Y-122632689D01*
X103182117Y-122441178D01*
X103182118Y-122441177D01*
X103184440Y-122436196D01*
X103241978Y-122221463D01*
X103261353Y-122000000D01*
X103241978Y-121778537D01*
X103184440Y-121563804D01*
X103182117Y-121558822D01*
X103092814Y-121367311D01*
X103092811Y-121367306D01*
X103090488Y-121362324D01*
X102962977Y-121180219D01*
X102805781Y-121023023D01*
X102801273Y-121019866D01*
X102801270Y-121019864D01*
X102692983Y-120944041D01*
X102623677Y-120895512D01*
X102618695Y-120893189D01*
X102618690Y-120893186D01*
X102513627Y-120844195D01*
X102460342Y-120797278D01*
X102440881Y-120729001D01*
X102461423Y-120661041D01*
X102513627Y-120615805D01*
X102618690Y-120566814D01*
X102618695Y-120566811D01*
X102623677Y-120564488D01*
X102725505Y-120493187D01*
X102801270Y-120440136D01*
X102801273Y-120440134D01*
X102805781Y-120436977D01*
X102962977Y-120279781D01*
X103090488Y-120097676D01*
X103092811Y-120092694D01*
X103092814Y-120092689D01*
X103182117Y-119901178D01*
X103182118Y-119901177D01*
X103184440Y-119896196D01*
X103190254Y-119874500D01*
X103240554Y-119686776D01*
X103241978Y-119681463D01*
X103261353Y-119460000D01*
X103241978Y-119238537D01*
X103201968Y-119089218D01*
X103185863Y-119029114D01*
X103185862Y-119029112D01*
X103184440Y-119023804D01*
X103182117Y-119018822D01*
X103092814Y-118827311D01*
X103092811Y-118827306D01*
X103090488Y-118822324D01*
X103074591Y-118799621D01*
X102966136Y-118644730D01*
X102966134Y-118644727D01*
X102962977Y-118640219D01*
X102805781Y-118483023D01*
X102801273Y-118479866D01*
X102801270Y-118479864D01*
X102692983Y-118404041D01*
X102623677Y-118355512D01*
X102618695Y-118353189D01*
X102618690Y-118353186D01*
X102513627Y-118304195D01*
X102460342Y-118257278D01*
X102440881Y-118189001D01*
X102461423Y-118121041D01*
X102513627Y-118075805D01*
X102618690Y-118026814D01*
X102618695Y-118026811D01*
X102623677Y-118024488D01*
X102725505Y-117953187D01*
X102801270Y-117900136D01*
X102801273Y-117900134D01*
X102805781Y-117896977D01*
X102962977Y-117739781D01*
X103090488Y-117557676D01*
X103092811Y-117552694D01*
X103092814Y-117552689D01*
X103182117Y-117361178D01*
X103182118Y-117361177D01*
X103184440Y-117356196D01*
X103241978Y-117141463D01*
X103261353Y-116920000D01*
X103241978Y-116698537D01*
X103184440Y-116483804D01*
X103182117Y-116478822D01*
X103092814Y-116287311D01*
X103092811Y-116287306D01*
X103090488Y-116282324D01*
X102962977Y-116100219D01*
X102805781Y-115943023D01*
X102801273Y-115939866D01*
X102801270Y-115939864D01*
X102692983Y-115864041D01*
X102623677Y-115815512D01*
X102618695Y-115813189D01*
X102618690Y-115813186D01*
X102513627Y-115764195D01*
X102460342Y-115717278D01*
X102440881Y-115649001D01*
X102461423Y-115581041D01*
X102513627Y-115535805D01*
X102618690Y-115486814D01*
X102618695Y-115486811D01*
X102623677Y-115484488D01*
X102725505Y-115413187D01*
X102801270Y-115360136D01*
X102801273Y-115360134D01*
X102805781Y-115356977D01*
X102962977Y-115199781D01*
X103090488Y-115017676D01*
X103092811Y-115012694D01*
X103092814Y-115012689D01*
X103182117Y-114821178D01*
X103182118Y-114821177D01*
X103184440Y-114816196D01*
X103241978Y-114601463D01*
X103261353Y-114380000D01*
X103241978Y-114158537D01*
X103184440Y-113943804D01*
X103182117Y-113938822D01*
X103092814Y-113747311D01*
X103092811Y-113747306D01*
X103090488Y-113742324D01*
X102962977Y-113560219D01*
X102805781Y-113403023D01*
X102801273Y-113399866D01*
X102801270Y-113399864D01*
X102692983Y-113324041D01*
X102623677Y-113275512D01*
X102618695Y-113273189D01*
X102618690Y-113273186D01*
X102427178Y-113183883D01*
X102427177Y-113183882D01*
X102422196Y-113181560D01*
X102416888Y-113180138D01*
X102416886Y-113180137D01*
X102351051Y-113162497D01*
X102207463Y-113124022D01*
X101986000Y-113104647D01*
X101764537Y-113124022D01*
X101620949Y-113162497D01*
X101555114Y-113180137D01*
X101555112Y-113180138D01*
X101549804Y-113181560D01*
X101544823Y-113183882D01*
X101544822Y-113183883D01*
X101353311Y-113273186D01*
X101353306Y-113273189D01*
X101348324Y-113275512D01*
X101343817Y-113278668D01*
X101343815Y-113278669D01*
X101170730Y-113399864D01*
X101170727Y-113399866D01*
X101166219Y-113403023D01*
X101162323Y-113406919D01*
X101158119Y-113410447D01*
X101156686Y-113408739D01*
X101102783Y-113438173D01*
X101031968Y-113433108D01*
X100975132Y-113390561D01*
X100950321Y-113324041D01*
X100950000Y-113315052D01*
X100950000Y-107469580D01*
X100970002Y-107401459D01*
X101023658Y-107354966D01*
X101093932Y-107344862D01*
X101158512Y-107374356D01*
X101184453Y-107405440D01*
X101223418Y-107471326D01*
X101462944Y-107803436D01*
X101731584Y-108112471D01*
X102027126Y-108395886D01*
X102029344Y-108397656D01*
X102029349Y-108397661D01*
X102187132Y-108523617D01*
X102347139Y-108651349D01*
X102349520Y-108652919D01*
X102639482Y-108844113D01*
X102688989Y-108876757D01*
X102691519Y-108878113D01*
X102691518Y-108878113D01*
X102998340Y-109042630D01*
X103049860Y-109070255D01*
X103426784Y-109230250D01*
X103429522Y-109231129D01*
X103813931Y-109354549D01*
X103813935Y-109354550D01*
X103816657Y-109355424D01*
X103819447Y-109356048D01*
X103819452Y-109356049D01*
X104213477Y-109444125D01*
X104213488Y-109444127D01*
X104216271Y-109444749D01*
X104622335Y-109497487D01*
X105031509Y-109513206D01*
X105034371Y-109513056D01*
X105034372Y-109513056D01*
X105437566Y-109491926D01*
X105437573Y-109491925D01*
X105440422Y-109491776D01*
X105443245Y-109491369D01*
X105443247Y-109491369D01*
X105842889Y-109433780D01*
X105842896Y-109433779D01*
X105845711Y-109433373D01*
X106244038Y-109338478D01*
X106246736Y-109337570D01*
X106246743Y-109337568D01*
X106629414Y-109208785D01*
X106629420Y-109208783D01*
X106632126Y-109207872D01*
X107006779Y-109042630D01*
X107364914Y-108844113D01*
X107703583Y-108613954D01*
X108019998Y-108354047D01*
X108022036Y-108352038D01*
X108022043Y-108352031D01*
X108267161Y-108110311D01*
X108311555Y-108066533D01*
X108317261Y-108059781D01*
X108574008Y-107755963D01*
X108574013Y-107755957D01*
X108575854Y-107753778D01*
X108810719Y-107418356D01*
X109014217Y-107063027D01*
X109015401Y-107060441D01*
X109183485Y-106693316D01*
X109183488Y-106693307D01*
X109184674Y-106690718D01*
X109320685Y-106304492D01*
X109421133Y-105907528D01*
X109485189Y-105503095D01*
X109512326Y-105094520D01*
X109513316Y-105000000D01*
X109494741Y-104590947D01*
X109439169Y-104185260D01*
X109347057Y-103786280D01*
X109219164Y-103397290D01*
X109056542Y-103021492D01*
X108860529Y-102661980D01*
X108780190Y-102541971D01*
X108634332Y-102324090D01*
X108634324Y-102324079D01*
X108632740Y-102321713D01*
X108375049Y-102003491D01*
X108196382Y-101819763D01*
X108091567Y-101711980D01*
X108091563Y-101711976D01*
X108089577Y-101709934D01*
X108087419Y-101708084D01*
X108087409Y-101708075D01*
X107780849Y-101445321D01*
X107780844Y-101445317D01*
X107778675Y-101443458D01*
X107776344Y-101441801D01*
X107776337Y-101441796D01*
X107615967Y-101327828D01*
X107444900Y-101206257D01*
X107220572Y-101075695D01*
X107093474Y-101001722D01*
X107093469Y-101001719D01*
X107091001Y-101000283D01*
X107088412Y-100999076D01*
X107088401Y-100999070D01*
X107069368Y-100990195D01*
X107016082Y-100943278D01*
X106996621Y-100875001D01*
X107017163Y-100807041D01*
X107071185Y-100760975D01*
X107122617Y-100750000D01*
X112553655Y-100750000D01*
X112561072Y-100750219D01*
G37*
%TD.AperFunction*%
%TD*%
M02*
