%TF.GenerationSoftware,KiCad,Pcbnew,6.0.4*%
%TF.CreationDate,2022-07-27T16:30:25-04:00*%
%TF.ProjectId,verter,76657274-6572-42e6-9b69-6361645f7063,rev?*%
%TF.SameCoordinates,Original*%
%TF.FileFunction,Profile,NP*%
%FSLAX46Y46*%
G04 Gerber Fmt 4.6, Leading zero omitted, Abs format (unit mm)*
G04 Created by KiCad (PCBNEW 6.0.4) date 2022-07-27 16:30:25*
%MOMM*%
%LPD*%
G01*
G04 APERTURE LIST*
%TA.AperFunction,Profile*%
%ADD10C,0.100000*%
%TD*%
%TA.AperFunction,Profile*%
%ADD11C,0.120000*%
%TD*%
G04 APERTURE END LIST*
D10*
X190000000Y-101500000D02*
G75*
G03*
X188500000Y-100000000I-1500000J0D01*
G01*
X101500000Y-100000000D02*
G75*
G03*
X100000000Y-101500000I0J-1500000D01*
G01*
X188500000Y-100000000D02*
X101500000Y-100000000D01*
X101550000Y-150000000D02*
X188500000Y-150000000D01*
X188500000Y-150000000D02*
G75*
G03*
X190000000Y-148500000I0J1500000D01*
G01*
X100000000Y-148500000D02*
G75*
G03*
X101500000Y-150000000I1500000J0D01*
G01*
X190000000Y-148500000D02*
X190000000Y-101500000D01*
X100000000Y-101500000D02*
X100000000Y-148500000D01*
D11*
%TO.C,C6*%
X148534000Y-103894000D02*
X150820000Y-103894000D01*
X148534000Y-111006000D02*
X148534000Y-103894000D01*
X150820000Y-103894000D02*
X150820000Y-111006000D01*
X150820000Y-111006000D02*
X148534000Y-111006000D01*
%TO.C,U4*%
X107984000Y-119366000D02*
X109254000Y-119366000D01*
X109254000Y-119366000D02*
X109254000Y-130034000D01*
X107984000Y-130034000D02*
X107984000Y-119366000D01*
X109254000Y-130034000D02*
X107984000Y-130034000D01*
%TO.C,C7*%
X150530000Y-147856000D02*
X150530000Y-140744000D01*
X150530000Y-140744000D02*
X152816000Y-140744000D01*
X152816000Y-140744000D02*
X152816000Y-147856000D01*
X152816000Y-147856000D02*
X150530000Y-147856000D01*
%TD*%
M02*
