%TF.GenerationSoftware,KiCad,Pcbnew,6.0.4*%
%TF.CreationDate,2022-07-27T16:30:24-04:00*%
%TF.ProjectId,verter,76657274-6572-42e6-9b69-6361645f7063,rev?*%
%TF.SameCoordinates,Original*%
%TF.FileFunction,Legend,Top*%
%TF.FilePolarity,Positive*%
%FSLAX46Y46*%
G04 Gerber Fmt 4.6, Leading zero omitted, Abs format (unit mm)*
G04 Created by KiCad (PCBNEW 6.0.4) date 2022-07-27 16:30:24*
%MOMM*%
%LPD*%
G01*
G04 APERTURE LIST*
%ADD10C,0.150000*%
%ADD11C,0.127000*%
%ADD12C,0.120000*%
%ADD13C,0.220000*%
%ADD14C,0.254000*%
G04 APERTURE END LIST*
D10*
X113904761Y-141602380D02*
X113904761Y-141078571D01*
X113857142Y-140983333D01*
X113761904Y-140935714D01*
X113571428Y-140935714D01*
X113476190Y-140983333D01*
X113904761Y-141554761D02*
X113809523Y-141602380D01*
X113571428Y-141602380D01*
X113476190Y-141554761D01*
X113428571Y-141459523D01*
X113428571Y-141364285D01*
X113476190Y-141269047D01*
X113571428Y-141221428D01*
X113809523Y-141221428D01*
X113904761Y-141173809D01*
X114809523Y-141602380D02*
X114809523Y-140602380D01*
X114809523Y-141554761D02*
X114714285Y-141602380D01*
X114523809Y-141602380D01*
X114428571Y-141554761D01*
X114380952Y-141507142D01*
X114333333Y-141411904D01*
X114333333Y-141126190D01*
X114380952Y-141030952D01*
X114428571Y-140983333D01*
X114523809Y-140935714D01*
X114714285Y-140935714D01*
X114809523Y-140983333D01*
X115047619Y-141697619D02*
X115809523Y-141697619D01*
X116047619Y-141602380D02*
X116047619Y-140602380D01*
X116047619Y-140983333D02*
X116142857Y-140935714D01*
X116333333Y-140935714D01*
X116428571Y-140983333D01*
X116476190Y-141030952D01*
X116523809Y-141126190D01*
X116523809Y-141411904D01*
X116476190Y-141507142D01*
X116428571Y-141554761D01*
X116333333Y-141602380D01*
X116142857Y-141602380D01*
X116047619Y-141554761D01*
X117380952Y-141602380D02*
X117380952Y-141078571D01*
X117333333Y-140983333D01*
X117238095Y-140935714D01*
X117047619Y-140935714D01*
X116952380Y-140983333D01*
X117380952Y-141554761D02*
X117285714Y-141602380D01*
X117047619Y-141602380D01*
X116952380Y-141554761D01*
X116904761Y-141459523D01*
X116904761Y-141364285D01*
X116952380Y-141269047D01*
X117047619Y-141221428D01*
X117285714Y-141221428D01*
X117380952Y-141173809D01*
X117714285Y-140935714D02*
X118095238Y-140935714D01*
X117857142Y-140602380D02*
X117857142Y-141459523D01*
X117904761Y-141554761D01*
X118000000Y-141602380D01*
X118095238Y-141602380D01*
X118285714Y-140935714D02*
X118666666Y-140935714D01*
X118428571Y-140602380D02*
X118428571Y-141459523D01*
X118476190Y-141554761D01*
X118571428Y-141602380D01*
X118666666Y-141602380D01*
X167847786Y-148103931D02*
X167366280Y-147622425D01*
X167234960Y-147578652D01*
X167103640Y-147622425D01*
X166928547Y-147797518D01*
X166884774Y-147928838D01*
X167804013Y-148060158D02*
X167760240Y-148191478D01*
X167541373Y-148410344D01*
X167410053Y-148454117D01*
X167278733Y-148410344D01*
X167191187Y-148322798D01*
X167147414Y-148191478D01*
X167191187Y-148060158D01*
X167410053Y-147841292D01*
X167453827Y-147709972D01*
X168197972Y-147666198D02*
X168329292Y-147622425D01*
X168504385Y-147447332D01*
X168548159Y-147316012D01*
X168504385Y-147184692D01*
X168460612Y-147140919D01*
X168329292Y-147097146D01*
X168197972Y-147140919D01*
X168066652Y-147272239D01*
X167935333Y-147316012D01*
X167804013Y-147272239D01*
X167760240Y-147228466D01*
X167716466Y-147097146D01*
X167760240Y-146965826D01*
X167891559Y-146834506D01*
X168022879Y-146790733D01*
X169029665Y-146922053D02*
X168110426Y-146002814D01*
X169423624Y-146528093D02*
X168942118Y-146046587D01*
X168810798Y-146002814D01*
X168679478Y-146046587D01*
X168548159Y-146177907D01*
X168504385Y-146309227D01*
X168504385Y-146396773D01*
X169730037Y-146396773D02*
X170430409Y-145696401D01*
X169948903Y-144777162D02*
X170868142Y-145696401D01*
X169992677Y-144820935D02*
X170036450Y-144689616D01*
X170211543Y-144514522D01*
X170342863Y-144470749D01*
X170430409Y-144470749D01*
X170561729Y-144514522D01*
X170824369Y-144777162D01*
X170868142Y-144908482D01*
X170868142Y-144996029D01*
X170824369Y-145127348D01*
X170649276Y-145302441D01*
X170517956Y-145346215D01*
X171743608Y-144120563D02*
X171699834Y-144251883D01*
X171524741Y-144426976D01*
X171393422Y-144470749D01*
X171305875Y-144470749D01*
X171174555Y-144426976D01*
X170911915Y-144164336D01*
X170868142Y-144033016D01*
X170868142Y-143945470D01*
X170911915Y-143814150D01*
X171087009Y-143639057D01*
X171218328Y-143595284D01*
X172181340Y-143770377D02*
X171262102Y-142851138D01*
X171612288Y-143201324D02*
X171656061Y-143070004D01*
X171831154Y-142894911D01*
X171962474Y-142851138D01*
X172050021Y-142851138D01*
X172181340Y-142894911D01*
X172443980Y-143157551D01*
X172487753Y-143288871D01*
X172487753Y-143376417D01*
X172443980Y-143507737D01*
X172268887Y-143682830D01*
X172137567Y-143726603D01*
X173144353Y-141931899D02*
X173056806Y-141931899D01*
X172925486Y-141975672D01*
X172837940Y-142063219D01*
X172794166Y-142194539D01*
X172794166Y-142282085D01*
X172837940Y-142413405D01*
X172925486Y-142500952D01*
X173056806Y-142544725D01*
X173144353Y-142544725D01*
X173275672Y-142500952D01*
X173363219Y-142413405D01*
X173406992Y-142282085D01*
X173406992Y-142194539D01*
X173056806Y-141844353D02*
X173406992Y-142194539D01*
X173494539Y-142194539D01*
X173538312Y-142150766D01*
X173582085Y-142019446D01*
X173538312Y-141888126D01*
X173319446Y-141669259D01*
X173100579Y-141625486D01*
X172881713Y-141669259D01*
X172662847Y-141800579D01*
X172531527Y-142019446D01*
X172487753Y-142238312D01*
X172531527Y-142457178D01*
X172662847Y-142676045D01*
X172881713Y-142807365D01*
X173100579Y-142851138D01*
X173319446Y-142807365D01*
X173538312Y-142676045D01*
X173669632Y-142457178D01*
X173713405Y-142238312D01*
X174588871Y-141362847D02*
X174107365Y-140881340D01*
X173976045Y-140837567D01*
X173844725Y-140881340D01*
X173669632Y-141056434D01*
X173625859Y-141187753D01*
X174545097Y-141319073D02*
X174501324Y-141450393D01*
X174282458Y-141669259D01*
X174151138Y-141713033D01*
X174019818Y-141669259D01*
X173932272Y-141581713D01*
X173888498Y-141450393D01*
X173932272Y-141319073D01*
X174151138Y-141100207D01*
X174194911Y-140968887D01*
X175333016Y-140531154D02*
X175289243Y-140662474D01*
X175114150Y-140837567D01*
X174982830Y-140881340D01*
X174851510Y-140837567D01*
X174501324Y-140487381D01*
X174457551Y-140356061D01*
X174501324Y-140224741D01*
X174676417Y-140049648D01*
X174807737Y-140005875D01*
X174939057Y-140049648D01*
X175026603Y-140137195D01*
X174676417Y-140662474D01*
X175814522Y-140137195D02*
X175201697Y-139524369D01*
X175376790Y-139699462D02*
X175333016Y-139568142D01*
X175333016Y-139480596D01*
X175376790Y-139349276D01*
X175464336Y-139261729D01*
X176383575Y-139568142D02*
X175770749Y-138955316D01*
X175464336Y-138648903D02*
X175464336Y-138736450D01*
X175551883Y-138736450D01*
X175551883Y-138648903D01*
X175464336Y-138648903D01*
X175551883Y-138736450D01*
X177215267Y-138736450D02*
X176733761Y-138254944D01*
X176602441Y-138211171D01*
X176471122Y-138254944D01*
X176296029Y-138430037D01*
X176252255Y-138561357D01*
X177171494Y-138692677D02*
X177127721Y-138823996D01*
X176908854Y-139042863D01*
X176777535Y-139086636D01*
X176646215Y-139042863D01*
X176558668Y-138955316D01*
X176514895Y-138823996D01*
X176558668Y-138692677D01*
X176777535Y-138473810D01*
X176821308Y-138342490D01*
X177565454Y-138211171D02*
X177653000Y-138211171D01*
X177653000Y-138298717D01*
X177565454Y-138298717D01*
X177565454Y-138211171D01*
X177653000Y-138298717D01*
X177477907Y-137248159D02*
X178090733Y-137860984D01*
X177565454Y-137335705D02*
X177565454Y-137248159D01*
X177609227Y-137116839D01*
X177740547Y-136985519D01*
X177871866Y-136941746D01*
X178003186Y-136985519D01*
X178484692Y-137467025D01*
X179228838Y-136635333D02*
X179185065Y-136766652D01*
X179009972Y-136941746D01*
X178878652Y-136985519D01*
X178747332Y-136941746D01*
X178397146Y-136591559D01*
X178353373Y-136460240D01*
X178397146Y-136328920D01*
X178572239Y-136153827D01*
X178703559Y-136110053D01*
X178834879Y-136153827D01*
X178922425Y-136241373D01*
X178572239Y-136766652D01*
X178966198Y-135759867D02*
X179316385Y-135409681D01*
X178791105Y-135322134D02*
X179579024Y-136110053D01*
X179710344Y-136153827D01*
X179841664Y-136110053D01*
X179929211Y-136022507D01*
X168933801Y-148314480D02*
X168933801Y-148226934D01*
X168977574Y-148095614D01*
X169196440Y-147876747D01*
X169327760Y-147832974D01*
X169415307Y-147832974D01*
X169546626Y-147876747D01*
X169634173Y-147964294D01*
X169721720Y-148139387D01*
X169721720Y-149189946D01*
X170290772Y-148620893D01*
X169940586Y-147132602D02*
X170028133Y-147045055D01*
X170159452Y-147001282D01*
X170246999Y-147001282D01*
X170378319Y-147045055D01*
X170597185Y-147176375D01*
X170816051Y-147395241D01*
X170947371Y-147614108D01*
X170991145Y-147745428D01*
X170991145Y-147832974D01*
X170947371Y-147964294D01*
X170859825Y-148051840D01*
X170728505Y-148095614D01*
X170640958Y-148095614D01*
X170509639Y-148051840D01*
X170290772Y-147920521D01*
X170071906Y-147701654D01*
X169940586Y-147482788D01*
X169896813Y-147351468D01*
X169896813Y-147263922D01*
X169940586Y-147132602D01*
X170684732Y-146563549D02*
X170684732Y-146476003D01*
X170728505Y-146344683D01*
X170947371Y-146125816D01*
X171078691Y-146082043D01*
X171166238Y-146082043D01*
X171297558Y-146125816D01*
X171385104Y-146213363D01*
X171472651Y-146388456D01*
X171472651Y-147439015D01*
X172041703Y-146869962D01*
X172085477Y-146125816D02*
X172785849Y-145425444D01*
X173179808Y-144681298D02*
X173048489Y-144725071D01*
X172960942Y-144725071D01*
X172829622Y-144681298D01*
X172785849Y-144637525D01*
X172742076Y-144506205D01*
X172742076Y-144418659D01*
X172785849Y-144287339D01*
X172960942Y-144112246D01*
X173092262Y-144068472D01*
X173179808Y-144068472D01*
X173311128Y-144112246D01*
X173354902Y-144156019D01*
X173398675Y-144287339D01*
X173398675Y-144374885D01*
X173354902Y-144506205D01*
X173179808Y-144681298D01*
X173136035Y-144812618D01*
X173136035Y-144900165D01*
X173179808Y-145031484D01*
X173354902Y-145206577D01*
X173486221Y-145250351D01*
X173573768Y-145250351D01*
X173705088Y-145206577D01*
X173880181Y-145031484D01*
X173923954Y-144900165D01*
X173923954Y-144812618D01*
X173880181Y-144681298D01*
X173705088Y-144506205D01*
X173573768Y-144462432D01*
X173486221Y-144462432D01*
X173354902Y-144506205D01*
X174230367Y-143455646D02*
X174843193Y-144068472D01*
X173661314Y-143324327D02*
X174099047Y-144199792D01*
X174668100Y-143630740D01*
X175806205Y-143105460D02*
X175280926Y-143630740D01*
X175543565Y-143368100D02*
X174624327Y-142448861D01*
X174668100Y-142667727D01*
X174668100Y-142842821D01*
X174624327Y-142974140D01*
X175849978Y-142361314D02*
X176550351Y-141660942D01*
X176944310Y-140916796D02*
X176812990Y-140960570D01*
X176725444Y-140960570D01*
X176594124Y-140916796D01*
X176550351Y-140873023D01*
X176506577Y-140741703D01*
X176506577Y-140654157D01*
X176550351Y-140522837D01*
X176725444Y-140347744D01*
X176856764Y-140303970D01*
X176944310Y-140303970D01*
X177075630Y-140347744D01*
X177119403Y-140391517D01*
X177163177Y-140522837D01*
X177163177Y-140610383D01*
X177119403Y-140741703D01*
X176944310Y-140916796D01*
X176900537Y-141048116D01*
X176900537Y-141135663D01*
X176944310Y-141266983D01*
X177119403Y-141442076D01*
X177250723Y-141485849D01*
X177338270Y-141485849D01*
X177469590Y-141442076D01*
X177644683Y-141266983D01*
X177688456Y-141135663D01*
X177688456Y-141048116D01*
X177644683Y-140916796D01*
X177469590Y-140741703D01*
X177338270Y-140697930D01*
X177250723Y-140697930D01*
X177119403Y-140741703D01*
X177206950Y-139866238D02*
X177776003Y-139297185D01*
X177819776Y-139953784D01*
X177951096Y-139822464D01*
X178082415Y-139778691D01*
X178169962Y-139778691D01*
X178301282Y-139822464D01*
X178520148Y-140041331D01*
X178563922Y-140172651D01*
X178563922Y-140260197D01*
X178520148Y-140391517D01*
X178257509Y-140654157D01*
X178126189Y-140697930D01*
X178038642Y-140697930D01*
X179132974Y-139778691D02*
X179308067Y-139603598D01*
X179351840Y-139472278D01*
X179351840Y-139384732D01*
X179308067Y-139165865D01*
X179176747Y-138946999D01*
X178826561Y-138596813D01*
X178695241Y-138553039D01*
X178607695Y-138553039D01*
X178476375Y-138596813D01*
X178301282Y-138771906D01*
X178257509Y-138903226D01*
X178257509Y-138990772D01*
X178301282Y-139122092D01*
X178520148Y-139340958D01*
X178651468Y-139384732D01*
X178739015Y-139384732D01*
X178870334Y-139340958D01*
X179045428Y-139165865D01*
X179089201Y-139034545D01*
X179089201Y-138946999D01*
X179045428Y-138815679D01*
X180008440Y-138903226D02*
X180183533Y-138728133D01*
X180227306Y-138596813D01*
X180227306Y-138509266D01*
X180183533Y-138290400D01*
X180052213Y-138071533D01*
X179702027Y-137721347D01*
X179570707Y-137677574D01*
X179483160Y-137677574D01*
X179351840Y-137721347D01*
X179176747Y-137896440D01*
X179132974Y-138027760D01*
X179132974Y-138115307D01*
X179176747Y-138246626D01*
X179395614Y-138465493D01*
X179526934Y-138509266D01*
X179614480Y-138509266D01*
X179745800Y-138465493D01*
X179920893Y-138290400D01*
X179964666Y-138159080D01*
X179964666Y-138071533D01*
X179920893Y-137940214D01*
%TO.C,C11*%
X115207142Y-134557142D02*
X115159523Y-134604761D01*
X115016666Y-134652380D01*
X114921428Y-134652380D01*
X114778571Y-134604761D01*
X114683333Y-134509523D01*
X114635714Y-134414285D01*
X114588095Y-134223809D01*
X114588095Y-134080952D01*
X114635714Y-133890476D01*
X114683333Y-133795238D01*
X114778571Y-133700000D01*
X114921428Y-133652380D01*
X115016666Y-133652380D01*
X115159523Y-133700000D01*
X115207142Y-133747619D01*
X116159523Y-134652380D02*
X115588095Y-134652380D01*
X115873809Y-134652380D02*
X115873809Y-133652380D01*
X115778571Y-133795238D01*
X115683333Y-133890476D01*
X115588095Y-133938095D01*
X117111904Y-134652380D02*
X116540476Y-134652380D01*
X116826190Y-134652380D02*
X116826190Y-133652380D01*
X116730952Y-133795238D01*
X116635714Y-133890476D01*
X116540476Y-133938095D01*
%TO.C,M1*%
X104444476Y-109770380D02*
X104444476Y-108770380D01*
X104777809Y-109484666D01*
X105111142Y-108770380D01*
X105111142Y-109770380D01*
X106111142Y-109770380D02*
X105539714Y-109770380D01*
X105825428Y-109770380D02*
X105825428Y-108770380D01*
X105730190Y-108913238D01*
X105634952Y-109008476D01*
X105539714Y-109056095D01*
%TO.C,R12*%
X141550739Y-147531125D02*
X140978320Y-147430110D01*
X141146678Y-147935186D02*
X140439572Y-147228079D01*
X140708946Y-146958705D01*
X140809961Y-146925033D01*
X140877304Y-146925033D01*
X140978320Y-146958705D01*
X141079335Y-147059720D01*
X141113007Y-147160736D01*
X141113007Y-147228079D01*
X141079335Y-147329094D01*
X140809961Y-147598468D01*
X142224175Y-146857690D02*
X141820114Y-147261751D01*
X142022144Y-147059720D02*
X141315037Y-146352613D01*
X141348709Y-146520972D01*
X141348709Y-146655659D01*
X141315037Y-146756675D01*
X141853785Y-145948552D02*
X141853785Y-145881209D01*
X141887457Y-145780194D01*
X142055816Y-145611835D01*
X142156831Y-145578163D01*
X142224175Y-145578163D01*
X142325190Y-145611835D01*
X142392533Y-145679178D01*
X142459877Y-145813865D01*
X142459877Y-146621987D01*
X142897610Y-146184255D01*
%TO.C,BN2*%
X164971428Y-115171428D02*
X164923809Y-115314285D01*
X164876190Y-115361904D01*
X164780952Y-115409523D01*
X164638095Y-115409523D01*
X164542857Y-115361904D01*
X164495238Y-115314285D01*
X164447619Y-115219047D01*
X164447619Y-114838095D01*
X165447619Y-114838095D01*
X165447619Y-115171428D01*
X165400000Y-115266666D01*
X165352380Y-115314285D01*
X165257142Y-115361904D01*
X165161904Y-115361904D01*
X165066666Y-115314285D01*
X165019047Y-115266666D01*
X164971428Y-115171428D01*
X164971428Y-114838095D01*
X164447619Y-115838095D02*
X165447619Y-115838095D01*
X164447619Y-116409523D01*
X165447619Y-116409523D01*
X165352380Y-116838095D02*
X165400000Y-116885714D01*
X165447619Y-116980952D01*
X165447619Y-117219047D01*
X165400000Y-117314285D01*
X165352380Y-117361904D01*
X165257142Y-117409523D01*
X165161904Y-117409523D01*
X165019047Y-117361904D01*
X164447619Y-116790476D01*
X164447619Y-117409523D01*
X171828571Y-131719047D02*
X171828571Y-132480952D01*
X171828571Y-112719047D02*
X171828571Y-113480952D01*
X171447619Y-113100000D02*
X172209523Y-113100000D01*
%TO.C,t3bat-1*%
X124097619Y-142435714D02*
X124478571Y-142435714D01*
X124240476Y-142102380D02*
X124240476Y-142959523D01*
X124288095Y-143054761D01*
X124383333Y-143102380D01*
X124478571Y-143102380D01*
X124716666Y-142102380D02*
X125335714Y-142102380D01*
X125002380Y-142483333D01*
X125145238Y-142483333D01*
X125240476Y-142530952D01*
X125288095Y-142578571D01*
X125335714Y-142673809D01*
X125335714Y-142911904D01*
X125288095Y-143007142D01*
X125240476Y-143054761D01*
X125145238Y-143102380D01*
X124859523Y-143102380D01*
X124764285Y-143054761D01*
X124716666Y-143007142D01*
X125764285Y-143102380D02*
X125764285Y-142102380D01*
X125764285Y-142483333D02*
X125859523Y-142435714D01*
X126050000Y-142435714D01*
X126145238Y-142483333D01*
X126192857Y-142530952D01*
X126240476Y-142626190D01*
X126240476Y-142911904D01*
X126192857Y-143007142D01*
X126145238Y-143054761D01*
X126050000Y-143102380D01*
X125859523Y-143102380D01*
X125764285Y-143054761D01*
X127097619Y-143102380D02*
X127097619Y-142578571D01*
X127050000Y-142483333D01*
X126954761Y-142435714D01*
X126764285Y-142435714D01*
X126669047Y-142483333D01*
X127097619Y-143054761D02*
X127002380Y-143102380D01*
X126764285Y-143102380D01*
X126669047Y-143054761D01*
X126621428Y-142959523D01*
X126621428Y-142864285D01*
X126669047Y-142769047D01*
X126764285Y-142721428D01*
X127002380Y-142721428D01*
X127097619Y-142673809D01*
X127430952Y-142435714D02*
X127811904Y-142435714D01*
X127573809Y-142102380D02*
X127573809Y-142959523D01*
X127621428Y-143054761D01*
X127716666Y-143102380D01*
X127811904Y-143102380D01*
X128145238Y-142721428D02*
X128907142Y-142721428D01*
X129907142Y-143102380D02*
X129335714Y-143102380D01*
X129621428Y-143102380D02*
X129621428Y-142102380D01*
X129526190Y-142245238D01*
X129430952Y-142340476D01*
X129335714Y-142388095D01*
%TO.C,t12hbout1*%
X175435714Y-123985714D02*
X175816666Y-123985714D01*
X175578571Y-123652380D02*
X175578571Y-124509523D01*
X175626190Y-124604761D01*
X175721428Y-124652380D01*
X175816666Y-124652380D01*
X176673809Y-124652380D02*
X176102380Y-124652380D01*
X176388095Y-124652380D02*
X176388095Y-123652380D01*
X176292857Y-123795238D01*
X176197619Y-123890476D01*
X176102380Y-123938095D01*
X177054761Y-123747619D02*
X177102380Y-123700000D01*
X177197619Y-123652380D01*
X177435714Y-123652380D01*
X177530952Y-123700000D01*
X177578571Y-123747619D01*
X177626190Y-123842857D01*
X177626190Y-123938095D01*
X177578571Y-124080952D01*
X177007142Y-124652380D01*
X177626190Y-124652380D01*
X178054761Y-124652380D02*
X178054761Y-123652380D01*
X178483333Y-124652380D02*
X178483333Y-124128571D01*
X178435714Y-124033333D01*
X178340476Y-123985714D01*
X178197619Y-123985714D01*
X178102380Y-124033333D01*
X178054761Y-124080952D01*
X178959523Y-124652380D02*
X178959523Y-123652380D01*
X178959523Y-124033333D02*
X179054761Y-123985714D01*
X179245238Y-123985714D01*
X179340476Y-124033333D01*
X179388095Y-124080952D01*
X179435714Y-124176190D01*
X179435714Y-124461904D01*
X179388095Y-124557142D01*
X179340476Y-124604761D01*
X179245238Y-124652380D01*
X179054761Y-124652380D01*
X178959523Y-124604761D01*
X180007142Y-124652380D02*
X179911904Y-124604761D01*
X179864285Y-124557142D01*
X179816666Y-124461904D01*
X179816666Y-124176190D01*
X179864285Y-124080952D01*
X179911904Y-124033333D01*
X180007142Y-123985714D01*
X180150000Y-123985714D01*
X180245238Y-124033333D01*
X180292857Y-124080952D01*
X180340476Y-124176190D01*
X180340476Y-124461904D01*
X180292857Y-124557142D01*
X180245238Y-124604761D01*
X180150000Y-124652380D01*
X180007142Y-124652380D01*
X181197619Y-123985714D02*
X181197619Y-124652380D01*
X180769047Y-123985714D02*
X180769047Y-124509523D01*
X180816666Y-124604761D01*
X180911904Y-124652380D01*
X181054761Y-124652380D01*
X181150000Y-124604761D01*
X181197619Y-124557142D01*
X181530952Y-123985714D02*
X181911904Y-123985714D01*
X181673809Y-123652380D02*
X181673809Y-124509523D01*
X181721428Y-124604761D01*
X181816666Y-124652380D01*
X181911904Y-124652380D01*
X182769047Y-124652380D02*
X182197619Y-124652380D01*
X182483333Y-124652380D02*
X182483333Y-123652380D01*
X182388095Y-123795238D01*
X182292857Y-123890476D01*
X182197619Y-123938095D01*
%TO.C,t2vdda1*%
X119579047Y-103039714D02*
X119960000Y-103039714D01*
X119721904Y-102706380D02*
X119721904Y-103563523D01*
X119769523Y-103658761D01*
X119864761Y-103706380D01*
X119960000Y-103706380D01*
X120245714Y-102801619D02*
X120293333Y-102754000D01*
X120388571Y-102706380D01*
X120626666Y-102706380D01*
X120721904Y-102754000D01*
X120769523Y-102801619D01*
X120817142Y-102896857D01*
X120817142Y-102992095D01*
X120769523Y-103134952D01*
X120198095Y-103706380D01*
X120817142Y-103706380D01*
X121150476Y-103039714D02*
X121388571Y-103706380D01*
X121626666Y-103039714D01*
X122436190Y-103706380D02*
X122436190Y-102706380D01*
X122436190Y-103658761D02*
X122340952Y-103706380D01*
X122150476Y-103706380D01*
X122055238Y-103658761D01*
X122007619Y-103611142D01*
X121960000Y-103515904D01*
X121960000Y-103230190D01*
X122007619Y-103134952D01*
X122055238Y-103087333D01*
X122150476Y-103039714D01*
X122340952Y-103039714D01*
X122436190Y-103087333D01*
X123340952Y-103706380D02*
X123340952Y-102706380D01*
X123340952Y-103658761D02*
X123245714Y-103706380D01*
X123055238Y-103706380D01*
X122960000Y-103658761D01*
X122912380Y-103611142D01*
X122864761Y-103515904D01*
X122864761Y-103230190D01*
X122912380Y-103134952D01*
X122960000Y-103087333D01*
X123055238Y-103039714D01*
X123245714Y-103039714D01*
X123340952Y-103087333D01*
X124245714Y-103706380D02*
X124245714Y-103182571D01*
X124198095Y-103087333D01*
X124102857Y-103039714D01*
X123912380Y-103039714D01*
X123817142Y-103087333D01*
X124245714Y-103658761D02*
X124150476Y-103706380D01*
X123912380Y-103706380D01*
X123817142Y-103658761D01*
X123769523Y-103563523D01*
X123769523Y-103468285D01*
X123817142Y-103373047D01*
X123912380Y-103325428D01*
X124150476Y-103325428D01*
X124245714Y-103277809D01*
X125245714Y-103706380D02*
X124674285Y-103706380D01*
X124960000Y-103706380D02*
X124960000Y-102706380D01*
X124864761Y-102849238D01*
X124769523Y-102944476D01*
X124674285Y-102992095D01*
%TO.C,cn1*%
X104168761Y-120150476D02*
X104216380Y-120245714D01*
X104216380Y-120436190D01*
X104168761Y-120531428D01*
X104121142Y-120579047D01*
X104025904Y-120626666D01*
X103740190Y-120626666D01*
X103644952Y-120579047D01*
X103597333Y-120531428D01*
X103549714Y-120436190D01*
X103549714Y-120245714D01*
X103597333Y-120150476D01*
X103549714Y-119721904D02*
X104216380Y-119721904D01*
X103644952Y-119721904D02*
X103597333Y-119674285D01*
X103549714Y-119579047D01*
X103549714Y-119436190D01*
X103597333Y-119340952D01*
X103692571Y-119293333D01*
X104216380Y-119293333D01*
X104216380Y-118293333D02*
X104216380Y-118864761D01*
X104216380Y-118579047D02*
X103216380Y-118579047D01*
X103359238Y-118674285D01*
X103454476Y-118769523D01*
X103502095Y-118864761D01*
%TO.C,R1*%
X118732380Y-120544166D02*
X118256190Y-120877500D01*
X118732380Y-121115595D02*
X117732380Y-121115595D01*
X117732380Y-120734642D01*
X117780000Y-120639404D01*
X117827619Y-120591785D01*
X117922857Y-120544166D01*
X118065714Y-120544166D01*
X118160952Y-120591785D01*
X118208571Y-120639404D01*
X118256190Y-120734642D01*
X118256190Y-121115595D01*
X118732380Y-119591785D02*
X118732380Y-120163214D01*
X118732380Y-119877500D02*
X117732380Y-119877500D01*
X117875238Y-119972738D01*
X117970476Y-120067976D01*
X118018095Y-120163214D01*
%TO.C,D1*%
X116594020Y-117637844D02*
X115886913Y-116930738D01*
X116055272Y-116762379D01*
X116189959Y-116695035D01*
X116324646Y-116695035D01*
X116425661Y-116728707D01*
X116594020Y-116829722D01*
X116695035Y-116930738D01*
X116796051Y-117099096D01*
X116829722Y-117200112D01*
X116829722Y-117334799D01*
X116762379Y-117469486D01*
X116594020Y-117637844D01*
X117671516Y-116560348D02*
X117267455Y-116964409D01*
X117469486Y-116762379D02*
X116762379Y-116055272D01*
X116796051Y-116223631D01*
X116796051Y-116358318D01*
X116762379Y-116459333D01*
%TO.C,t1*%
X98793333Y-132499714D02*
X99174285Y-132499714D01*
X98936190Y-132166380D02*
X98936190Y-133023523D01*
X98983809Y-133118761D01*
X99079047Y-133166380D01*
X99174285Y-133166380D01*
X100031428Y-133166380D02*
X99460000Y-133166380D01*
X99745714Y-133166380D02*
X99745714Y-132166380D01*
X99650476Y-132309238D01*
X99555238Y-132404476D01*
X99460000Y-132452095D01*
%TO.C,t4bat+1*%
X116447619Y-146985714D02*
X116828571Y-146985714D01*
X116590476Y-146652380D02*
X116590476Y-147509523D01*
X116638095Y-147604761D01*
X116733333Y-147652380D01*
X116828571Y-147652380D01*
X117590476Y-146985714D02*
X117590476Y-147652380D01*
X117352380Y-146604761D02*
X117114285Y-147319047D01*
X117733333Y-147319047D01*
X118114285Y-147652380D02*
X118114285Y-146652380D01*
X118114285Y-147033333D02*
X118209523Y-146985714D01*
X118400000Y-146985714D01*
X118495238Y-147033333D01*
X118542857Y-147080952D01*
X118590476Y-147176190D01*
X118590476Y-147461904D01*
X118542857Y-147557142D01*
X118495238Y-147604761D01*
X118400000Y-147652380D01*
X118209523Y-147652380D01*
X118114285Y-147604761D01*
X119447619Y-147652380D02*
X119447619Y-147128571D01*
X119400000Y-147033333D01*
X119304761Y-146985714D01*
X119114285Y-146985714D01*
X119019047Y-147033333D01*
X119447619Y-147604761D02*
X119352380Y-147652380D01*
X119114285Y-147652380D01*
X119019047Y-147604761D01*
X118971428Y-147509523D01*
X118971428Y-147414285D01*
X119019047Y-147319047D01*
X119114285Y-147271428D01*
X119352380Y-147271428D01*
X119447619Y-147223809D01*
X119780952Y-146985714D02*
X120161904Y-146985714D01*
X119923809Y-146652380D02*
X119923809Y-147509523D01*
X119971428Y-147604761D01*
X120066666Y-147652380D01*
X120161904Y-147652380D01*
X120495238Y-147271428D02*
X121257142Y-147271428D01*
X120876190Y-147652380D02*
X120876190Y-146890476D01*
X122257142Y-147652380D02*
X121685714Y-147652380D01*
X121971428Y-147652380D02*
X121971428Y-146652380D01*
X121876190Y-146795238D01*
X121780952Y-146890476D01*
X121685714Y-146938095D01*
%TO.C,M3*%
X183444476Y-110770380D02*
X183444476Y-109770380D01*
X183777809Y-110484666D01*
X184111142Y-109770380D01*
X184111142Y-110770380D01*
X184492095Y-109770380D02*
X185111142Y-109770380D01*
X184777809Y-110151333D01*
X184920666Y-110151333D01*
X185015904Y-110198952D01*
X185063523Y-110246571D01*
X185111142Y-110341809D01*
X185111142Y-110579904D01*
X185063523Y-110675142D01*
X185015904Y-110722761D01*
X184920666Y-110770380D01*
X184634952Y-110770380D01*
X184539714Y-110722761D01*
X184492095Y-110675142D01*
%TO.C,C4*%
X116787142Y-121666666D02*
X116834761Y-121714285D01*
X116882380Y-121857142D01*
X116882380Y-121952380D01*
X116834761Y-122095238D01*
X116739523Y-122190476D01*
X116644285Y-122238095D01*
X116453809Y-122285714D01*
X116310952Y-122285714D01*
X116120476Y-122238095D01*
X116025238Y-122190476D01*
X115930000Y-122095238D01*
X115882380Y-121952380D01*
X115882380Y-121857142D01*
X115930000Y-121714285D01*
X115977619Y-121666666D01*
X116215714Y-120809523D02*
X116882380Y-120809523D01*
X115834761Y-121047619D02*
X116549047Y-121285714D01*
X116549047Y-120666666D01*
%TO.C,C5*%
X162083333Y-119857142D02*
X162035714Y-119904761D01*
X161892857Y-119952380D01*
X161797619Y-119952380D01*
X161654761Y-119904761D01*
X161559523Y-119809523D01*
X161511904Y-119714285D01*
X161464285Y-119523809D01*
X161464285Y-119380952D01*
X161511904Y-119190476D01*
X161559523Y-119095238D01*
X161654761Y-119000000D01*
X161797619Y-118952380D01*
X161892857Y-118952380D01*
X162035714Y-119000000D01*
X162083333Y-119047619D01*
X162988095Y-118952380D02*
X162511904Y-118952380D01*
X162464285Y-119428571D01*
X162511904Y-119380952D01*
X162607142Y-119333333D01*
X162845238Y-119333333D01*
X162940476Y-119380952D01*
X162988095Y-119428571D01*
X163035714Y-119523809D01*
X163035714Y-119761904D01*
X162988095Y-119857142D01*
X162940476Y-119904761D01*
X162845238Y-119952380D01*
X162607142Y-119952380D01*
X162511904Y-119904761D01*
X162464285Y-119857142D01*
%TO.C,L1*%
X154261871Y-129686631D02*
X153925153Y-129349913D01*
X154632260Y-128642807D01*
X154867962Y-130292723D02*
X154463901Y-129888662D01*
X154665932Y-130090692D02*
X155373039Y-129383585D01*
X155204680Y-129417257D01*
X155069993Y-129417257D01*
X154968978Y-129383585D01*
%TO.C,C3*%
X116737142Y-128016666D02*
X116784761Y-128064285D01*
X116832380Y-128207142D01*
X116832380Y-128302380D01*
X116784761Y-128445238D01*
X116689523Y-128540476D01*
X116594285Y-128588095D01*
X116403809Y-128635714D01*
X116260952Y-128635714D01*
X116070476Y-128588095D01*
X115975238Y-128540476D01*
X115880000Y-128445238D01*
X115832380Y-128302380D01*
X115832380Y-128207142D01*
X115880000Y-128064285D01*
X115927619Y-128016666D01*
X115832380Y-127683333D02*
X115832380Y-127064285D01*
X116213333Y-127397619D01*
X116213333Y-127254761D01*
X116260952Y-127159523D01*
X116308571Y-127111904D01*
X116403809Y-127064285D01*
X116641904Y-127064285D01*
X116737142Y-127111904D01*
X116784761Y-127159523D01*
X116832380Y-127254761D01*
X116832380Y-127540476D01*
X116784761Y-127635714D01*
X116737142Y-127683333D01*
%TO.C,BN3*%
X110469047Y-141921428D02*
X111230952Y-141921428D01*
X110850000Y-142302380D02*
X110850000Y-141540476D01*
X129469047Y-141921428D02*
X130230952Y-141921428D01*
%TO.C,U2*%
X145802380Y-132861904D02*
X146611904Y-132861904D01*
X146707142Y-132814285D01*
X146754761Y-132766666D01*
X146802380Y-132671428D01*
X146802380Y-132480952D01*
X146754761Y-132385714D01*
X146707142Y-132338095D01*
X146611904Y-132290476D01*
X145802380Y-132290476D01*
X145897619Y-131861904D02*
X145850000Y-131814285D01*
X145802380Y-131719047D01*
X145802380Y-131480952D01*
X145850000Y-131385714D01*
X145897619Y-131338095D01*
X145992857Y-131290476D01*
X146088095Y-131290476D01*
X146230952Y-131338095D01*
X146802380Y-131909523D01*
X146802380Y-131290476D01*
%TO.C,C6*%
X158273333Y-119491142D02*
X158225714Y-119538761D01*
X158082857Y-119586380D01*
X157987619Y-119586380D01*
X157844761Y-119538761D01*
X157749523Y-119443523D01*
X157701904Y-119348285D01*
X157654285Y-119157809D01*
X157654285Y-119014952D01*
X157701904Y-118824476D01*
X157749523Y-118729238D01*
X157844761Y-118634000D01*
X157987619Y-118586380D01*
X158082857Y-118586380D01*
X158225714Y-118634000D01*
X158273333Y-118681619D01*
X159130476Y-118586380D02*
X158940000Y-118586380D01*
X158844761Y-118634000D01*
X158797142Y-118681619D01*
X158701904Y-118824476D01*
X158654285Y-119014952D01*
X158654285Y-119395904D01*
X158701904Y-119491142D01*
X158749523Y-119538761D01*
X158844761Y-119586380D01*
X159035238Y-119586380D01*
X159130476Y-119538761D01*
X159178095Y-119491142D01*
X159225714Y-119395904D01*
X159225714Y-119157809D01*
X159178095Y-119062571D01*
X159130476Y-119014952D01*
X159035238Y-118967333D01*
X158844761Y-118967333D01*
X158749523Y-119014952D01*
X158701904Y-119062571D01*
X158654285Y-119157809D01*
X134945047Y-106505428D02*
X135706952Y-106505428D01*
X135326000Y-106886380D02*
X135326000Y-106124476D01*
X163393047Y-110061428D02*
X164154952Y-110061428D01*
%TO.C,R3*%
X178132380Y-116666666D02*
X177656190Y-117000000D01*
X178132380Y-117238095D02*
X177132380Y-117238095D01*
X177132380Y-116857142D01*
X177180000Y-116761904D01*
X177227619Y-116714285D01*
X177322857Y-116666666D01*
X177465714Y-116666666D01*
X177560952Y-116714285D01*
X177608571Y-116761904D01*
X177656190Y-116857142D01*
X177656190Y-117238095D01*
X177132380Y-116333333D02*
X177132380Y-115714285D01*
X177513333Y-116047619D01*
X177513333Y-115904761D01*
X177560952Y-115809523D01*
X177608571Y-115761904D01*
X177703809Y-115714285D01*
X177941904Y-115714285D01*
X178037142Y-115761904D01*
X178084761Y-115809523D01*
X178132380Y-115904761D01*
X178132380Y-116190476D01*
X178084761Y-116285714D01*
X178037142Y-116333333D01*
%TO.C,t6higate1*%
X126087619Y-104995714D02*
X126468571Y-104995714D01*
X126230476Y-104662380D02*
X126230476Y-105519523D01*
X126278095Y-105614761D01*
X126373333Y-105662380D01*
X126468571Y-105662380D01*
X127230476Y-104662380D02*
X127040000Y-104662380D01*
X126944761Y-104710000D01*
X126897142Y-104757619D01*
X126801904Y-104900476D01*
X126754285Y-105090952D01*
X126754285Y-105471904D01*
X126801904Y-105567142D01*
X126849523Y-105614761D01*
X126944761Y-105662380D01*
X127135238Y-105662380D01*
X127230476Y-105614761D01*
X127278095Y-105567142D01*
X127325714Y-105471904D01*
X127325714Y-105233809D01*
X127278095Y-105138571D01*
X127230476Y-105090952D01*
X127135238Y-105043333D01*
X126944761Y-105043333D01*
X126849523Y-105090952D01*
X126801904Y-105138571D01*
X126754285Y-105233809D01*
X127754285Y-105662380D02*
X127754285Y-104662380D01*
X128182857Y-105662380D02*
X128182857Y-105138571D01*
X128135238Y-105043333D01*
X128040000Y-104995714D01*
X127897142Y-104995714D01*
X127801904Y-105043333D01*
X127754285Y-105090952D01*
X128659047Y-105662380D02*
X128659047Y-104995714D01*
X128659047Y-104662380D02*
X128611428Y-104710000D01*
X128659047Y-104757619D01*
X128706666Y-104710000D01*
X128659047Y-104662380D01*
X128659047Y-104757619D01*
X129563809Y-104995714D02*
X129563809Y-105805238D01*
X129516190Y-105900476D01*
X129468571Y-105948095D01*
X129373333Y-105995714D01*
X129230476Y-105995714D01*
X129135238Y-105948095D01*
X129563809Y-105614761D02*
X129468571Y-105662380D01*
X129278095Y-105662380D01*
X129182857Y-105614761D01*
X129135238Y-105567142D01*
X129087619Y-105471904D01*
X129087619Y-105186190D01*
X129135238Y-105090952D01*
X129182857Y-105043333D01*
X129278095Y-104995714D01*
X129468571Y-104995714D01*
X129563809Y-105043333D01*
X130468571Y-105662380D02*
X130468571Y-105138571D01*
X130420952Y-105043333D01*
X130325714Y-104995714D01*
X130135238Y-104995714D01*
X130040000Y-105043333D01*
X130468571Y-105614761D02*
X130373333Y-105662380D01*
X130135238Y-105662380D01*
X130040000Y-105614761D01*
X129992380Y-105519523D01*
X129992380Y-105424285D01*
X130040000Y-105329047D01*
X130135238Y-105281428D01*
X130373333Y-105281428D01*
X130468571Y-105233809D01*
X130801904Y-104995714D02*
X131182857Y-104995714D01*
X130944761Y-104662380D02*
X130944761Y-105519523D01*
X130992380Y-105614761D01*
X131087619Y-105662380D01*
X131182857Y-105662380D01*
X131897142Y-105614761D02*
X131801904Y-105662380D01*
X131611428Y-105662380D01*
X131516190Y-105614761D01*
X131468571Y-105519523D01*
X131468571Y-105138571D01*
X131516190Y-105043333D01*
X131611428Y-104995714D01*
X131801904Y-104995714D01*
X131897142Y-105043333D01*
X131944761Y-105138571D01*
X131944761Y-105233809D01*
X131468571Y-105329047D01*
X132897142Y-105662380D02*
X132325714Y-105662380D01*
X132611428Y-105662380D02*
X132611428Y-104662380D01*
X132516190Y-104805238D01*
X132420952Y-104900476D01*
X132325714Y-104948095D01*
%TO.C,U4*%
X108238095Y-117929380D02*
X108238095Y-118738904D01*
X108285714Y-118834142D01*
X108333333Y-118881761D01*
X108428571Y-118929380D01*
X108619047Y-118929380D01*
X108714285Y-118881761D01*
X108761904Y-118834142D01*
X108809523Y-118738904D01*
X108809523Y-117929380D01*
X109714285Y-118262714D02*
X109714285Y-118929380D01*
X109476190Y-117881761D02*
X109238095Y-118596047D01*
X109857142Y-118596047D01*
%TO.C,R2*%
X118832380Y-129566666D02*
X118356190Y-129900000D01*
X118832380Y-130138095D02*
X117832380Y-130138095D01*
X117832380Y-129757142D01*
X117880000Y-129661904D01*
X117927619Y-129614285D01*
X118022857Y-129566666D01*
X118165714Y-129566666D01*
X118260952Y-129614285D01*
X118308571Y-129661904D01*
X118356190Y-129757142D01*
X118356190Y-130138095D01*
X117927619Y-129185714D02*
X117880000Y-129138095D01*
X117832380Y-129042857D01*
X117832380Y-128804761D01*
X117880000Y-128709523D01*
X117927619Y-128661904D01*
X118022857Y-128614285D01*
X118118095Y-128614285D01*
X118260952Y-128661904D01*
X118832380Y-129233333D01*
X118832380Y-128614285D01*
%TO.C,t5lo_gate1*%
X117742857Y-124585714D02*
X118123809Y-124585714D01*
X117885714Y-124252380D02*
X117885714Y-125109523D01*
X117933333Y-125204761D01*
X118028571Y-125252380D01*
X118123809Y-125252380D01*
X118933333Y-124252380D02*
X118457142Y-124252380D01*
X118409523Y-124728571D01*
X118457142Y-124680952D01*
X118552380Y-124633333D01*
X118790476Y-124633333D01*
X118885714Y-124680952D01*
X118933333Y-124728571D01*
X118980952Y-124823809D01*
X118980952Y-125061904D01*
X118933333Y-125157142D01*
X118885714Y-125204761D01*
X118790476Y-125252380D01*
X118552380Y-125252380D01*
X118457142Y-125204761D01*
X118409523Y-125157142D01*
X119552380Y-125252380D02*
X119457142Y-125204761D01*
X119409523Y-125109523D01*
X119409523Y-124252380D01*
X120076190Y-125252380D02*
X119980952Y-125204761D01*
X119933333Y-125157142D01*
X119885714Y-125061904D01*
X119885714Y-124776190D01*
X119933333Y-124680952D01*
X119980952Y-124633333D01*
X120076190Y-124585714D01*
X120219047Y-124585714D01*
X120314285Y-124633333D01*
X120361904Y-124680952D01*
X120409523Y-124776190D01*
X120409523Y-125061904D01*
X120361904Y-125157142D01*
X120314285Y-125204761D01*
X120219047Y-125252380D01*
X120076190Y-125252380D01*
X120600000Y-125347619D02*
X121361904Y-125347619D01*
X122028571Y-124585714D02*
X122028571Y-125395238D01*
X121980952Y-125490476D01*
X121933333Y-125538095D01*
X121838095Y-125585714D01*
X121695238Y-125585714D01*
X121600000Y-125538095D01*
X122028571Y-125204761D02*
X121933333Y-125252380D01*
X121742857Y-125252380D01*
X121647619Y-125204761D01*
X121600000Y-125157142D01*
X121552380Y-125061904D01*
X121552380Y-124776190D01*
X121600000Y-124680952D01*
X121647619Y-124633333D01*
X121742857Y-124585714D01*
X121933333Y-124585714D01*
X122028571Y-124633333D01*
X122933333Y-125252380D02*
X122933333Y-124728571D01*
X122885714Y-124633333D01*
X122790476Y-124585714D01*
X122600000Y-124585714D01*
X122504761Y-124633333D01*
X122933333Y-125204761D02*
X122838095Y-125252380D01*
X122600000Y-125252380D01*
X122504761Y-125204761D01*
X122457142Y-125109523D01*
X122457142Y-125014285D01*
X122504761Y-124919047D01*
X122600000Y-124871428D01*
X122838095Y-124871428D01*
X122933333Y-124823809D01*
X123266666Y-124585714D02*
X123647619Y-124585714D01*
X123409523Y-124252380D02*
X123409523Y-125109523D01*
X123457142Y-125204761D01*
X123552380Y-125252380D01*
X123647619Y-125252380D01*
X124361904Y-125204761D02*
X124266666Y-125252380D01*
X124076190Y-125252380D01*
X123980952Y-125204761D01*
X123933333Y-125109523D01*
X123933333Y-124728571D01*
X123980952Y-124633333D01*
X124076190Y-124585714D01*
X124266666Y-124585714D01*
X124361904Y-124633333D01*
X124409523Y-124728571D01*
X124409523Y-124823809D01*
X123933333Y-124919047D01*
X125361904Y-125252380D02*
X124790476Y-125252380D01*
X125076190Y-125252380D02*
X125076190Y-124252380D01*
X124980952Y-124395238D01*
X124885714Y-124490476D01*
X124790476Y-124538095D01*
%TO.C,t8hbf1*%
X161676666Y-128185714D02*
X162057619Y-128185714D01*
X161819523Y-127852380D02*
X161819523Y-128709523D01*
X161867142Y-128804761D01*
X161962380Y-128852380D01*
X162057619Y-128852380D01*
X162533809Y-128280952D02*
X162438571Y-128233333D01*
X162390952Y-128185714D01*
X162343333Y-128090476D01*
X162343333Y-128042857D01*
X162390952Y-127947619D01*
X162438571Y-127900000D01*
X162533809Y-127852380D01*
X162724285Y-127852380D01*
X162819523Y-127900000D01*
X162867142Y-127947619D01*
X162914761Y-128042857D01*
X162914761Y-128090476D01*
X162867142Y-128185714D01*
X162819523Y-128233333D01*
X162724285Y-128280952D01*
X162533809Y-128280952D01*
X162438571Y-128328571D01*
X162390952Y-128376190D01*
X162343333Y-128471428D01*
X162343333Y-128661904D01*
X162390952Y-128757142D01*
X162438571Y-128804761D01*
X162533809Y-128852380D01*
X162724285Y-128852380D01*
X162819523Y-128804761D01*
X162867142Y-128757142D01*
X162914761Y-128661904D01*
X162914761Y-128471428D01*
X162867142Y-128376190D01*
X162819523Y-128328571D01*
X162724285Y-128280952D01*
X163343333Y-128852380D02*
X163343333Y-127852380D01*
X163771904Y-128852380D02*
X163771904Y-128328571D01*
X163724285Y-128233333D01*
X163629047Y-128185714D01*
X163486190Y-128185714D01*
X163390952Y-128233333D01*
X163343333Y-128280952D01*
X164248095Y-128852380D02*
X164248095Y-127852380D01*
X164248095Y-128233333D02*
X164343333Y-128185714D01*
X164533809Y-128185714D01*
X164629047Y-128233333D01*
X164676666Y-128280952D01*
X164724285Y-128376190D01*
X164724285Y-128661904D01*
X164676666Y-128757142D01*
X164629047Y-128804761D01*
X164533809Y-128852380D01*
X164343333Y-128852380D01*
X164248095Y-128804761D01*
X165010000Y-128185714D02*
X165390952Y-128185714D01*
X165152857Y-128852380D02*
X165152857Y-127995238D01*
X165200476Y-127900000D01*
X165295714Y-127852380D01*
X165390952Y-127852380D01*
X166248095Y-128852380D02*
X165676666Y-128852380D01*
X165962380Y-128852380D02*
X165962380Y-127852380D01*
X165867142Y-127995238D01*
X165771904Y-128090476D01*
X165676666Y-128138095D01*
%TO.C,C10*%
X122257142Y-111917142D02*
X122209523Y-111964761D01*
X122066666Y-112012380D01*
X121971428Y-112012380D01*
X121828571Y-111964761D01*
X121733333Y-111869523D01*
X121685714Y-111774285D01*
X121638095Y-111583809D01*
X121638095Y-111440952D01*
X121685714Y-111250476D01*
X121733333Y-111155238D01*
X121828571Y-111060000D01*
X121971428Y-111012380D01*
X122066666Y-111012380D01*
X122209523Y-111060000D01*
X122257142Y-111107619D01*
X123209523Y-112012380D02*
X122638095Y-112012380D01*
X122923809Y-112012380D02*
X122923809Y-111012380D01*
X122828571Y-111155238D01*
X122733333Y-111250476D01*
X122638095Y-111298095D01*
X123828571Y-111012380D02*
X123923809Y-111012380D01*
X124019047Y-111060000D01*
X124066666Y-111107619D01*
X124114285Y-111202857D01*
X124161904Y-111393333D01*
X124161904Y-111631428D01*
X124114285Y-111821904D01*
X124066666Y-111917142D01*
X124019047Y-111964761D01*
X123923809Y-112012380D01*
X123828571Y-112012380D01*
X123733333Y-111964761D01*
X123685714Y-111917142D01*
X123638095Y-111821904D01*
X123590476Y-111631428D01*
X123590476Y-111393333D01*
X123638095Y-111202857D01*
X123685714Y-111107619D01*
X123733333Y-111060000D01*
X123828571Y-111012380D01*
%TO.C,U1*%
X145802380Y-121761904D02*
X146611904Y-121761904D01*
X146707142Y-121714285D01*
X146754761Y-121666666D01*
X146802380Y-121571428D01*
X146802380Y-121380952D01*
X146754761Y-121285714D01*
X146707142Y-121238095D01*
X146611904Y-121190476D01*
X145802380Y-121190476D01*
X146802380Y-120190476D02*
X146802380Y-120761904D01*
X146802380Y-120476190D02*
X145802380Y-120476190D01*
X145945238Y-120571428D01*
X146040476Y-120666666D01*
X146088095Y-120761904D01*
%TO.C,C12*%
X153707142Y-116530357D02*
X153754761Y-116577976D01*
X153802380Y-116720833D01*
X153802380Y-116816071D01*
X153754761Y-116958928D01*
X153659523Y-117054166D01*
X153564285Y-117101785D01*
X153373809Y-117149404D01*
X153230952Y-117149404D01*
X153040476Y-117101785D01*
X152945238Y-117054166D01*
X152850000Y-116958928D01*
X152802380Y-116816071D01*
X152802380Y-116720833D01*
X152850000Y-116577976D01*
X152897619Y-116530357D01*
X153802380Y-115577976D02*
X153802380Y-116149404D01*
X153802380Y-115863690D02*
X152802380Y-115863690D01*
X152945238Y-115958928D01*
X153040476Y-116054166D01*
X153088095Y-116149404D01*
X152897619Y-115197023D02*
X152850000Y-115149404D01*
X152802380Y-115054166D01*
X152802380Y-114816071D01*
X152850000Y-114720833D01*
X152897619Y-114673214D01*
X152992857Y-114625595D01*
X153088095Y-114625595D01*
X153230952Y-114673214D01*
X153802380Y-115244642D01*
X153802380Y-114625595D01*
D11*
%TO.C,*%
D10*
%TO.C,R11*%
X111882380Y-139042857D02*
X111406190Y-139376190D01*
X111882380Y-139614285D02*
X110882380Y-139614285D01*
X110882380Y-139233333D01*
X110930000Y-139138095D01*
X110977619Y-139090476D01*
X111072857Y-139042857D01*
X111215714Y-139042857D01*
X111310952Y-139090476D01*
X111358571Y-139138095D01*
X111406190Y-139233333D01*
X111406190Y-139614285D01*
X111882380Y-138090476D02*
X111882380Y-138661904D01*
X111882380Y-138376190D02*
X110882380Y-138376190D01*
X111025238Y-138471428D01*
X111120476Y-138566666D01*
X111168095Y-138661904D01*
X111882380Y-137138095D02*
X111882380Y-137709523D01*
X111882380Y-137423809D02*
X110882380Y-137423809D01*
X111025238Y-137519047D01*
X111120476Y-137614285D01*
X111168095Y-137709523D01*
%TO.C,D3*%
X112261904Y-105992380D02*
X112261904Y-104992380D01*
X112500000Y-104992380D01*
X112642857Y-105040000D01*
X112738095Y-105135238D01*
X112785714Y-105230476D01*
X112833333Y-105420952D01*
X112833333Y-105563809D01*
X112785714Y-105754285D01*
X112738095Y-105849523D01*
X112642857Y-105944761D01*
X112500000Y-105992380D01*
X112261904Y-105992380D01*
X113166666Y-104992380D02*
X113785714Y-104992380D01*
X113452380Y-105373333D01*
X113595238Y-105373333D01*
X113690476Y-105420952D01*
X113738095Y-105468571D01*
X113785714Y-105563809D01*
X113785714Y-105801904D01*
X113738095Y-105897142D01*
X113690476Y-105944761D01*
X113595238Y-105992380D01*
X113309523Y-105992380D01*
X113214285Y-105944761D01*
X113166666Y-105897142D01*
%TO.C,L2*%
X174162267Y-129952030D02*
X173825549Y-129615312D01*
X174532656Y-128908206D01*
X175004061Y-129514297D02*
X175071404Y-129514297D01*
X175172419Y-129547969D01*
X175340778Y-129716328D01*
X175374450Y-129817343D01*
X175374450Y-129884687D01*
X175340778Y-129985702D01*
X175273435Y-130053045D01*
X175138748Y-130120389D01*
X174330625Y-130120389D01*
X174768358Y-130558122D01*
%TO.C,C2*%
X109080207Y-116225130D02*
X109147550Y-116225130D01*
X109282237Y-116292474D01*
X109349581Y-116359818D01*
X109416924Y-116494505D01*
X109416924Y-116629192D01*
X109383253Y-116730207D01*
X109282237Y-116898566D01*
X109181222Y-116999581D01*
X109012863Y-117100596D01*
X108911848Y-117134268D01*
X108777161Y-117134268D01*
X108642474Y-117066924D01*
X108575130Y-116999581D01*
X108507787Y-116864894D01*
X108507787Y-116797550D01*
X108238413Y-116528176D02*
X108171069Y-116528176D01*
X108070054Y-116494505D01*
X107901695Y-116326146D01*
X107868024Y-116225130D01*
X107868024Y-116157787D01*
X107901695Y-116056772D01*
X107969039Y-115989428D01*
X108103726Y-115922085D01*
X108911848Y-115922085D01*
X108474115Y-115484352D01*
%TO.C,C13*%
X185407142Y-118407142D02*
X185359523Y-118454761D01*
X185216666Y-118502380D01*
X185121428Y-118502380D01*
X184978571Y-118454761D01*
X184883333Y-118359523D01*
X184835714Y-118264285D01*
X184788095Y-118073809D01*
X184788095Y-117930952D01*
X184835714Y-117740476D01*
X184883333Y-117645238D01*
X184978571Y-117550000D01*
X185121428Y-117502380D01*
X185216666Y-117502380D01*
X185359523Y-117550000D01*
X185407142Y-117597619D01*
X186359523Y-118502380D02*
X185788095Y-118502380D01*
X186073809Y-118502380D02*
X186073809Y-117502380D01*
X185978571Y-117645238D01*
X185883333Y-117740476D01*
X185788095Y-117788095D01*
X186692857Y-117502380D02*
X187311904Y-117502380D01*
X186978571Y-117883333D01*
X187121428Y-117883333D01*
X187216666Y-117930952D01*
X187264285Y-117978571D01*
X187311904Y-118073809D01*
X187311904Y-118311904D01*
X187264285Y-118407142D01*
X187216666Y-118454761D01*
X187121428Y-118502380D01*
X186835714Y-118502380D01*
X186740476Y-118454761D01*
X186692857Y-118407142D01*
%TO.C,R10*%
X108854149Y-108763287D02*
X108281730Y-108662272D01*
X108450088Y-109167348D02*
X107742982Y-108460241D01*
X108012356Y-108190867D01*
X108113371Y-108157195D01*
X108180714Y-108157195D01*
X108281730Y-108190867D01*
X108382745Y-108291882D01*
X108416417Y-108392898D01*
X108416417Y-108460241D01*
X108382745Y-108561256D01*
X108113371Y-108830630D01*
X109527585Y-108089852D02*
X109123524Y-108493913D01*
X109325554Y-108291882D02*
X108618447Y-107584775D01*
X108652119Y-107753134D01*
X108652119Y-107887821D01*
X108618447Y-107988837D01*
X109258211Y-106945012D02*
X109325554Y-106877669D01*
X109426569Y-106843997D01*
X109493913Y-106843997D01*
X109594928Y-106877669D01*
X109763287Y-106978684D01*
X109931646Y-107147043D01*
X110032661Y-107315401D01*
X110066333Y-107416417D01*
X110066333Y-107483760D01*
X110032661Y-107584775D01*
X109965317Y-107652119D01*
X109864302Y-107685791D01*
X109796959Y-107685791D01*
X109695943Y-107652119D01*
X109527585Y-107551104D01*
X109359226Y-107382745D01*
X109258211Y-107214386D01*
X109224539Y-107113371D01*
X109224539Y-107046027D01*
X109258211Y-106945012D01*
%TO.C,R4*%
X120952029Y-108087732D02*
X120379609Y-107986717D01*
X120547968Y-108491793D02*
X119840861Y-107784687D01*
X120110235Y-107515312D01*
X120211250Y-107481641D01*
X120278594Y-107481641D01*
X120379609Y-107515312D01*
X120480624Y-107616328D01*
X120514296Y-107717343D01*
X120514296Y-107784687D01*
X120480624Y-107885702D01*
X120211250Y-108155076D01*
X121086716Y-107010236D02*
X121558121Y-107481641D01*
X120648983Y-106909221D02*
X120985701Y-107582656D01*
X121423434Y-107144923D01*
%TO.C,C9*%
X150433333Y-136157142D02*
X150385714Y-136204761D01*
X150242857Y-136252380D01*
X150147619Y-136252380D01*
X150004761Y-136204761D01*
X149909523Y-136109523D01*
X149861904Y-136014285D01*
X149814285Y-135823809D01*
X149814285Y-135680952D01*
X149861904Y-135490476D01*
X149909523Y-135395238D01*
X150004761Y-135300000D01*
X150147619Y-135252380D01*
X150242857Y-135252380D01*
X150385714Y-135300000D01*
X150433333Y-135347619D01*
X150909523Y-136252380D02*
X151100000Y-136252380D01*
X151195238Y-136204761D01*
X151242857Y-136157142D01*
X151338095Y-136014285D01*
X151385714Y-135823809D01*
X151385714Y-135442857D01*
X151338095Y-135347619D01*
X151290476Y-135300000D01*
X151195238Y-135252380D01*
X151004761Y-135252380D01*
X150909523Y-135300000D01*
X150861904Y-135347619D01*
X150814285Y-135442857D01*
X150814285Y-135680952D01*
X150861904Y-135776190D01*
X150909523Y-135823809D01*
X151004761Y-135871428D01*
X151195238Y-135871428D01*
X151290476Y-135823809D01*
X151338095Y-135776190D01*
X151385714Y-135680952D01*
%TO.C,t7hbc1*%
X148973809Y-125735714D02*
X149354761Y-125735714D01*
X149116666Y-125402380D02*
X149116666Y-126259523D01*
X149164285Y-126354761D01*
X149259523Y-126402380D01*
X149354761Y-126402380D01*
X149592857Y-125402380D02*
X150259523Y-125402380D01*
X149830952Y-126402380D01*
X150640476Y-126402380D02*
X150640476Y-125402380D01*
X151069047Y-126402380D02*
X151069047Y-125878571D01*
X151021428Y-125783333D01*
X150926190Y-125735714D01*
X150783333Y-125735714D01*
X150688095Y-125783333D01*
X150640476Y-125830952D01*
X151545238Y-126402380D02*
X151545238Y-125402380D01*
X151545238Y-125783333D02*
X151640476Y-125735714D01*
X151830952Y-125735714D01*
X151926190Y-125783333D01*
X151973809Y-125830952D01*
X152021428Y-125926190D01*
X152021428Y-126211904D01*
X151973809Y-126307142D01*
X151926190Y-126354761D01*
X151830952Y-126402380D01*
X151640476Y-126402380D01*
X151545238Y-126354761D01*
X152878571Y-126354761D02*
X152783333Y-126402380D01*
X152592857Y-126402380D01*
X152497619Y-126354761D01*
X152450000Y-126307142D01*
X152402380Y-126211904D01*
X152402380Y-125926190D01*
X152450000Y-125830952D01*
X152497619Y-125783333D01*
X152592857Y-125735714D01*
X152783333Y-125735714D01*
X152878571Y-125783333D01*
X153830952Y-126402380D02*
X153259523Y-126402380D01*
X153545238Y-126402380D02*
X153545238Y-125402380D01*
X153450000Y-125545238D01*
X153354761Y-125640476D01*
X153259523Y-125688095D01*
%TO.C,BN1*%
X172721428Y-109578571D02*
X172864285Y-109626190D01*
X172911904Y-109673809D01*
X172959523Y-109769047D01*
X172959523Y-109911904D01*
X172911904Y-110007142D01*
X172864285Y-110054761D01*
X172769047Y-110102380D01*
X172388095Y-110102380D01*
X172388095Y-109102380D01*
X172721428Y-109102380D01*
X172816666Y-109150000D01*
X172864285Y-109197619D01*
X172911904Y-109292857D01*
X172911904Y-109388095D01*
X172864285Y-109483333D01*
X172816666Y-109530952D01*
X172721428Y-109578571D01*
X172388095Y-109578571D01*
X173388095Y-110102380D02*
X173388095Y-109102380D01*
X173959523Y-110102380D01*
X173959523Y-109102380D01*
X174959523Y-110102380D02*
X174388095Y-110102380D01*
X174673809Y-110102380D02*
X174673809Y-109102380D01*
X174578571Y-109245238D01*
X174483333Y-109340476D01*
X174388095Y-109388095D01*
%TO.C,C1*%
X100927142Y-128626666D02*
X100974761Y-128674285D01*
X101022380Y-128817142D01*
X101022380Y-128912380D01*
X100974761Y-129055238D01*
X100879523Y-129150476D01*
X100784285Y-129198095D01*
X100593809Y-129245714D01*
X100450952Y-129245714D01*
X100260476Y-129198095D01*
X100165238Y-129150476D01*
X100070000Y-129055238D01*
X100022380Y-128912380D01*
X100022380Y-128817142D01*
X100070000Y-128674285D01*
X100117619Y-128626666D01*
X101022380Y-127674285D02*
X101022380Y-128245714D01*
X101022380Y-127960000D02*
X100022380Y-127960000D01*
X100165238Y-128055238D01*
X100260476Y-128150476D01*
X100308095Y-128245714D01*
%TO.C,D4*%
X119261904Y-139902380D02*
X119261904Y-138902380D01*
X119500000Y-138902380D01*
X119642857Y-138950000D01*
X119738095Y-139045238D01*
X119785714Y-139140476D01*
X119833333Y-139330952D01*
X119833333Y-139473809D01*
X119785714Y-139664285D01*
X119738095Y-139759523D01*
X119642857Y-139854761D01*
X119500000Y-139902380D01*
X119261904Y-139902380D01*
X120690476Y-139235714D02*
X120690476Y-139902380D01*
X120452380Y-138854761D02*
X120214285Y-139569047D01*
X120833333Y-139569047D01*
%TO.C,C8*%
X161169642Y-106216666D02*
X161217261Y-106264285D01*
X161264880Y-106407142D01*
X161264880Y-106502380D01*
X161217261Y-106645238D01*
X161122023Y-106740476D01*
X161026785Y-106788095D01*
X160836309Y-106835714D01*
X160693452Y-106835714D01*
X160502976Y-106788095D01*
X160407738Y-106740476D01*
X160312500Y-106645238D01*
X160264880Y-106502380D01*
X160264880Y-106407142D01*
X160312500Y-106264285D01*
X160360119Y-106216666D01*
X160693452Y-105645238D02*
X160645833Y-105740476D01*
X160598214Y-105788095D01*
X160502976Y-105835714D01*
X160455357Y-105835714D01*
X160360119Y-105788095D01*
X160312500Y-105740476D01*
X160264880Y-105645238D01*
X160264880Y-105454761D01*
X160312500Y-105359523D01*
X160360119Y-105311904D01*
X160455357Y-105264285D01*
X160502976Y-105264285D01*
X160598214Y-105311904D01*
X160645833Y-105359523D01*
X160693452Y-105454761D01*
X160693452Y-105645238D01*
X160741071Y-105740476D01*
X160788690Y-105788095D01*
X160883928Y-105835714D01*
X161074404Y-105835714D01*
X161169642Y-105788095D01*
X161217261Y-105740476D01*
X161264880Y-105645238D01*
X161264880Y-105454761D01*
X161217261Y-105359523D01*
X161169642Y-105311904D01*
X161074404Y-105264285D01*
X160883928Y-105264285D01*
X160788690Y-105311904D01*
X160741071Y-105359523D01*
X160693452Y-105454761D01*
%TO.C,BNOut4*%
X182009523Y-131828571D02*
X182152380Y-131876190D01*
X182200000Y-131923809D01*
X182247619Y-132019047D01*
X182247619Y-132161904D01*
X182200000Y-132257142D01*
X182152380Y-132304761D01*
X182057142Y-132352380D01*
X181676190Y-132352380D01*
X181676190Y-131352380D01*
X182009523Y-131352380D01*
X182104761Y-131400000D01*
X182152380Y-131447619D01*
X182200000Y-131542857D01*
X182200000Y-131638095D01*
X182152380Y-131733333D01*
X182104761Y-131780952D01*
X182009523Y-131828571D01*
X181676190Y-131828571D01*
X182676190Y-132352380D02*
X182676190Y-131352380D01*
X183247619Y-132352380D01*
X183247619Y-131352380D01*
X183914285Y-131352380D02*
X184104761Y-131352380D01*
X184200000Y-131400000D01*
X184295238Y-131495238D01*
X184342857Y-131685714D01*
X184342857Y-132019047D01*
X184295238Y-132209523D01*
X184200000Y-132304761D01*
X184104761Y-132352380D01*
X183914285Y-132352380D01*
X183819047Y-132304761D01*
X183723809Y-132209523D01*
X183676190Y-132019047D01*
X183676190Y-131685714D01*
X183723809Y-131495238D01*
X183819047Y-131400000D01*
X183914285Y-131352380D01*
X185200000Y-131685714D02*
X185200000Y-132352380D01*
X184771428Y-131685714D02*
X184771428Y-132209523D01*
X184819047Y-132304761D01*
X184914285Y-132352380D01*
X185057142Y-132352380D01*
X185152380Y-132304761D01*
X185200000Y-132257142D01*
X185533333Y-131685714D02*
X185914285Y-131685714D01*
X185676190Y-131352380D02*
X185676190Y-132209523D01*
X185723809Y-132304761D01*
X185819047Y-132352380D01*
X185914285Y-132352380D01*
X186676190Y-131685714D02*
X186676190Y-132352380D01*
X186438095Y-131304761D02*
X186200000Y-132019047D01*
X186819047Y-132019047D01*
%TO.C,D2*%
X171201918Y-120245742D02*
X170494811Y-119538636D01*
X170663170Y-119370277D01*
X170797857Y-119302933D01*
X170932544Y-119302933D01*
X171033559Y-119336605D01*
X171201918Y-119437620D01*
X171302933Y-119538636D01*
X171403949Y-119706994D01*
X171437620Y-119808010D01*
X171437620Y-119942697D01*
X171370277Y-120077384D01*
X171201918Y-120245742D01*
X171235590Y-118932544D02*
X171235590Y-118865200D01*
X171269261Y-118764185D01*
X171437620Y-118595826D01*
X171538636Y-118562155D01*
X171605979Y-118562155D01*
X171706994Y-118595826D01*
X171774338Y-118663170D01*
X171841681Y-118797857D01*
X171841681Y-119605979D01*
X172279414Y-119168246D01*
%TO.C,C7*%
X-101783333Y807142D02*
X-101735714Y854761D01*
X-101592857Y902380D01*
X-101497619Y902380D01*
X-101354761Y854761D01*
X-101259523Y759523D01*
X-101211904Y664285D01*
X-101164285Y473809D01*
X-101164285Y330952D01*
X-101211904Y140476D01*
X-101259523Y45238D01*
X-101354761Y-50000D01*
X-101497619Y-97619D01*
X-101592857Y-97619D01*
X-101735714Y-50000D01*
X-101783333Y-2380D01*
X-102116666Y-97619D02*
X-102783333Y-97619D01*
X-102354761Y902380D01*
X137956952Y-141688571D02*
X137195047Y-141688571D01*
X166404952Y-145244571D02*
X165643047Y-145244571D01*
X166024000Y-144863619D02*
X166024000Y-145625523D01*
%TO.C,M4*%
X104444476Y-149770380D02*
X104444476Y-148770380D01*
X104777809Y-149484666D01*
X105111142Y-148770380D01*
X105111142Y-149770380D01*
X106015904Y-149103714D02*
X106015904Y-149770380D01*
X105777809Y-148722761D02*
X105539714Y-149437047D01*
X106158761Y-149437047D01*
D12*
%TO.C,C11*%
X116050000Y-136512000D02*
X113256000Y-136512000D01*
X112494000Y-135496000D02*
X112494000Y-136004000D01*
X116050000Y-134988000D02*
X116050000Y-136512000D01*
X112748000Y-135750000D02*
X112240000Y-135750000D01*
X116050000Y-134988000D02*
X113256000Y-134988000D01*
%TO.C,R12*%
X140428191Y-145499439D02*
X139350561Y-144421809D01*
%TO.C,R1*%
X119268000Y-120277500D02*
X120792000Y-120277500D01*
%TO.C,D1*%
X115538815Y-115538815D02*
X114461185Y-114461185D01*
X115000000Y-115000000D02*
X115179605Y-115898026D01*
X114101974Y-114820395D02*
X114281580Y-115000000D01*
X115000000Y-115000000D02*
X114101974Y-114820395D01*
X117514472Y-112485528D02*
X117155261Y-112844739D01*
X115179605Y-115898026D02*
X115000000Y-115718420D01*
X112665133Y-117334867D02*
X112844739Y-117155261D01*
%TO.C,C4*%
X114490000Y-121353733D02*
X114490000Y-121646267D01*
X115510000Y-121353733D02*
X115510000Y-121646267D01*
%TO.C,C5*%
X160834252Y-120540000D02*
X163665748Y-120540000D01*
X160834252Y-125760000D02*
X163665748Y-125760000D01*
%TO.C,L1*%
X160073397Y-129838154D02*
G75*
G03*
X156860523Y-129838154I-1606437J-1606433D01*
G01*
X156860523Y-126944454D02*
G75*
G03*
X153966823Y-126944454I-1446850J-1446850D01*
G01*
X153966823Y-126944454D02*
G75*
G03*
X154515647Y-124619596I-1606435J1606436D01*
G01*
X156860523Y-129838154D02*
G75*
G03*
X156860523Y-126944454I-1446850J1446850D01*
G01*
%TO.C,C3*%
X114440000Y-127703733D02*
X114440000Y-127996267D01*
X115460000Y-127703733D02*
X115460000Y-127996267D01*
%TO.C,U2*%
X129460000Y-126980000D02*
X129460000Y-137220000D01*
X129460000Y-134640000D02*
X126920000Y-134640000D01*
X129460000Y-129560000D02*
X126920000Y-129560000D01*
X145350000Y-126980000D02*
X129460000Y-126980000D01*
X145350000Y-137220000D02*
X129460000Y-137220000D01*
X129460000Y-132100000D02*
X126920000Y-132100000D01*
X145350000Y-126980000D02*
X145350000Y-137220000D01*
D13*
%TO.C,C6*%
X162050000Y-107450000D02*
G75*
G03*
X162050000Y-107450000I-12500000J0D01*
G01*
D12*
%TO.C,R3*%
X176760000Y-116353733D02*
X176760000Y-116646267D01*
X175740000Y-116353733D02*
X175740000Y-116646267D01*
%TO.C,U4*%
X106615000Y-119720000D02*
X104950000Y-119720000D01*
%TO.C,R2*%
X119118000Y-129000000D02*
X120642000Y-129000000D01*
%TO.C,C10*%
X122900000Y-114862000D02*
X120106000Y-114862000D01*
X119598000Y-114100000D02*
X119090000Y-114100000D01*
X122900000Y-113338000D02*
X120106000Y-113338000D01*
X119344000Y-113846000D02*
X119344000Y-114354000D01*
X122900000Y-113338000D02*
X122900000Y-114862000D01*
%TO.C,U1*%
X145350000Y-126120000D02*
X129460000Y-126120000D01*
X145350000Y-115880000D02*
X145350000Y-126120000D01*
X145350000Y-115880000D02*
X129460000Y-115880000D01*
X129460000Y-121000000D02*
X126920000Y-121000000D01*
X129460000Y-123540000D02*
X126920000Y-123540000D01*
X129460000Y-118460000D02*
X126920000Y-118460000D01*
X129460000Y-115880000D02*
X129460000Y-126120000D01*
%TO.C,C12*%
X152310000Y-114471752D02*
X152310000Y-117303248D01*
X147090000Y-114471752D02*
X147090000Y-117303248D01*
D14*
%TO.C,*%
X176755235Y-148034919D02*
X176755235Y-148415919D01*
X172818235Y-148796919D02*
X173961235Y-148796919D01*
X175993235Y-148415919D02*
X175739235Y-148415919D01*
X177263235Y-147272919D02*
X177263235Y-148796919D01*
X172818235Y-148796919D02*
X172818235Y-149050919D01*
X176374235Y-147653919D02*
X176374235Y-148415919D01*
X176501235Y-148034919D02*
X176755235Y-148034919D01*
X175739235Y-148034919D02*
X175993235Y-148034919D01*
X175993235Y-148034919D02*
X175993235Y-148415919D01*
X175231235Y-148288919D02*
X175358235Y-148415919D01*
X175993235Y-147653919D02*
X175739235Y-147653919D01*
X174596235Y-148669919D02*
X174596235Y-147272919D01*
X173072235Y-147907919D02*
X172691235Y-148288919D01*
X174977235Y-148034919D02*
X175231235Y-148034919D01*
X174596235Y-147272919D02*
X177263235Y-147272919D01*
X173453235Y-147907919D02*
X173834235Y-148288919D01*
X173580235Y-149050919D02*
X173580235Y-148796919D01*
X175231235Y-148034919D02*
X175231235Y-148288919D01*
X175739235Y-147653919D02*
X175739235Y-148034919D01*
X174977235Y-148288919D02*
X174977235Y-148034919D01*
X173834235Y-147907919D02*
X173453235Y-148288919D01*
X172691235Y-147907919D02*
X173072235Y-148288919D01*
X177263235Y-148796919D02*
X174342235Y-148796919D01*
D12*
%TO.C,R11*%
X109490000Y-138253733D02*
X109490000Y-138546267D01*
X110510000Y-138253733D02*
X110510000Y-138546267D01*
%TO.C,D3*%
X113000000Y-103762000D02*
X113000000Y-102238000D01*
X109698000Y-103000000D02*
X109952000Y-103000000D01*
X116556000Y-103000000D02*
X116048000Y-103000000D01*
X113000000Y-103000000D02*
X112492000Y-103762000D01*
X113000000Y-103000000D02*
X112492000Y-102238000D01*
X112492000Y-102238000D02*
X112492000Y-102492000D01*
X112492000Y-103762000D02*
X112492000Y-103508000D01*
%TO.C,L2*%
X175426318Y-128910249D02*
G75*
G03*
X172532618Y-128910249I-1446850J-1446850D01*
G01*
X172532618Y-128910249D02*
G75*
G03*
X173081442Y-126585391I-1606435J1606436D01*
G01*
X178639192Y-131803949D02*
G75*
G03*
X175426318Y-131803949I-1606437J-1606433D01*
G01*
X175426318Y-131803949D02*
G75*
G03*
X175426318Y-128910249I-1446850J1446850D01*
G01*
%TO.C,C2*%
X103015133Y-110305923D02*
X102655923Y-110665133D01*
X105888815Y-112461185D02*
X103913159Y-110485528D01*
X103015133Y-110665133D02*
X102655923Y-110305923D01*
X105888815Y-112461185D02*
X104811185Y-113538815D01*
X104811185Y-113538815D02*
X102835528Y-111563159D01*
%TO.C,C13*%
X185310000Y-116646752D02*
X185310000Y-119478248D01*
X180090000Y-116646752D02*
X180090000Y-119478248D01*
%TO.C,R10*%
X110257198Y-109464051D02*
X110464051Y-109257198D01*
X109535949Y-108742802D02*
X109742802Y-108535949D01*
%TO.C,R4*%
X121261185Y-108061185D02*
X122338815Y-109138815D01*
%TO.C,C9*%
X152015748Y-129540000D02*
X149184252Y-129540000D01*
X152015748Y-134760000D02*
X149184252Y-134760000D01*
%TO.C,C1*%
X101490000Y-128606267D02*
X101490000Y-128313733D01*
X102510000Y-128606267D02*
X102510000Y-128313733D01*
%TO.C,D4*%
X115465000Y-138638000D02*
X115465000Y-138892000D01*
X119529000Y-139400000D02*
X119021000Y-139400000D01*
X115465000Y-140162000D02*
X115465000Y-139908000D01*
X115973000Y-139400000D02*
X115465000Y-138638000D01*
X115973000Y-140162000D02*
X115973000Y-138638000D01*
X115973000Y-139400000D02*
X115465000Y-140162000D01*
X112671000Y-139400000D02*
X112925000Y-139400000D01*
%TO.C,C8*%
X167072500Y-107465748D02*
X167072500Y-104634252D01*
X161852500Y-107465748D02*
X161852500Y-104634252D01*
%TO.C,D2*%
X172661185Y-120661185D02*
X173738815Y-121738815D01*
X175534867Y-118865133D02*
X175355261Y-119044739D01*
X173020395Y-120301974D02*
X173200000Y-120481580D01*
X173200000Y-121200000D02*
X174098026Y-121379605D01*
X170685528Y-123714472D02*
X171044739Y-123355261D01*
X174098026Y-121379605D02*
X173918420Y-121200000D01*
X173200000Y-121200000D02*
X173020395Y-120301974D01*
D13*
%TO.C,C7*%
X164300000Y-144300000D02*
G75*
G03*
X164300000Y-144300000I-12500000J0D01*
G01*
%TD*%
M02*
