%TF.GenerationSoftware,KiCad,Pcbnew,6.0.4*%
%TF.CreationDate,2022-07-27T16:30:24-04:00*%
%TF.ProjectId,verter,76657274-6572-42e6-9b69-6361645f7063,rev?*%
%TF.SameCoordinates,Original*%
%TF.FileFunction,Paste,Top*%
%TF.FilePolarity,Positive*%
%FSLAX46Y46*%
G04 Gerber Fmt 4.6, Leading zero omitted, Abs format (unit mm)*
G04 Created by KiCad (PCBNEW 6.0.4) date 2022-07-27 16:30:24*
%MOMM*%
%LPD*%
G01*
G04 APERTURE LIST*
G04 Aperture macros list*
%AMRoundRect*
0 Rectangle with rounded corners*
0 $1 Rounding radius*
0 $2 $3 $4 $5 $6 $7 $8 $9 X,Y pos of 4 corners*
0 Add a 4 corners polygon primitive as box body*
4,1,4,$2,$3,$4,$5,$6,$7,$8,$9,$2,$3,0*
0 Add four circle primitives for the rounded corners*
1,1,$1+$1,$2,$3*
1,1,$1+$1,$4,$5*
1,1,$1+$1,$6,$7*
1,1,$1+$1,$8,$9*
0 Add four rect primitives between the rounded corners*
20,1,$1+$1,$2,$3,$4,$5,0*
20,1,$1+$1,$4,$5,$6,$7,0*
20,1,$1+$1,$6,$7,$8,$9,0*
20,1,$1+$1,$8,$9,$2,$3,0*%
%AMOutline5P*
0 Free polygon, 5 corners , with rotation*
0 The origin of the aperture is its center*
0 number of corners: always 5*
0 $1 to $10 corner X, Y*
0 $11 Rotation angle, in degrees counterclockwise*
0 create outline with 5 corners*
4,1,5,$1,$2,$3,$4,$5,$6,$7,$8,$9,$10,$1,$2,$11*%
%AMOutline6P*
0 Free polygon, 6 corners , with rotation*
0 The origin of the aperture is its center*
0 number of corners: always 6*
0 $1 to $12 corner X, Y*
0 $13 Rotation angle, in degrees counterclockwise*
0 create outline with 6 corners*
4,1,6,$1,$2,$3,$4,$5,$6,$7,$8,$9,$10,$11,$12,$1,$2,$13*%
%AMOutline7P*
0 Free polygon, 7 corners , with rotation*
0 The origin of the aperture is its center*
0 number of corners: always 7*
0 $1 to $14 corner X, Y*
0 $15 Rotation angle, in degrees counterclockwise*
0 create outline with 7 corners*
4,1,7,$1,$2,$3,$4,$5,$6,$7,$8,$9,$10,$11,$12,$13,$14,$1,$2,$15*%
%AMOutline8P*
0 Free polygon, 8 corners , with rotation*
0 The origin of the aperture is its center*
0 number of corners: always 8*
0 $1 to $16 corner X, Y*
0 $17 Rotation angle, in degrees counterclockwise*
0 create outline with 8 corners*
4,1,8,$1,$2,$3,$4,$5,$6,$7,$8,$9,$10,$11,$12,$13,$14,$15,$16,$1,$2,$17*%
G04 Aperture macros list end*
%ADD10Outline6P,-1.143000X0.762000X0.838200X0.762000X1.143000X0.457200X1.143000X-0.457200X0.838200X-0.762000X-1.143000X-0.762000X0.000000*%
%ADD11RoundRect,0.135000X-0.135000X-0.185000X0.135000X-0.185000X0.135000X0.185000X-0.135000X0.185000X0*%
%ADD12Outline6P,-1.143000X0.457200X-0.838200X0.762000X1.143000X0.762000X1.143000X-0.762000X-0.838200X-0.762000X-1.143000X-0.457200X0.000000*%
%ADD13RoundRect,0.135000X-0.035355X0.226274X-0.226274X0.035355X0.035355X-0.226274X0.226274X-0.035355X0*%
%ADD14Outline6P,-1.143000X0.762000X0.838200X0.762000X1.143000X0.457200X1.143000X-0.457200X0.838200X-0.762000X-1.143000X-0.762000X225.000000*%
%ADD15Outline6P,-1.143000X0.457200X-0.838200X0.762000X1.143000X0.762000X1.143000X-0.762000X-0.838200X-0.762000X-1.143000X-0.457200X225.000000*%
%ADD16Outline6P,-1.143000X0.762000X0.838200X0.762000X1.143000X0.457200X1.143000X-0.457200X0.838200X-0.762000X-1.143000X-0.762000X90.000000*%
%ADD17RoundRect,0.135000X0.185000X-0.135000X0.185000X0.135000X-0.185000X0.135000X-0.185000X-0.135000X0*%
%ADD18Outline6P,-1.143000X0.457200X-0.838200X0.762000X1.143000X0.762000X1.143000X-0.762000X-0.838200X-0.762000X-1.143000X-0.457200X90.000000*%
%ADD19RoundRect,0.237500X-0.237500X0.300000X-0.237500X-0.300000X0.237500X-0.300000X0.237500X0.300000X0*%
%ADD20RoundRect,0.249999X-0.737501X-2.450001X0.737501X-2.450001X0.737501X2.450001X-0.737501X2.450001X0*%
%ADD21R,16.262000X9.762000*%
%ADD22RoundRect,0.137500X-0.662500X-0.137500X0.662500X-0.137500X0.662500X0.137500X-0.662500X0.137500X0*%
%ADD23RoundRect,0.249999X-2.450001X0.737501X-2.450001X-0.737501X2.450001X-0.737501X2.450001X0.737501X0*%
%ADD24RoundRect,0.135000X0.135000X0.185000X-0.135000X0.185000X-0.135000X-0.185000X0.135000X-0.185000X0*%
%ADD25Outline6P,-1.143000X0.762000X0.838200X0.762000X1.143000X0.457200X1.143000X-0.457200X0.838200X-0.762000X-1.143000X-0.762000X180.000000*%
%ADD26Outline6P,-1.143000X0.457200X-0.838200X0.762000X1.143000X0.762000X1.143000X-0.762000X-0.838200X-0.762000X-1.143000X-0.457200X180.000000*%
%ADD27RoundRect,0.135000X-0.226274X-0.035355X-0.035355X-0.226274X0.226274X0.035355X0.035355X0.226274X0*%
%ADD28Outline6P,-1.143000X0.762000X0.838200X0.762000X1.143000X0.457200X1.143000X-0.457200X0.838200X-0.762000X-1.143000X-0.762000X315.000000*%
%ADD29Outline6P,-1.143000X0.457200X-0.838200X0.762000X1.143000X0.762000X1.143000X-0.762000X-0.838200X-0.762000X-1.143000X-0.457200X315.000000*%
%ADD30RoundRect,0.237500X-0.044194X-0.380070X0.380070X0.044194X0.044194X0.380070X-0.380070X-0.044194X0*%
%ADD31RoundRect,0.135000X0.035355X-0.226274X0.226274X-0.035355X-0.035355X0.226274X-0.226274X0.035355X0*%
%ADD32Outline6P,-1.143000X0.762000X0.838200X0.762000X1.143000X0.457200X1.143000X-0.457200X0.838200X-0.762000X-1.143000X-0.762000X45.000000*%
%ADD33Outline6P,-1.143000X0.457200X-0.838200X0.762000X1.143000X0.762000X1.143000X-0.762000X-0.838200X-0.762000X-1.143000X-0.457200X45.000000*%
%ADD34RoundRect,0.249999X0.737501X2.450001X-0.737501X2.450001X-0.737501X-2.450001X0.737501X-2.450001X0*%
%ADD35RoundRect,0.237500X0.237500X-0.300000X0.237500X0.300000X-0.237500X0.300000X-0.237500X-0.300000X0*%
%ADD36RoundRect,0.249999X2.450001X-0.737501X2.450001X0.737501X-2.450001X0.737501X-2.450001X-0.737501X0*%
G04 APERTURE END LIST*
D10*
%TO.C,C11*%
X114272000Y-135750000D03*
D11*
X115540000Y-135750000D03*
D12*
X117828000Y-135750000D03*
D11*
X116560000Y-135750000D03*
%TD*%
D13*
%TO.C,R12*%
X140250000Y-144600000D03*
D14*
X141146612Y-143703388D03*
D13*
X139528752Y-145321248D03*
D15*
X138632140Y-146217860D03*
%TD*%
D16*
%TO.C,R1*%
X120030000Y-122055500D03*
D17*
X120030000Y-120787500D03*
D18*
X120030000Y-118499500D03*
D17*
X120030000Y-119767500D03*
%TD*%
D14*
%TO.C,D1*%
X116257236Y-113742764D03*
D13*
X115360624Y-114639376D03*
X114639376Y-115360624D03*
D15*
X113742764Y-116257236D03*
%TD*%
D19*
%TO.C,C4*%
X115000000Y-120637500D03*
X115000000Y-122362500D03*
%TD*%
D20*
%TO.C,C5*%
X159612500Y-123150000D03*
X164887500Y-123150000D03*
%TD*%
D19*
%TO.C,C3*%
X114950000Y-126987500D03*
X114950000Y-128712500D03*
%TD*%
D21*
%TO.C,U2*%
X136901000Y-132179000D03*
%TD*%
D19*
%TO.C,R3*%
X176250000Y-115637500D03*
X176250000Y-117362500D03*
%TD*%
D22*
%TO.C,U4*%
X105750000Y-120255000D03*
X105750000Y-121525000D03*
X105750000Y-122795000D03*
X105750000Y-124065000D03*
X105750000Y-125335000D03*
X105750000Y-126605000D03*
X105750000Y-127875000D03*
X105750000Y-129145000D03*
X112250000Y-129145000D03*
X112250000Y-127875000D03*
X112250000Y-126605000D03*
X112250000Y-125335000D03*
X112250000Y-124065000D03*
X112250000Y-122795000D03*
X112250000Y-121525000D03*
X112250000Y-120255000D03*
%TD*%
D16*
%TO.C,R2*%
X119880000Y-130778000D03*
D17*
X119880000Y-129510000D03*
X119880000Y-128490000D03*
D18*
X119880000Y-127222000D03*
%TD*%
D10*
%TO.C,C10*%
X121122000Y-114100000D03*
D11*
X122390000Y-114100000D03*
D12*
X124678000Y-114100000D03*
D11*
X123410000Y-114100000D03*
%TD*%
D21*
%TO.C,U1*%
X136901000Y-121079000D03*
%TD*%
D23*
%TO.C,C12*%
X149700000Y-113250000D03*
X149700000Y-118525000D03*
%TD*%
D19*
%TO.C,R11*%
X110000000Y-137537500D03*
X110000000Y-139262500D03*
%TD*%
D24*
%TO.C,D3*%
X113510000Y-103000000D03*
D25*
X114778000Y-103000000D03*
D24*
X112490000Y-103000000D03*
D26*
X111222000Y-103000000D03*
%TD*%
D27*
%TO.C,C2*%
X104989376Y-112639376D03*
D28*
X104092764Y-111742764D03*
D27*
X105710624Y-113360624D03*
D29*
X106607236Y-114257236D03*
%TD*%
D23*
%TO.C,C13*%
X182700000Y-115425000D03*
X182700000Y-120700000D03*
%TD*%
D30*
%TO.C,R10*%
X109390120Y-109609880D03*
X110609880Y-108390120D03*
%TD*%
D31*
%TO.C,R4*%
X121439376Y-108960624D03*
D32*
X120542764Y-109857236D03*
D33*
X123057236Y-107342764D03*
D31*
X122160624Y-108239376D03*
%TD*%
D34*
%TO.C,C9*%
X153237500Y-132150000D03*
X147962500Y-132150000D03*
%TD*%
D35*
%TO.C,C1*%
X102000000Y-129322500D03*
X102000000Y-127597500D03*
%TD*%
D24*
%TO.C,D4*%
X116483000Y-139400000D03*
D25*
X117751000Y-139400000D03*
D26*
X114195000Y-139400000D03*
D24*
X115463000Y-139400000D03*
%TD*%
D36*
%TO.C,C8*%
X164462500Y-108687500D03*
X164462500Y-103412500D03*
%TD*%
D31*
%TO.C,D2*%
X172839376Y-121560624D03*
D32*
X171942764Y-122457236D03*
D31*
X173560624Y-120839376D03*
D33*
X174457236Y-119942764D03*
%TD*%
M02*
