%TF.GenerationSoftware,KiCad,Pcbnew,6.0.4*%
%TF.CreationDate,2022-07-27T16:30:24-04:00*%
%TF.ProjectId,verter,76657274-6572-42e6-9b69-6361645f7063,rev?*%
%TF.SameCoordinates,Original*%
%TF.FileFunction,Legend,Bot*%
%TF.FilePolarity,Positive*%
%FSLAX46Y46*%
G04 Gerber Fmt 4.6, Leading zero omitted, Abs format (unit mm)*
G04 Created by KiCad (PCBNEW 6.0.4) date 2022-07-27 16:30:24*
%MOMM*%
%LPD*%
G01*
G04 APERTURE LIST*
%ADD10C,0.150000*%
%ADD11C,0.127000*%
%ADD12C,0.254000*%
G04 APERTURE END LIST*
D10*
X165852213Y-125753931D02*
X166333719Y-125272425D01*
X166465039Y-125228652D01*
X166596359Y-125272425D01*
X166771452Y-125447518D01*
X166815225Y-125578838D01*
X165895986Y-125710158D02*
X165939759Y-125841478D01*
X166158626Y-126060344D01*
X166289946Y-126104117D01*
X166421266Y-126060344D01*
X166508812Y-125972798D01*
X166552585Y-125841478D01*
X166508812Y-125710158D01*
X166289946Y-125491292D01*
X166246172Y-125359972D01*
X165502027Y-125316198D02*
X165370707Y-125272425D01*
X165195614Y-125097332D01*
X165151840Y-124966012D01*
X165195614Y-124834692D01*
X165239387Y-124790919D01*
X165370707Y-124747146D01*
X165502027Y-124790919D01*
X165633347Y-124922239D01*
X165764666Y-124966012D01*
X165895986Y-124922239D01*
X165939759Y-124878466D01*
X165983533Y-124747146D01*
X165939759Y-124615826D01*
X165808440Y-124484506D01*
X165677120Y-124440733D01*
X164670334Y-124572053D02*
X165589573Y-123652814D01*
X164276375Y-124178093D02*
X164757881Y-123696587D01*
X164889201Y-123652814D01*
X165020521Y-123696587D01*
X165151840Y-123827907D01*
X165195614Y-123959227D01*
X165195614Y-124046773D01*
X163969962Y-124046773D02*
X163269590Y-123346401D01*
X163751096Y-122427162D02*
X162831857Y-123346401D01*
X163707322Y-122470935D02*
X163663549Y-122339616D01*
X163488456Y-122164522D01*
X163357136Y-122120749D01*
X163269590Y-122120749D01*
X163138270Y-122164522D01*
X162875630Y-122427162D01*
X162831857Y-122558482D01*
X162831857Y-122646029D01*
X162875630Y-122777348D01*
X163050723Y-122952441D01*
X163182043Y-122996215D01*
X161956391Y-121770563D02*
X162000165Y-121901883D01*
X162175258Y-122076976D01*
X162306577Y-122120749D01*
X162394124Y-122120749D01*
X162525444Y-122076976D01*
X162788084Y-121814336D01*
X162831857Y-121683016D01*
X162831857Y-121595470D01*
X162788084Y-121464150D01*
X162612990Y-121289057D01*
X162481671Y-121245284D01*
X161518659Y-121420377D02*
X162437897Y-120501138D01*
X162087711Y-120851324D02*
X162043938Y-120720004D01*
X161868845Y-120544911D01*
X161737525Y-120501138D01*
X161649978Y-120501138D01*
X161518659Y-120544911D01*
X161256019Y-120807551D01*
X161212246Y-120938871D01*
X161212246Y-121026417D01*
X161256019Y-121157737D01*
X161431112Y-121332830D01*
X161562432Y-121376603D01*
X160555646Y-119581899D02*
X160643193Y-119581899D01*
X160774513Y-119625672D01*
X160862059Y-119713219D01*
X160905833Y-119844539D01*
X160905833Y-119932085D01*
X160862059Y-120063405D01*
X160774513Y-120150952D01*
X160643193Y-120194725D01*
X160555646Y-120194725D01*
X160424327Y-120150952D01*
X160336780Y-120063405D01*
X160293007Y-119932085D01*
X160293007Y-119844539D01*
X160643193Y-119494353D02*
X160293007Y-119844539D01*
X160205460Y-119844539D01*
X160161687Y-119800766D01*
X160117914Y-119669446D01*
X160161687Y-119538126D01*
X160380553Y-119319259D01*
X160599420Y-119275486D01*
X160818286Y-119319259D01*
X161037152Y-119450579D01*
X161168472Y-119669446D01*
X161212246Y-119888312D01*
X161168472Y-120107178D01*
X161037152Y-120326045D01*
X160818286Y-120457365D01*
X160599420Y-120501138D01*
X160380553Y-120457365D01*
X160161687Y-120326045D01*
X160030367Y-120107178D01*
X159986594Y-119888312D01*
X159111128Y-119012847D02*
X159592634Y-118531340D01*
X159723954Y-118487567D01*
X159855274Y-118531340D01*
X160030367Y-118706434D01*
X160074140Y-118837753D01*
X159154902Y-118969073D02*
X159198675Y-119100393D01*
X159417541Y-119319259D01*
X159548861Y-119363033D01*
X159680181Y-119319259D01*
X159767727Y-119231713D01*
X159811501Y-119100393D01*
X159767727Y-118969073D01*
X159548861Y-118750207D01*
X159505088Y-118618887D01*
X158366983Y-118181154D02*
X158410756Y-118312474D01*
X158585849Y-118487567D01*
X158717169Y-118531340D01*
X158848489Y-118487567D01*
X159198675Y-118137381D01*
X159242448Y-118006061D01*
X159198675Y-117874741D01*
X159023582Y-117699648D01*
X158892262Y-117655875D01*
X158760942Y-117699648D01*
X158673396Y-117787195D01*
X159023582Y-118312474D01*
X157885477Y-117787195D02*
X158498302Y-117174369D01*
X158323209Y-117349462D02*
X158366983Y-117218142D01*
X158366983Y-117130596D01*
X158323209Y-116999276D01*
X158235663Y-116911729D01*
X157316424Y-117218142D02*
X157929250Y-116605316D01*
X158235663Y-116298903D02*
X158235663Y-116386450D01*
X158148116Y-116386450D01*
X158148116Y-116298903D01*
X158235663Y-116298903D01*
X158148116Y-116386450D01*
X156484732Y-116386450D02*
X156966238Y-115904944D01*
X157097558Y-115861171D01*
X157228877Y-115904944D01*
X157403970Y-116080037D01*
X157447744Y-116211357D01*
X156528505Y-116342677D02*
X156572278Y-116473996D01*
X156791145Y-116692863D01*
X156922464Y-116736636D01*
X157053784Y-116692863D01*
X157141331Y-116605316D01*
X157185104Y-116473996D01*
X157141331Y-116342677D01*
X156922464Y-116123810D01*
X156878691Y-115992490D01*
X156134545Y-115861171D02*
X156046999Y-115861171D01*
X156046999Y-115948717D01*
X156134545Y-115948717D01*
X156134545Y-115861171D01*
X156046999Y-115948717D01*
X156222092Y-114898159D02*
X155609266Y-115510984D01*
X156134545Y-114985705D02*
X156134545Y-114898159D01*
X156090772Y-114766839D01*
X155959452Y-114635519D01*
X155828133Y-114591746D01*
X155696813Y-114635519D01*
X155215307Y-115117025D01*
X154471161Y-114285333D02*
X154514934Y-114416652D01*
X154690027Y-114591746D01*
X154821347Y-114635519D01*
X154952667Y-114591746D01*
X155302853Y-114241559D01*
X155346626Y-114110240D01*
X155302853Y-113978920D01*
X155127760Y-113803827D01*
X154996440Y-113760053D01*
X154865120Y-113803827D01*
X154777574Y-113891373D01*
X155127760Y-114416652D01*
X154733801Y-113409867D02*
X154383614Y-113059681D01*
X154908894Y-112972134D02*
X154120975Y-113760053D01*
X153989655Y-113803827D01*
X153858335Y-113760053D01*
X153770788Y-113672507D01*
X164766198Y-125964480D02*
X164766198Y-125876934D01*
X164722425Y-125745614D01*
X164503559Y-125526747D01*
X164372239Y-125482974D01*
X164284692Y-125482974D01*
X164153373Y-125526747D01*
X164065826Y-125614294D01*
X163978279Y-125789387D01*
X163978279Y-126839946D01*
X163409227Y-126270893D01*
X163759413Y-124782602D02*
X163671866Y-124695055D01*
X163540547Y-124651282D01*
X163453000Y-124651282D01*
X163321680Y-124695055D01*
X163102814Y-124826375D01*
X162883948Y-125045241D01*
X162752628Y-125264108D01*
X162708854Y-125395428D01*
X162708854Y-125482974D01*
X162752628Y-125614294D01*
X162840174Y-125701840D01*
X162971494Y-125745614D01*
X163059041Y-125745614D01*
X163190360Y-125701840D01*
X163409227Y-125570521D01*
X163628093Y-125351654D01*
X163759413Y-125132788D01*
X163803186Y-125001468D01*
X163803186Y-124913922D01*
X163759413Y-124782602D01*
X163015267Y-124213549D02*
X163015267Y-124126003D01*
X162971494Y-123994683D01*
X162752628Y-123775816D01*
X162621308Y-123732043D01*
X162533761Y-123732043D01*
X162402441Y-123775816D01*
X162314895Y-123863363D01*
X162227348Y-124038456D01*
X162227348Y-125089015D01*
X161658296Y-124519962D01*
X161614522Y-123775816D02*
X160914150Y-123075444D01*
X160520191Y-122331298D02*
X160651510Y-122375071D01*
X160739057Y-122375071D01*
X160870377Y-122331298D01*
X160914150Y-122287525D01*
X160957923Y-122156205D01*
X160957923Y-122068659D01*
X160914150Y-121937339D01*
X160739057Y-121762246D01*
X160607737Y-121718472D01*
X160520191Y-121718472D01*
X160388871Y-121762246D01*
X160345097Y-121806019D01*
X160301324Y-121937339D01*
X160301324Y-122024885D01*
X160345097Y-122156205D01*
X160520191Y-122331298D01*
X160563964Y-122462618D01*
X160563964Y-122550165D01*
X160520191Y-122681484D01*
X160345097Y-122856577D01*
X160213778Y-122900351D01*
X160126231Y-122900351D01*
X159994911Y-122856577D01*
X159819818Y-122681484D01*
X159776045Y-122550165D01*
X159776045Y-122462618D01*
X159819818Y-122331298D01*
X159994911Y-122156205D01*
X160126231Y-122112432D01*
X160213778Y-122112432D01*
X160345097Y-122156205D01*
X159469632Y-121105646D02*
X158856806Y-121718472D01*
X160038685Y-120974327D02*
X159600952Y-121849792D01*
X159031899Y-121280740D01*
X157893794Y-120755460D02*
X158419073Y-121280740D01*
X158156434Y-121018100D02*
X159075672Y-120098861D01*
X159031899Y-120317727D01*
X159031899Y-120492821D01*
X159075672Y-120624140D01*
X157850021Y-120011314D02*
X157149648Y-119310942D01*
X156755689Y-118566796D02*
X156887009Y-118610570D01*
X156974555Y-118610570D01*
X157105875Y-118566796D01*
X157149648Y-118523023D01*
X157193422Y-118391703D01*
X157193422Y-118304157D01*
X157149648Y-118172837D01*
X156974555Y-117997744D01*
X156843235Y-117953970D01*
X156755689Y-117953970D01*
X156624369Y-117997744D01*
X156580596Y-118041517D01*
X156536822Y-118172837D01*
X156536822Y-118260383D01*
X156580596Y-118391703D01*
X156755689Y-118566796D01*
X156799462Y-118698116D01*
X156799462Y-118785663D01*
X156755689Y-118916983D01*
X156580596Y-119092076D01*
X156449276Y-119135849D01*
X156361729Y-119135849D01*
X156230409Y-119092076D01*
X156055316Y-118916983D01*
X156011543Y-118785663D01*
X156011543Y-118698116D01*
X156055316Y-118566796D01*
X156230409Y-118391703D01*
X156361729Y-118347930D01*
X156449276Y-118347930D01*
X156580596Y-118391703D01*
X156493049Y-117516238D02*
X155923996Y-116947185D01*
X155880223Y-117603784D01*
X155748903Y-117472464D01*
X155617584Y-117428691D01*
X155530037Y-117428691D01*
X155398717Y-117472464D01*
X155179851Y-117691331D01*
X155136077Y-117822651D01*
X155136077Y-117910197D01*
X155179851Y-118041517D01*
X155442490Y-118304157D01*
X155573810Y-118347930D01*
X155661357Y-118347930D01*
X154567025Y-117428691D02*
X154391932Y-117253598D01*
X154348159Y-117122278D01*
X154348159Y-117034732D01*
X154391932Y-116815865D01*
X154523252Y-116596999D01*
X154873438Y-116246813D01*
X155004758Y-116203039D01*
X155092304Y-116203039D01*
X155223624Y-116246813D01*
X155398717Y-116421906D01*
X155442490Y-116553226D01*
X155442490Y-116640772D01*
X155398717Y-116772092D01*
X155179851Y-116990958D01*
X155048531Y-117034732D01*
X154960984Y-117034732D01*
X154829665Y-116990958D01*
X154654571Y-116815865D01*
X154610798Y-116684545D01*
X154610798Y-116596999D01*
X154654571Y-116465679D01*
X153691559Y-116553226D02*
X153516466Y-116378133D01*
X153472693Y-116246813D01*
X153472693Y-116159266D01*
X153516466Y-115940400D01*
X153647786Y-115721533D01*
X153997972Y-115371347D01*
X154129292Y-115327574D01*
X154216839Y-115327574D01*
X154348159Y-115371347D01*
X154523252Y-115546440D01*
X154567025Y-115677760D01*
X154567025Y-115765307D01*
X154523252Y-115896626D01*
X154304385Y-116115493D01*
X154173065Y-116159266D01*
X154085519Y-116159266D01*
X153954199Y-116115493D01*
X153779106Y-115940400D01*
X153735333Y-115809080D01*
X153735333Y-115721533D01*
X153779106Y-115590214D01*
D11*
%TO.C,*%
D10*
%TO.C,C6*%
X157805047Y-108283428D02*
X158566952Y-108283428D01*
X141803047Y-104727428D02*
X142564952Y-104727428D01*
X142184000Y-105108380D02*
X142184000Y-104346476D01*
%TO.C,C7*%
X143544952Y-143466571D02*
X142783047Y-143466571D01*
X159546952Y-147022571D02*
X158785047Y-147022571D01*
X159166000Y-146641619D02*
X159166000Y-147403523D01*
D12*
%TO.C,*%
X185168765Y-135834919D02*
X185168765Y-136088919D01*
X185422765Y-136088919D02*
X185422765Y-135834919D01*
X185803765Y-135072919D02*
X183136765Y-135072919D01*
X186819765Y-136850919D02*
X186819765Y-136596919D01*
X187708765Y-135707919D02*
X187327765Y-136088919D01*
X184406765Y-135834919D02*
X184406765Y-136215919D01*
X184660765Y-135453919D02*
X184660765Y-135834919D01*
X186565765Y-135707919D02*
X186946765Y-136088919D01*
X184406765Y-135453919D02*
X184660765Y-135453919D01*
X187581765Y-136596919D02*
X187581765Y-136850919D01*
X183136765Y-135072919D02*
X183136765Y-136596919D01*
X184406765Y-136215919D02*
X184660765Y-136215919D01*
X186946765Y-135707919D02*
X186565765Y-136088919D01*
X187327765Y-135707919D02*
X187708765Y-136088919D01*
X185168765Y-136088919D02*
X185041765Y-136215919D01*
X187581765Y-136596919D02*
X186438765Y-136596919D01*
X185422765Y-135834919D02*
X185168765Y-135834919D01*
X184660765Y-135834919D02*
X184406765Y-135834919D01*
X183136765Y-136596919D02*
X186057765Y-136596919D01*
X183898765Y-135834919D02*
X183644765Y-135834919D01*
X185803765Y-136469919D02*
X185803765Y-135072919D01*
X184025765Y-135453919D02*
X184025765Y-136215919D01*
X183644765Y-135834919D02*
X183644765Y-136215919D01*
%TD*%
M02*
