%TF.GenerationSoftware,KiCad,Pcbnew,6.0.4*%
%TF.CreationDate,2022-07-27T16:30:24-04:00*%
%TF.ProjectId,verter,76657274-6572-42e6-9b69-6361645f7063,rev?*%
%TF.SameCoordinates,Original*%
%TF.FileFunction,Soldermask,Top*%
%TF.FilePolarity,Negative*%
%FSLAX46Y46*%
G04 Gerber Fmt 4.6, Leading zero omitted, Abs format (unit mm)*
G04 Created by KiCad (PCBNEW 6.0.4) date 2022-07-27 16:30:24*
%MOMM*%
%LPD*%
G01*
G04 APERTURE LIST*
G04 Aperture macros list*
%AMRoundRect*
0 Rectangle with rounded corners*
0 $1 Rounding radius*
0 $2 $3 $4 $5 $6 $7 $8 $9 X,Y pos of 4 corners*
0 Add a 4 corners polygon primitive as box body*
4,1,4,$2,$3,$4,$5,$6,$7,$8,$9,$2,$3,0*
0 Add four circle primitives for the rounded corners*
1,1,$1+$1,$2,$3*
1,1,$1+$1,$4,$5*
1,1,$1+$1,$6,$7*
1,1,$1+$1,$8,$9*
0 Add four rect primitives between the rounded corners*
20,1,$1+$1,$2,$3,$4,$5,0*
20,1,$1+$1,$4,$5,$6,$7,0*
20,1,$1+$1,$6,$7,$8,$9,0*
20,1,$1+$1,$8,$9,$2,$3,0*%
%AMOutline4P*
0 Free polygon, 4 corners , with rotation*
0 The origin of the aperture is its center*
0 number of corners: always 4*
0 $1 to $8 corner X, Y*
0 $9 Rotation angle, in degrees counterclockwise*
0 create outline with 4 corners*
4,1,4,$1,$2,$3,$4,$5,$6,$7,$8,$1,$2,$9*%
%AMOutline5P*
0 Free polygon, 5 corners , with rotation*
0 The origin of the aperture is its center*
0 number of corners: always 5*
0 $1 to $10 corner X, Y*
0 $11 Rotation angle, in degrees counterclockwise*
0 create outline with 5 corners*
4,1,5,$1,$2,$3,$4,$5,$6,$7,$8,$9,$10,$1,$2,$11*%
%AMOutline6P*
0 Free polygon, 6 corners , with rotation*
0 The origin of the aperture is its center*
0 number of corners: always 6*
0 $1 to $12 corner X, Y*
0 $13 Rotation angle, in degrees counterclockwise*
0 create outline with 6 corners*
4,1,6,$1,$2,$3,$4,$5,$6,$7,$8,$9,$10,$11,$12,$1,$2,$13*%
%AMOutline7P*
0 Free polygon, 7 corners , with rotation*
0 The origin of the aperture is its center*
0 number of corners: always 7*
0 $1 to $14 corner X, Y*
0 $15 Rotation angle, in degrees counterclockwise*
0 create outline with 7 corners*
4,1,7,$1,$2,$3,$4,$5,$6,$7,$8,$9,$10,$11,$12,$13,$14,$1,$2,$15*%
%AMOutline8P*
0 Free polygon, 8 corners , with rotation*
0 The origin of the aperture is its center*
0 number of corners: always 8*
0 $1 to $16 corner X, Y*
0 $17 Rotation angle, in degrees counterclockwise*
0 create outline with 8 corners*
4,1,8,$1,$2,$3,$4,$5,$6,$7,$8,$9,$10,$11,$12,$13,$14,$15,$16,$1,$2,$17*%
G04 Aperture macros list end*
%ADD10Outline6P,-1.143000X0.762000X0.838200X0.762000X1.143000X0.457200X1.143000X-0.457200X0.838200X-0.762000X-1.143000X-0.762000X0.000000*%
%ADD11RoundRect,0.135000X-0.135000X-0.185000X0.135000X-0.185000X0.135000X0.185000X-0.135000X0.185000X0*%
%ADD12Outline6P,-1.143000X0.457200X-0.838200X0.762000X1.143000X0.762000X1.143000X-0.762000X-0.838200X-0.762000X-1.143000X-0.457200X0.000000*%
%ADD13C,8.000000*%
%ADD14RoundRect,0.135000X-0.035355X0.226274X-0.226274X0.035355X0.035355X-0.226274X0.226274X-0.035355X0*%
%ADD15Outline6P,-1.143000X0.762000X0.838200X0.762000X1.143000X0.457200X1.143000X-0.457200X0.838200X-0.762000X-1.143000X-0.762000X225.000000*%
%ADD16Outline6P,-1.143000X0.457200X-0.838200X0.762000X1.143000X0.762000X1.143000X-0.762000X-0.838200X-0.762000X-1.143000X-0.457200X225.000000*%
%ADD17C,6.000000*%
%ADD18Outline4P,-0.912000X-1.262000X0.912000X-0.262000X0.912000X0.262000X-0.912000X1.262000X0.000000*%
%ADD19R,1.524000X1.524000*%
%ADD20C,1.524000*%
%ADD21Outline6P,-1.143000X0.762000X0.838200X0.762000X1.143000X0.457200X1.143000X-0.457200X0.838200X-0.762000X-1.143000X-0.762000X90.000000*%
%ADD22RoundRect,0.135000X0.185000X-0.135000X0.185000X0.135000X-0.185000X0.135000X-0.185000X-0.135000X0*%
%ADD23Outline6P,-1.143000X0.457200X-0.838200X0.762000X1.143000X0.762000X1.143000X-0.762000X-0.838200X-0.762000X-1.143000X-0.457200X90.000000*%
%ADD24RoundRect,0.237500X-0.237500X0.300000X-0.237500X-0.300000X0.237500X-0.300000X0.237500X0.300000X0*%
%ADD25RoundRect,0.249999X-0.737501X-2.450001X0.737501X-2.450001X0.737501X2.450001X-0.737501X2.450001X0*%
%ADD26C,2.524000*%
%ADD27O,3.500000X3.500000*%
%ADD28R,2.000000X1.905000*%
%ADD29R,16.262000X9.762000*%
%ADD30O,2.000000X1.905000*%
%ADD31C,4.000000*%
%ADD32Outline5P,-2.000000X1.200000X-1.200000X2.000000X2.000000X2.000000X2.000000X-2.000000X-2.000000X-2.000000X0.000000*%
%ADD33RoundRect,0.137500X-0.662500X-0.137500X0.662500X-0.137500X0.662500X0.137500X-0.662500X0.137500X0*%
%ADD34RoundRect,0.249999X-2.450001X0.737501X-2.450001X-0.737501X2.450001X-0.737501X2.450001X0.737501X0*%
%ADD35RoundRect,0.135000X0.135000X0.185000X-0.135000X0.185000X-0.135000X-0.185000X0.135000X-0.185000X0*%
%ADD36Outline6P,-1.143000X0.762000X0.838200X0.762000X1.143000X0.457200X1.143000X-0.457200X0.838200X-0.762000X-1.143000X-0.762000X180.000000*%
%ADD37Outline6P,-1.143000X0.457200X-0.838200X0.762000X1.143000X0.762000X1.143000X-0.762000X-0.838200X-0.762000X-1.143000X-0.457200X180.000000*%
%ADD38RoundRect,0.135000X-0.226274X-0.035355X-0.035355X-0.226274X0.226274X0.035355X0.035355X0.226274X0*%
%ADD39Outline6P,-1.143000X0.762000X0.838200X0.762000X1.143000X0.457200X1.143000X-0.457200X0.838200X-0.762000X-1.143000X-0.762000X315.000000*%
%ADD40Outline6P,-1.143000X0.457200X-0.838200X0.762000X1.143000X0.762000X1.143000X-0.762000X-0.838200X-0.762000X-1.143000X-0.457200X315.000000*%
%ADD41RoundRect,0.237500X-0.044194X-0.380070X0.380070X0.044194X0.044194X0.380070X-0.380070X-0.044194X0*%
%ADD42RoundRect,0.135000X0.035355X-0.226274X0.226274X-0.035355X-0.035355X0.226274X-0.226274X0.035355X0*%
%ADD43Outline6P,-1.143000X0.762000X0.838200X0.762000X1.143000X0.457200X1.143000X-0.457200X0.838200X-0.762000X-1.143000X-0.762000X45.000000*%
%ADD44Outline6P,-1.143000X0.457200X-0.838200X0.762000X1.143000X0.762000X1.143000X-0.762000X-0.838200X-0.762000X-1.143000X-0.457200X45.000000*%
%ADD45RoundRect,0.249999X0.737501X2.450001X-0.737501X2.450001X-0.737501X-2.450001X0.737501X-2.450001X0*%
%ADD46RoundRect,0.237500X0.237500X-0.300000X0.237500X0.300000X-0.237500X0.300000X-0.237500X-0.300000X0*%
%ADD47RoundRect,0.249999X2.450001X-0.737501X2.450001X0.737501X-2.450001X0.737501X-2.450001X-0.737501X0*%
%ADD48Outline5P,-2.000000X1.200000X-1.200000X2.000000X2.000000X2.000000X2.000000X-2.000000X-2.000000X-2.000000X180.000000*%
G04 APERTURE END LIST*
D10*
%TO.C,C11*%
X114272000Y-135750000D03*
D11*
X115540000Y-135750000D03*
D12*
X117828000Y-135750000D03*
D11*
X116560000Y-135750000D03*
%TD*%
D13*
%TO.C,M1*%
X105000000Y-105000000D03*
%TD*%
D14*
%TO.C,R12*%
X140250000Y-144600000D03*
D15*
X141146612Y-143703388D03*
D14*
X139528752Y-145321248D03*
D16*
X138632140Y-146217860D03*
%TD*%
D17*
%TO.C,BN2*%
X168900000Y-116100000D03*
X168900000Y-135150000D03*
%TD*%
D13*
%TO.C,M2*%
X184000000Y-144000000D03*
%TD*%
D18*
%TO.C,t3bat-1*%
X125450000Y-140750000D03*
%TD*%
%TO.C,t12hbout1*%
X178850000Y-126350000D03*
%TD*%
%TO.C,t2vdda1*%
X125000000Y-103000000D03*
%TD*%
D19*
%TO.C,cn1*%
X101986000Y-124540000D03*
D20*
X101986000Y-122000000D03*
X101986000Y-119460000D03*
X101986000Y-116920000D03*
X101986000Y-114380000D03*
%TD*%
D21*
%TO.C,R1*%
X120030000Y-122055500D03*
D22*
X120030000Y-120787500D03*
D23*
X120030000Y-118499500D03*
D22*
X120030000Y-119767500D03*
%TD*%
D15*
%TO.C,D1*%
X116257236Y-113742764D03*
D14*
X115360624Y-114639376D03*
X114639376Y-115360624D03*
D16*
X113742764Y-116257236D03*
%TD*%
D18*
%TO.C,t1*%
X102000000Y-132460000D03*
%TD*%
%TO.C,t4bat+1*%
X121200000Y-144900000D03*
%TD*%
D13*
%TO.C,M3*%
X184000000Y-106000000D03*
%TD*%
D24*
%TO.C,C4*%
X115000000Y-120637500D03*
X115000000Y-122362500D03*
%TD*%
D25*
%TO.C,C5*%
X159612500Y-123150000D03*
X164887500Y-123150000D03*
%TD*%
D26*
%TO.C,L1*%
X152550000Y-124450000D03*
X159734205Y-131634205D03*
%TD*%
D24*
%TO.C,C3*%
X114950000Y-126987500D03*
X114950000Y-128712500D03*
%TD*%
D17*
%TO.C,BN3*%
X113850000Y-144850000D03*
X132900000Y-144850000D03*
%TD*%
D27*
%TO.C,U2*%
X142430000Y-132100000D03*
D28*
X125770000Y-129560000D03*
D29*
X136901000Y-132179000D03*
D30*
X125770000Y-132100000D03*
X125770000Y-134640000D03*
%TD*%
D31*
%TO.C,C6*%
X144550000Y-107450000D03*
D32*
X154550000Y-107450000D03*
%TD*%
D24*
%TO.C,R3*%
X176250000Y-115637500D03*
X176250000Y-117362500D03*
%TD*%
D18*
%TO.C,t6higate1*%
X129340000Y-107460000D03*
%TD*%
D33*
%TO.C,U4*%
X105750000Y-120255000D03*
X105750000Y-121525000D03*
X105750000Y-122795000D03*
X105750000Y-124065000D03*
X105750000Y-125335000D03*
X105750000Y-126605000D03*
X105750000Y-127875000D03*
X105750000Y-129145000D03*
X112250000Y-129145000D03*
X112250000Y-127875000D03*
X112250000Y-126605000D03*
X112250000Y-125335000D03*
X112250000Y-124065000D03*
X112250000Y-122795000D03*
X112250000Y-121525000D03*
X112250000Y-120255000D03*
%TD*%
D21*
%TO.C,R2*%
X119880000Y-130778000D03*
D22*
X119880000Y-129510000D03*
X119880000Y-128490000D03*
D23*
X119880000Y-127222000D03*
%TD*%
D18*
%TO.C,t5lo_gate1*%
X123750000Y-127000000D03*
%TD*%
%TO.C,t8hbf1*%
X166550000Y-129250000D03*
%TD*%
D10*
%TO.C,C10*%
X121122000Y-114100000D03*
D11*
X122390000Y-114100000D03*
D12*
X124678000Y-114100000D03*
D11*
X123410000Y-114100000D03*
%TD*%
D27*
%TO.C,U1*%
X142430000Y-121000000D03*
D28*
X125770000Y-118460000D03*
D29*
X136901000Y-121079000D03*
D30*
X125770000Y-121000000D03*
X125770000Y-123540000D03*
%TD*%
D34*
%TO.C,C12*%
X149700000Y-113250000D03*
X149700000Y-118525000D03*
%TD*%
D24*
%TO.C,R11*%
X110000000Y-137537500D03*
X110000000Y-139262500D03*
%TD*%
D35*
%TO.C,D3*%
X113510000Y-103000000D03*
D36*
X114778000Y-103000000D03*
D35*
X112490000Y-103000000D03*
D37*
X111222000Y-103000000D03*
%TD*%
D26*
%TO.C,L2*%
X171115795Y-126415795D03*
X178300000Y-133600000D03*
%TD*%
D38*
%TO.C,C2*%
X104989376Y-112639376D03*
D39*
X104092764Y-111742764D03*
D38*
X105710624Y-113360624D03*
D40*
X106607236Y-114257236D03*
%TD*%
D34*
%TO.C,C13*%
X182700000Y-115425000D03*
X182700000Y-120700000D03*
%TD*%
D41*
%TO.C,R10*%
X109390120Y-109609880D03*
X110609880Y-108390120D03*
%TD*%
D42*
%TO.C,R4*%
X121439376Y-108960624D03*
D43*
X120542764Y-109857236D03*
D44*
X123057236Y-107342764D03*
D42*
X122160624Y-108239376D03*
%TD*%
D45*
%TO.C,C9*%
X153237500Y-132150000D03*
X147962500Y-132150000D03*
%TD*%
D18*
%TO.C,t7hbc1*%
X147950000Y-125800000D03*
%TD*%
D17*
%TO.C,BN1*%
X173650000Y-105650000D03*
%TD*%
D46*
%TO.C,C1*%
X102000000Y-129322500D03*
X102000000Y-127597500D03*
%TD*%
D35*
%TO.C,D4*%
X116483000Y-139400000D03*
D36*
X117751000Y-139400000D03*
D37*
X114195000Y-139400000D03*
D35*
X115463000Y-139400000D03*
%TD*%
D47*
%TO.C,C8*%
X164462500Y-108687500D03*
X164462500Y-103412500D03*
%TD*%
D17*
%TO.C,BNOut4*%
X184200000Y-127900000D03*
%TD*%
D42*
%TO.C,D2*%
X172839376Y-121560624D03*
D43*
X171942764Y-122457236D03*
D42*
X173560624Y-120839376D03*
D44*
X174457236Y-119942764D03*
%TD*%
D31*
%TO.C,C7*%
X156800000Y-144300000D03*
D48*
X146800000Y-144300000D03*
%TD*%
D13*
%TO.C,M4*%
X105000000Y-145000000D03*
%TD*%
M02*
